<?xml version="1.0" encoding="UTF-8"?>
<?xml-stylesheet href="common.css" type="text/css"?>
<svg xmlns="http://www.w3.org/2000/svg" width="128" height="128" version="1.1">
	<path class="supercells shining" d="M 51.6,21.4 C 31.1,26.5 16,45 16,67 c 0,4.5 0.6,8.8 1.8,13 L 25.2,67.3 C 25.1,66.2 25,65.1 25,64 25,48.4 34.1,35 47.3,28.7 l 4.2,-7.3 z M 57,24 23,83 72,73 55,114 109,48 58,59 82,24 57,24 z M 87.3,26.8 84.6,30.9 c 5.4,3.3 9.9,8 13.1,13.4 l 5.8,-1.3 C 99.5,36.4 94,30.8 87.3,26.8 z m 21.7,30.7 -6.1,7.4 c -0.4,18.2 -13.3,33.4 -30.4,37.2 L 62.8,114 c 0.1,3.4e-4 0.1,0 0.2,0 26,0 47,-21 47,-47 0,-3.3 -0.3,-6.5 -1,-9.5 z M 32.6,87.2 21.7,89.4 c 5.8,10.8 15.7,19 27.7,22.6 l 4.3,-10.4 C 45.1,99.2 37.8,94.1 32.6,87.2 z"/>
</svg>
