<?xml version="1.0" encoding="UTF-8"?>
<?xml-stylesheet href="common.css" type="text/css"?>
<svg xmlns="http://www.w3.org/2000/svg" width="128" height="128" version="1.1">
	<path class="fuel shining" d="m 53,16 -17,16 -5,38 30,0 1,-54 z m 13,0 1,54 30,0 L 92,32 75,16 z m -29.5,57 -0.5,6 20,0 0,-6 z m 35.5,0 0,6 20,0 -0.5,-6 z m -32,9 c -3,1 -5,3 -5,7 0,4 6,16 11,27 5,-11 11,-23 11,-27 0,-4 -2,-6 -5,-7 4,6 -3,13 -6,13 -3,0 -10,-7 -6,-13 z m 36,0 c -3,1 -5,3 -5,7 0,4 6,16 11,27 5,-11 11,-23 11,-27 0,-4 -2,-6 -5,-7 4,6 -3,13 -6,13 -3,0 -10,-7 -6,-13 z"/>
</svg>
