<?xml version="1.0" encoding="UTF-8"?>
<?xml-stylesheet href="common.css" type="text/css"?>
<svg xmlns="http://www.w3.org/2000/svg" width="128" height="128" version="1.1">
	<path class="plasma shining" d="M 40.6,26 C 32.3,26 26,30.6 26,40.6 c 0,5.8 2.2,12.8 6.1,20.1 l 3.5,-5.1 c -1.3,-3.3 -2,-6.6 -2,-9.3 0,-6.5 3.8,-9.9 9.9,-9.9 3.6,0 7.7,1.1 12.3,3.3 C 36.9,54.8 26,74.4 26,87.4 c 0,10 6.3,14.6 14.6,14.6 16.8,0 37.7,-16.7 47.7,-29.8 2.2,4.6 3.3,8.7 3.3,12.3 0,6.4 -3.8,9.9 -9.9,9.9 -2.7,0 -6,-0.7 -9.3,-2 l -5.1,3.5 C 74.6,99.8 81.5,102 87.4,102 95.7,102 102,97.4 102,87.4 102,80.7 99.1,72.5 93.9,64 99.1,55.5 102,47.3 102,40.6 102,30.6 95.7,26 87.4,26 80.7,26 72.5,28.9 64,34.1 55.1,28.7 47.1,26 40.6,26 z m 41.1,7.6 c 6.1,0 9.9,3.5 9.9,9.9 0,3.6 -1.1,7.7 -3.3,12.3 -5.3,-7 -13.6,-14.5 -19.6,-18.6 4.7,-2.3 9.3,-3.6 13,-3.6 z m -21.3,8.7 c 8.3,5 16.7,12.7 23.1,21.7 -9.7,14 -27.6,27.6 -40,27.6 -6.1,0 -9.9,-3.4 -9.9,-9.9 0,-11.8 12.3,-29 26.8,-39.4 z M 62,52 c -6.1,0 -11,4.9 -11,11 0,6.1 4.9,11 11,11 6.1,0 11,-4.9 11,-11 0,-6.1 -4.9,-11 -11,-11 z"/>
</svg>
