<?xml version="1.0" encoding="UTF-8"?>
<?xml-stylesheet href="common.css" type="text/css"?>
<svg xmlns="http://www.w3.org/2000/svg" width="128" height="128" version="1.1">
	<path class="orange shining" d="m64 15a52 52 0 0 0 -37.3 15.9l7.7 7.4-10 17.3-10.3-2.9a52 52 0 0 0 -2 14.3 52 52 0 0 0 39.4 50.4l2.6-10.4h20l2.6 10.4a52 52 0 0 0 39.4 -50.4 52 52 0 0 0 -2 -14.3l-10.3 3-10-17.3 7.7-7.5a52 52 0 0 0 -37.5 -15.9z"/>
	<g class="orange darkened">
		<path transform="matrix(0.37,0,0,0.37,12.3,17.7)" d="m 123.3,53 0,1.3 c 0,1.6 2.4,8.1 5.4,14.7 1.3,2.7 2.6,5.7 2.9,6.5 1,2.6 3.9,12.8 5.1,18.4 0.7,3.3 1.8,6.6 2.8,8.8 2.3,5.1 2.8,8 2.5,15.4 -0.3,7.9 -0.8,13.5 -1.4,14.5 -1.3,2.6 -3.3,5.2 -4.9,6.4 -1,0.7 -2.8,2.3 -4.1,3.5 -1.9,1.8 -3.5,2.7 -8.1,4.9 -3.2,1.5 -5.9,2.7 -6,2.7 -0.8,0 -12.7,4.9 -14.4,5.9 -3.1,1.9 -6.3,2.8 -13.6,4.1 -14.4,2.6 -15.7,2.6 -22.7,1.5 -6.1,-1 -19.8,-1.2 -21.5,-0.4 -1.6,0.8 -2.6,2.9 -2.6,5.5 0,4 2.7,8 10.1,11.9 7.8,-6.1 7.8,-8.8 18.4,-10.1 l 0.2,0.7 c -7,0 -16.9,10.8 -19.7,16.5 -0.5,1.1 -0.5,1.4 0.2,2.9 1,2.3 3,4.5 6.9,4.1 4,-5.1 12.5,-17.5 19.3,-18.1 l 0.3,0.8 c -6.2,0.8 -17.5,15.3 -16.9,17.8 0.6,2.3 3.5,4.2 6,4.6 1.8,0.2 2.3,0.4 3.7,-1.1 2.5,-2.6 7.7,-14.4 14.6,-16.8 l 0.4,0.8 c -3.8,1.3 -11.1,10.7 -12.2,14.7 1.5,0.6 8.1,1.3 10.3,-0.8 4.4,-4.1 4.3,-9.9 10.4,-10.1 l 0.2,0.9 c -4.2,-0.1 -7.4,7.6 -7.4,9.1 0.1,1.7 6.2,2.5 8,2.7 l 1.7,-2 1.1,0.6 -1.4,2.3 c 2.3,2.7 3,2.9 5.8,3.5 2.2,0.4 5.3,0.6 11.3,0.6 4.6,0 8.9,0.2 9.6,0.4 2.1,0.5 14.8,-0.3 22.1,-1.4 9.3,-1.4 15.1,-1.4 23.2,0.2 4.7,0.9 13.7,1.7 15.7,1.3 1.6,-0.3 7.4,-2.4 9.4,-3.5 2.2,-1.2 5.4,-4.5 6.7,-7.1 0.7,-1.4 1.8,-4.1 2.5,-6 2.2,-6.3 1.5,-12.2 -2.3,-21 -5.7,-13.1 -7.1,-19.6 -7,-32.7 0,-6 0.2,-8.5 1.1,-14 1,-6.3 1.1,-7.8 1.4,-23.8 0.2,-9.4 0.5,-21.8 0.7,-27.6 0.2,-5.8 0.3,-11.4 0.2,-12.4 L 197,53 Z M 49.1,162.5 c 8.2,-1 11.8,6.6 3.9,9.2 0,-3.2 -0.9,-6.1 -3.9,-9.2 z m 8.3,28 c -0.8,-1.5 -2,-2.7 -3.9,-3.6 2.6,-4.2 7.5,-0.9 3.9,3.6 z m 11.2,5.2 c -1.3,-1.4 -2.9,-2.2 -4.6,-2.7 2,-4 7.3,-2.1 4.6,2.7 z"/>
	</g>
</svg>
