<?xml version="1.0" encoding="UTF-8"?>
<?xml-stylesheet href="common.css" type="text/css"?>
<svg xmlns="http://www.w3.org/2000/svg" width="128" height="128" version="1.1">
	<path class="redorange shining" d="m64 15a52 52 0 0 0 -37.3 15.9l7.7 7.4-10 17.3-10.3-2.9a52 52 0 0 0 -2 14.3 52 52 0 0 0 39.4 50.4l2.6-10.4h20l2.6 10.4a52 52 0 0 0 39.4 -50.4 52 52 0 0 0 -2 -14.3l-10.3 3-10-17.3 7.7-7.5a52 52 0 0 0 -37.5 -15.9z"/>
	<g class="redorange darkened">
		<path transform="matrix(0.41,0,0,0.41,12.6,15.7)" d="m 125.5,62.2 c 5.2,-1.1 11.3,9.2 16.2,8.3 5.6,-0.9 6,-4.7 10.7,-5.3 l 14.7,-1.9 c 3.3,-0.4 11.5,11.8 15,31.8 l 10.9,62.7 c 0.5,3.1 -27.1,8.4 -27.7,5.6 l -13,-61.1 -7.9,1.8 14.4,62 c 0.8,3.4 -31.6,10 -32.2,7.1 l -14.1,-61.5 -7.7,1.9 14.6,60.5 c 0.6,2.4 -25.4,7.6 -25.9,5.5 l -14.4,-59 -7.7,1.9 13.7,48.9 c 0.6,2 -18.3,6.6 -19.3,4.1 L 47.6,127.8 C 42.7,115 43.2,103.2 46,101.4 l 9.1,-6 c 4.1,-2.7 6.7,0.3 11.1,-1.5 4.8,-2 5,-12.8 11.2,-14.6 L 88.5,76 c 4.1,-1.2 6.5,2.3 11.6,0.8 4.9,-1.4 5.3,-10.3 10.7,-11.5 z m 83,58.2 -1.9,56.9 c -0.1,2.3 -7.6,10.3 -10.7,10.5 l -53.1,4.5 c -4,-1.1 -2.2,-9 -0.2,-13.1 l 45.1,-11.3 c 9.8,-2.5 13.2,-7.5 12.7,-10.4 l -8.3,-47.8 z"/>
	</g>
</svg>
