<?xml version="1.0" encoding="UTF-8"?>
<?xml-stylesheet href="common.css" type="text/css"?>
<svg xmlns="http://www.w3.org/2000/svg" width="128" height="128" version="1.1">
	<path class="violet shining" d="m64 15a52 52 0 0 0 -37.3 15.9l7.7 7.4-10 17.3-10.3-2.9a52 52 0 0 0 -2 14.3 52 52 0 0 0 39.4 50.4l2.6-10.4h20l2.6 10.4a52 52 0 0 0 39.4 -50.4 52 52 0 0 0 -2 -14.3l-10.3 3-10-17.3 7.7-7.5a52 52 0 0 0 -37.5 -15.9z"/>
	<g class="violet darkened">
		<path transform="matrix(0.383,0,0,0.383,14.976,18.976)" d="M 126.2,73 C 89.4,73.3 53.3,91.9 34,128 c 10.3,19.2 25.3,33.5 42.7,42.7 L 65.8,181.6 77.1,193 192.9,77.2 181.6,65.8 166.9,80.5 C 153.8,75.4 140,72.9 126.2,73 Z m 1.8,9 c 10.5,0 20.2,3.5 27.9,9.4 L 91.4,155.9 C 85.5,148.2 82,138.5 82,128 82,102.6 102.6,82 128,82 Z m 67.7,15.2 -22.4,22.4 c 0.4,2.7 0.7,5.5 0.7,8.4 0,25.4 -20.6,46 -46,46 -2.9,0 -5.7,-0.3 -8.4,-0.8 l -8.6,8.6 c 5,0.7 10.1,1.2 15.2,1.2 36.8,0.3 74.1,-17.8 95.8,-55 -7.2,-12.4 -16.2,-22.7 -26.3,-30.8 z"/>
	</g>
</svg>
