<?xml version="1.0" encoding="UTF-8"?>
<?xml-stylesheet href="common.css" type="text/css"?>
<svg xmlns="http://www.w3.org/2000/svg" width="128" height="128" version="1.1">
	<path class="orange shining" d="m64 15a52 52 0 0 0 -37.3 15.9l7.7 7.4-10 17.3-10.3-2.9a52 52 0 0 0 -2 14.3 52 52 0 0 0 39.4 50.4l2.6-10.4h20l2.6 10.4a52 52 0 0 0 39.4 -50.4 52 52 0 0 0 -2 -14.3l-10.3 3-10-17.3 7.7-7.5a52 52 0 0 0 -37.5 -15.9z"/>
	<g class="orange darkened">
		<path transform="matrix(0.4,0,0,0.4,13,11)" d="m 67.5,110.4 c 0,20.2 4.9,27.2 15.5,27.2 7,0 14.4,-5.4 14.4,-14.4 0,-8.3 -5.6,-23.1 -5.6,-39.1 0,-16 5.4,-33 27,-45.8 -4.9,12.8 -6.8,23.8 -6.8,32.6 0,23.4 14.2,34.2 26.9,34.2 10.3,0 20.9,-6.7 20.9,-26 6.8,7.6 9.9,16.2 9.9,24.9 0,13.7 -7.6,26 -7.6,37.1 0,9 7.4,14.4 14.4,14.4 12.6,0 16.4,-11.4 16.4,-29.9 3.8,6.5 7,19.1 7,29.9 0.2,32.6 -30.3,56 -64.5,56 28.8,-10.8 34.2,-25.2 34.2,-41.5 -7,12.6 -14.4,14.4 -18,14.4 -21.8,0 1.8,-41.5 -36.2,-70.3 6.1,13.3 8.7,24.9 8.7,34.2 0,20 -10.8,30.8 -21.3,30.8 -8.8,0 -17.7,-7 -21.3,-22.2 0,20.9 6.1,40.9 33.9,54.4 -43.3,-7 -59.4,-33.8 -59.4,-60.9 0,-16.4 4.5,-29.7 11.5,-40 z"/>
	</g>
</svg>
