<?xml version="1.0" encoding="UTF-8"?>
<?xml-stylesheet href="common.css" type="text/css"?>
<svg xmlns="http://www.w3.org/2000/svg" width="128" height="128" version="1.1">
	<path class="scarlet shining" d="m64 15a52 52 0 0 0 -37.3 15.9l7.7 7.4-10 17.3-10.3-2.9a52 52 0 0 0 -2 14.3 52 52 0 0 0 39.4 50.4l2.6-10.4h20l2.6 10.4a52 52 0 0 0 39.4 -50.4 52 52 0 0 0 -2 -14.3l-10.3 3-10-17.3 7.7-7.5a52 52 0 0 0 -37.5 -15.9z"/>
	<g class="scarlet darkened">
		<path transform="matrix(0.4,0,0,0.41,12.8,15.8)" d="m 187,129 -23,3 7,69 9,-16 z M 38,120 c 5.3,14 16.1,28.8 24.7,38.3 L 59.2,130.9 C 53.1,127.7 44.1,124 38,120 Z m 180,0 c -6.1,4 -15.1,7.7 -21.2,10.9 l -3.6,27.5 C 201.9,148.8 212.7,134 218,120 Z M 97.2,180.1 c 21.8,8.8 39.9,8.8 61.7,0 l -3.4,-33.6 c -20.3,4.6 -34.6,4.6 -54.9,0.05 z M 69,129 l 23,3 -7,69 -9,-16 z M 35,111 92,80 c 15,22 57,22 72,0 l 57,31 c -53,17 -133,17 -186,0 z"/>
	</g>
</svg>
