<?xml version="1.0" encoding="UTF-8"?>
<?xml-stylesheet href="common.css" type="text/css"?>
<svg xmlns="http://www.w3.org/2000/svg" width="128" height="128" version="1.1">
	<path class="armor shining" d="m64 15a52 52 0 0 0 -37.3 15.9l7.7 7.4-10 17.3-10.3-2.9a52 52 0 0 0 -2 14.3 52 52 0 0 0 39.4 50.4l2.6-10.4h20l2.6 10.4a52 52 0 0 0 39.4 -50.4 52 52 0 0 0 -2 -14.3l-10.3 3-10-17.3 7.7-7.5a52 52 0 0 0 -37.5 -15.9z"/>
	<g class="armor darkened">
		<path transform="matrix(0.66,0,0,0.66,21.76,28.26)" d="M 23,22 15,41 64,80 113,41 105,22 87,29 85,39 64,50 43,39 41,29 23,22 Z M 32,62 42,94 61,106 60,84 32,62 Z M 96,62 68,84 67,106 86,94 96,62 Z"/>
	</g>
</svg>
