<?xml version="1.0" encoding="UTF-8"?>
<?xml-stylesheet href="common.css" type="text/css"?>
<svg xmlns="http://www.w3.org/2000/svg" width="128" height="128" version="1.1">
	<path class="magentascarlet shining" d="m64 15a52 52 0 0 0 -37.3 15.9l7.7 7.4-10 17.3-10.3-2.9a52 52 0 0 0 -2 14.3 52 52 0 0 0 39.4 50.4l2.6-10.4h20l2.6 10.4a52 52 0 0 0 39.4 -50.4 52 52 0 0 0 -2 -14.3l-10.3 3-10-17.3 7.7-7.5a52 52 0 0 0 -37.5 -15.9z"/>
	<g class="magentascarlet darkened">
		<path transform="matrix(0.39,0,0,0.39,14.08,18)" d="m167 55a34 34 0 0 0 -34 34v34h34a34 34 0 0 0 34 -34 34 34 0 0 0 -34 -34zm-78 0a34 34 0 0 1 34 34v34h-34a34 34 0 0 1 -34 -34 34 34 0 0 1 34 -34zm78 146a34 34 0 0 1 -34 -34v-34h34a34 34 0 0 1 34 34 34 34 0 0 1 -34 34zm-78 0a34 34 0 0 0 34 -34v-34h-34a34 34 0 0 0 -34 34 34 34 0 0 0 34 34z"/>
	</g>
</svg>
