<?xml version="1.0" encoding="UTF-8"?>
<?xml-stylesheet href="common.css" type="text/css"?>
<svg xmlns="http://www.w3.org/2000/svg" width="128" height="128" version="1.1">
	<path class="magentascarlet shining" d="m64 15a52 52 0 0 0 -37.3 15.9l7.7 7.4-10 17.3-10.3-2.9a52 52 0 0 0 -2 14.3 52 52 0 0 0 39.4 50.4l2.6-10.4h20l2.6 10.4a52 52 0 0 0 39.4 -50.4 52 52 0 0 0 -2 -14.3l-10.3 3-10-17.3 7.7-7.5a52 52 0 0 0 -37.5 -15.9z"/>
	<g class="magentascarlet darkened">
		<path transform="matrix(0.41,0,0,0.41,28.74,34)" d="M 0,100 C 0,90.6 5.6,92.4 5.6,85.4 5.6,77.2 1.2,79 1.2,72 c 0,-3.6 6,-6.8 13.2,-6.8 2.2,12.4 4.8,16 12.6,19.8 l 16,22 C 25,100 20,100 0,100 Z m 17.6,38.2 c 0,-5 3.6,-8.4 7.6,-8.4 8.6,0 20.2,-2.8 30.8,-8.8 l 2.8,10 5.6,4.2 C 45,143 46.2,156 37,156 29.2,156 34.8,142 17.6,138.2 Z M 32,82 38.6,72.4 34,35 C 34,17 64,0 86,0 c 22,0 52,17 52,35 l -4.6,37.4 6.6,9.6 -17.4,24 -11,2 -1.6,8.6 -15,8.4 -18,0 -15,-8.4 -1.6,-8.6 -11,-2 z M 48,75.8 C 48,87 50.6,93.2 55.4,93.2 66.6,93.2 79.2,87.8 79.2,77 79.2,70.8 61.4,66 58.6,66 51.2,66 48,69.2 48,75.8 Z m 14,44.4 6,3.4 0,6.8 -4,-3 z m 8,11.2 0,-6.6 6,3 0,6.8 z m 7,-26 4,3 5,-3 5,3 4,-3 -9,-16 z m 1,29.6 0,-7 7,0 0,7 -7,0 z m 9,0 0,-7 7,0 0,7 -7,0 z m 5.8,-58 c 0,10.8 12.6,16.2 23.8,16.2 4.8,0 7.4,-6.2 7.4,-17.4 0,-6.6 -3.2,-9.8 -10.6,-9.8 -2.8,0 -20.6,4.8 -20.6,11 z m 3.2,57.6 0,-6.8 6,-3 0,6.6 z m 8,-4.2 0,-6.8 6,-3.4 -2,7.2 z m 3.6,4.8 5.6,-4.2 2.8,-10 c 10.6,6 22.2,8.8 30.8,8.8 4,0 7.6,3.4 7.6,8.4 -17.2,3.8 -11.6,17.8 -19.4,17.8 -9.2,0 -8,-13 -27.4,-20.8 z M 129,107 145,85 c 7.8,-3.8 10.4,-7.4 12.6,-19.8 7.2,0 13.2,3.2 13.2,6.8 0,7 -4.4,5.2 -4.4,13.4 0,7 5.6,5.2 5.6,14.6 -20,0 -25,0 -43,7 z"/>
	</g>
</svg>
