<?xml version="1.0" encoding="UTF-8"?>
<?xml-stylesheet href="common.css" type="text/css"?>
<svg xmlns="http://www.w3.org/2000/svg" width="128" height="128" version="1.1">
	<g class="shadow blurred">
		<path d="m 30,82 -8,3 -10,11 52,20 52,-20 -10,-11 -8,-3 5,7 -39,11 -39,-11 z"/>
		<path d="m 64,20 c -7,0 -13,2 -18,5 l 3,6 c 3,-1 8,-2 11,-2 l 0,10.6 C 54.9,41 51,44.9 49.6,50 L 39,50 c 0,-3 1,-8 2,-11 l -6,-3 c -3,5 -5,11 -5,18 0,7 2,13 5,18 l 6,-3 C 40,66 39,61 39,58 l 10.6,0 C 51,63.1 54.9,67 60,68.4 L 60,79 c -3,0 -8,-1 -11,-2 l -3,6 c 5,3 11,5 18,5 7,0 13,-2 18,-5 l -3,-6 c -3,1 -8,2 -11,2 L 68,68.4 C 73.1,67 77,63.1 78.4,58 L 89,58 c 0,3 -1,8 -2,11 l 6,3 c 3,-5 5,-11 5,-18 0,-7 -2,-13 -5,-18 l -6,3 c 1,3 2,8 2,11 L 78.4,50 C 77,44.9 73.1,41 68,39.6 L 68,29 c 3,0 8,1 11,2 l 3,-6 C 77,22 71,20 64,20 z"/>
	</g>
</svg>
