<?xml version="1.0" encoding="UTF-8"?>
<?xml-stylesheet href="common.css" type="text/css"?>
<svg xmlns="http://www.w3.org/2000/svg" width="128" height="128" version="1.1">
	<g class="shadow blurred">
		<path d="m 30,82 -8,3 -10,11 52,20 52,-20 -10,-11 -8,-3 5,7 -39,11 -39,-11 z"/>
		<path d="m 64,20 c -5.8,0 -11.2,1.5 -16,4 L 61.4,37.4 C 63.8,36.5 66.3,36 69,36 80.6,36 90,45.4 90,57 90,68.6 80.6,78 69,78 57.4,78 48,68.6 48,57 c 0,-2.7 0.5,-5.2 1.4,-7.6 L 35.5,35.5 C 32,40.8 30,47.2 30,54 30,72.8 45.2,88 64,88 82.8,88 98,72.8 98,54 98,35.2 82.8,20 64,20 z m 6,24 c -7.7,0 -14,6.3 -14,14 0,7.7 6.3,14 14,14 7.7,0 14,-6.3 14,-14 0,-7.7 -6.3,-14 -14,-14 z"/>
	</g>
</svg>
