<?xml version="1.0" encoding="UTF-8"?>
<?xml-stylesheet href="common_pink.css" type="text/css"?>
<svg xmlns="http://www.w3.org/2000/svg" width="128" height="128" version="1.1">
	<g class="teamcolor shining">
		<path d="M 89,14 C 82.8,19.8 75.3,22.2 67,24 L 77,61 57,16 C 40,15 26,20 16,29 l 24,61 c 9,-12 30,-25 37,-25 5,0 2,6 -4,12.1 9,-13.6 -5,-7.1 -10,-1.6 2.1,4.7 7.5,5.8 13.9,4.8 L 87.2,63 l 9.6,0 3.9,6.6 c 3.4,-2.6 6,-5.2 7.3,-7.6 z M 12.5,28 8,30 l 28,80 7.5,-3 z"/>
		<path d="m 90,68 -26,44 2.5,4 51,0 2.5,-4 -26,-44 z"/>
	</g>
	<path class="teamcolor darkened" d="m 87,82 0,20 10,0 0,-20 z m 0,24 0,6 10,0 0,-6 z"/>
</svg>
