<?xml version="1.0" encoding="UTF-8"?>
<?xml-stylesheet href="common_pink.css" type="text/css"?>
<svg xmlns="http://www.w3.org/2000/svg" width="128" height="128" version="1.1">
	<g class="teamcolor shining">
		<path d="m 87.3,33.5 c -4.5,4.2 -9.9,5.9 -15.8,7.2 L 78.7,67.3 64.3,34.9 C 52,34.2 42.3,37.6 35.1,44 l 17.3,43.9 c 6.5,-8.6 21.2,-17.8 26.3,-17.8 3.6,0 1.4,4.3 -2.9,8.7 6.5,-9.8 -3.6,-5.1 -7.2,-1.2 4.3,9.7 28.1,-1.8 32.4,-9.7 z M 32.2,43.6 29,45 l 19.2,55 5.4,-2.2 z"/>
		<path d="m 35.1,14 -7.4,12.9 6.9,4 5.1,-8.9 48.5,0 5.1,8.9 6.9,-4 L 92.9,14 35.1,14 z M 13.7,51.1 6.3,64 35.1,114 50,114 l 0,-8 -10.3,0 -24.3,-42 5.1,-8.9 -6.9,-4 z m 100.6,0 -6.9,4 L 112.5,64 88.3,106 78,106 l 0,8 14.9,0 28.9,-50 -7.4,-12.9 z"/>
	</g>
</svg>
