<?xml version="1.0" encoding="UTF-8"?>
<?xml-stylesheet href="common.css" type="text/css"?>
<svg xmlns="http://www.w3.org/2000/svg" width="128" height="128" version="1.1">
	<path class="yellow shining" d="m 55,16 -47,81 9,16 94,0 9,-16 -47,-81 -9,0 z"/>
	<g class="yellow darkened">
		<path transform="matrix(0.56,0,0,0.56,-7,-7)" d="m 77,106 0,5 12,5 7.5,9.5 7,-7 L 93,109 Z m 55,4 -32,32 0,51 c 0,3.5 2.5,6 6,6 l 64,0 c 3.5,0 6,-2.5 6,-6 l 0,-77 c 0,-3.5 -2.50032,-6.04729 -6,-6 z m 4,4 23.5,0 0,8 -31.5,2 0,-2 z m -28,4 -12,12 6,6 12,-12 z m 8,18 10,9 28,0 10,-9 2,2 -9,10 0,33 9,10 -2,2 -10,-9 -28,0 -10,9 -2,-2 9,-10 0,-33 -9,-10 z m 11,13 0,31 26,0 0,-31 z"/>
	</g>
</svg>
