<?xml version="1.0" encoding="UTF-8"?>
<?xml-stylesheet href="common.css" type="text/css"?>
<svg xmlns="http://www.w3.org/2000/svg" width="128" height="128" version="1.1">
	<g class="neutral shining">
		<path d="m 20.8,21.5 c -1.7,0 -3,0.5 -3.9,1.4 -4.4,4.3 2,18.2 14.9,34.4 l 2.4,-6 c -5.8,-8.3 -8.4,-14.7 -6.4,-16.7 3.8,-3.8 21.1,7.5 38.7,25.2 1.4,1.3 2.7,2.7 3.9,4 -2.5,2.9 -5.2,5.8 -8.1,8.7 -17.7,17.6 -35,28.9 -38.7,25.2 -2.5,-2.5 1.8,-11.1 10.2,-21.8 l -2,-5.2 c -12.9,16.1 -19.3,30.1 -14.9,34.4 5.9,5.9 29,-7.8 51.7,-30.5 2.1,-2.1 4.1,-4.1 6,-6.2 2,2.2 3.8,4.4 5.5,6.5 L 83.2,69.6 C 81.7,67.8 80.2,65.9 78.5,64 95.1,45.1 104.1,27.8 99.1,22.9 98.2,22 96.9,21.5 95.2,21.5 c -6.4,0 -17.8,6.1 -30.5,16.3 l 6.1,2.4 c 8.2,-5.8 14.6,-8.4 16.6,-6.4 2.8,2.8 -2.8,13.1 -13.1,25.5 -1.8,-2 -3.7,-3.9 -5.7,-5.9 C 49.5,34.2 30,21.5 20.8,21.5 z M 58.6,40 c 5.6,4.7 11.3,10.3 15.6,14.8 l 3.5,-4.5 C 73.4,44.2 66.5,40.2 58.6,40 z M 44.2,44.4 C 38,48.7 34,55.9 34,64 c 0,8.4 4.3,15.8 10.9,20.1 6.7,-5.1 16.5,-14.8 21.5,-20.2 -4.1,-4.2 -14.7,-14.4 -22.2,-19.5 z M 74.6,72.8 c -4.7,5.1 -10,10 -15.9,15.2 8.1,-0.2 15.2,-4.5 19.4,-10.9 z"/>
		<path d="m 90,68 -26,44 2.5,4 51,0 2.5,-4 -26,-44 z"/>
	</g>
	<path class="neutral darkened" d="m 87,82 0,20 10,0 0,-20 z m 0,24 0,6 10,0 0,-6 z"/>
</svg>
