<?xml version="1.0" encoding="UTF-8"?>
<?xml-stylesheet href="common.css" type="text/css"?>
<svg xmlns="http://www.w3.org/2000/svg" width="128" height="128" version="1.1">
	<path class="shadow blurred" d="m 29.5,16 c -4,0 -6.8,3 -7,7 l -2,51 c -0.2,4 3,7 7,7 l 73,0 c 4,0 7.2,-3 7,-7 l -2,-51 c -0.2,-4 -3,-7 -7,-7 l -69,0 z M 20,22 12.5,41.5 8,103 c 0,5 4,9 9,9 l 94,0 c 5,0 9,-4 9,-9 L 115.5,41.5 108,22 l 2.5,58 6,27.5 -7.5,-20 C 108.1,85 106.5,84 104,84 l -80,0 c -2.5,0 -4.1,1 -5,3.5 l -7.5,20 6,-27.5 2.5,-58 z m 17,3 23,0 c 6,0 12,0 12,7 l 0,3 c 0,7 -6,7 -12,7 l -15,0 c -2,0 -3,0 -3,2 l 0,9 30,0 0,5 -38,0 0,-14 c 0,-7 6,-7 12,-7 l 15,0 c 2,0 3,0 3,-2 l 0,-3 c 0,-2 -1,-2 -3,-2 l -24,0 0,-5 z"/>
</svg>
