<?xml version="1.0" encoding="UTF-8"?>
<?xml-stylesheet href="common_neutral.css" type="text/css"?>
<svg xmlns="http://www.w3.org/2000/svg" width="128" height="128" version="1.1">
	<g class="teamcolor shining">
		<path d="M 70,52 46,28 94,28 z"/>
		<g transform="matrix(0.9,-0.3,-0.3,-0.9,23,164)">
			<path d="M 103.5,21 54.6,56.6 C 51.1,54.9 47.1,54 43,54 28.1,54 16,66.1 16,81 c 0,14.9 12.1,27 27,27 14.9,0 27,-12.1 27,-27 0,-0.8 0,-1.5 -0.1,-2.3 L 76.5,74 74,69.5 79,66 l -1,-6 4,-3 8,3.5 3,-2.5 -1,-6.5 4,-3 4,2 2.5,-1.5 -0.5,-4.5 3,-2.5 6,3 3,-2 L 112,26 67,58.5 65,55 110.5,22 z M 43,58 C 55.7,58 66,68.3 66,81 66,93.7 55.7,104 43,104 30.3,104 20,93.7 20,81 20,68.3 30.3,58 43,58 z m -0.5,3 C 31.2,61 22,70.2 22,81.5 22,92.8 31.2,102 42.5,102 53.8,102 63,92.8 63,81.5 63,70.2 53.8,61 42.5,61 z M 37,77 c 4.4,0 8,3.6 8,8 0,4.4 -3.6,8 -8,8 -4.4,0 -8,-3.6 -8,-8 0,-4.4 3.6,-8 8,-8 z"/>
		</g>
	</g>
</svg>
