<?xml version="1.0" encoding="UTF-8"?>
<?xml-stylesheet href="common_pink.css" type="text/css"?>
<svg xmlns="http://www.w3.org/2000/svg" width="128" height="128" version="1.1">
	<g class="teamcolor shining">
		<path d="M 99.5,21 50.6,56.6 C 47.1,54.9 43.1,54 39,54 24.1,54 12,66.1 12,81 c 0,14.9 12.1,27 27,27 14.9,0 27,-12.1 27,-27 0,-0.8 0,-1.5 -0.1,-2.3 L 72.5,74 70,69.5 75,66 l -1,-6 4,-3 8,3.5 3,-2.5 -1,-6.5 4,-3 4,2 2.5,-1.5 -0.5,-4.5 3,-2.5 6,3 3,-2 L 108,26 63,58.5 61,55 106.5,22 z M 39,58 C 51.7,58 62,68.3 62,81 62,93.7 51.7,104 39,104 26.3,104 16,93.7 16,81 16,68.3 26.3,58 39,58 z m -0.5,3 C 27.2,61 18,70.2 18,81.5 18,92.8 27.2,102 38.5,102 49.8,102 59,92.8 59,81.5 59,70.2 49.8,61 38.5,61 z M 33,77 c 4.4,0 8,3.6 8,8 0,4.4 -3.6,8 -8,8 -4.4,0 -8,-3.6 -8,-8 0,-4.4 3.6,-8 8,-8 z"/>
		<path d="m 90,68 -26,44 2.5,4 51,0 2.5,-4 -26,-44 z"/>
	</g>
	<path class="teamcolor darkened" d="m 87,82 0,20 10,0 0,-20 z m 0,24 0,6 10,0 0,-6 z"/>
</svg>
