<?xml version="1.0" encoding="UTF-8"?>
<?xml-stylesheet href="common.css" type="text/css"?>
<svg xmlns="http://www.w3.org/2000/svg" width="128" height="128" version="1.1">
	<g class="neutral shining">
		<path d="M 62.5,20 C 51.9,20.4 42.3,24.5 34.9,31 L 48.5,31 l 14,-7.2 z m 3,0 0,3.8 14,7.2 13.6,0 C 85.7,24.5 76.1,20.4 65.5,20 z M 31.8,34 c -4.5,4.8 -7.9,10.6 -9.9,17.1 l 7.5,13 L 42.1,62 51.9,45 47.7,34 z m 48.5,0 -4.2,11 10.4,18 6.3,0 3.2,5.4 10,-17.3 C 104.1,44.6 100.7,38.8 96.2,34 z m 17.5,37.4 6.3,10.6 C 106.6,76.5 108,70.4 108,64 c 0,-3 -0.3,-5.9 -0.9,-8.7 z M 55.4,46.8 l -10,17.4 9.2,15.8 18.5,0 9.4,-15.9 -9.9,-17.3 z m -34.5,8.5 C 20.3,58.1 20,61 20,64 c 0,7.5 1.9,14.5 5.2,20.7 L 29,82.4 28.3,68.3 z M 53.3,84 l -7.2,8.9 8,14 c 0.9,0.2 1.9,0.4 2.8,0.5 L 70.8,84 z M 31,84.8 l -4.3,2.5 c 5.3,8.5 13.5,15.1 23.3,18.4 l -8.1,-14 z"/>
		<path d="m 86,68 -26,44 2.5,4 51,0 2.5,-4 -26,-44 z"/>
	</g>
	<path class="neutral darkened" d="m 83,82 0,20 10,0 0,-20 z m 0,24 0,6 10,0 0,-6 z"/>
</svg>
