<?xml version="1.0" encoding="UTF-8"?>
<?xml-stylesheet href="common_yellow.css" type="text/css"?>
<svg xmlns="http://www.w3.org/2000/svg" width="128" height="128" version="1.1">
	<g class="teamcolor shining">
		<path d="m 39.1,99.7 -3.6,3.5 -4.1,1.7 4.6,1.1 5.9,7.9 -4.1,-9.1 z m 7,-28.8 c 1.2,0.7 1.8,1.4 1.6,2.8 l -3,22.2 9.7,13.7 L 34,120 27.5,107.3 16.1,98.8 c -1.4,-1.1 -2.1,-2 -3.7,-5.2 l 10.3,3.5 4.2,-5.8 6.4,8.4 C 30.8,90.2 32.1,83 37.1,77.1 l -3.5,-2.6 c -5.3,7.6 -11.4,2.3 -10.5,1.2 l 8.6,-11.2 c 0.7,-0.9 1.3,-1.2 2.4,-0.6 z M 22.9,89.7 C 23.7,90 22.1,95 21.4,94.8 L 9.3,91.6 C 8.2,91.3 9.7,84.7 10.6,85.1 z M 12.8,75.5 25.7,82.1 c 0.7,0.3 -1.8,6.7 -2.4,6.4 l -13.2,-5 C 8.7,83 11.8,75 12.8,75.5 z M 24.9,71 22.2,74.8 c -0.7,1 -0.3,2.5 2.3,5.2 L 12.9,73.9 c -1.3,-0.7 3.3,-8.3 4.4,-7.6 z m -1.6,-12.1 7.2,4.9 -4.8,6.2 -7.2,-4.5 c -1.2,-0.7 3.6,-7.3 4.8,-6.6 z"/>
		<path d="M 120,51.7 C 113.2,50.6 107.9,47 102.6,42.6 L 84,67.5 102.7,32.3 C 94.8,20.9 84.7,14.5 73.9,12.6 l -26.9,45.8 c 12.2,-0.3 31,6.6 34.5,11.1 2.5,3.2 -2.8,4.3 -9.7,3.5 13.2,-1.1 2,-6.7 -4,-7.2 -5.6,10.6 21.1,23.6 31.1,22 z M 72.3,9.9 68.8,8 l -34.5,53.6 5.7,3.3 z"/>
	</g>
</svg>
