<?xml version="1.0" encoding="UTF-8"?>
<?xml-stylesheet href="common.css" type="text/css"?>
<svg xmlns="http://www.w3.org/2000/svg" width="128" height="128" version="1.1">
	<path class="orange shining" d="m 24,78 c 0,-9.1 2.5,-16.5 6.4,-22.2 0,11.2 2.7,15.1 8.6,15.1 3.9,0 8,-3 8,-8 0,-4.6 -3.1,-12.8 -3.1,-21.7 0,-8.9 3,-18.3 15,-25.4 -2.7,7.1 -3.8,13.2 -3.8,18.1 0,13 7.9,19 14.9,19 5.7,0 11.6,-3.7 11.6,-14.4 3.8,4.2 5.5,9 5.5,13.8 0,7.6 -4.2,14.4 -4.2,20.6 0,5 4.1,8 8,8 7,0 9.1,-6.3 9.1,-16.6 2.1,3.6 3.9,10.6 3.9,16.6 C 104,99 87.1,112 68.1,112 84.1,106 87.1,98 87.1,89 c -3.9,7 -8,8 -10,8 -12.1,0 1,-23 -20.1,-39 3.4,7.4 4.8,13.8 4.8,19 0,11.1 -6,17.1 -11.8,17.1 -4.9,0 -9.8,-3.9 -11.8,-12.3 C 38.2,93.4 41.6,104.5 57,112 33,108.1 24,93 24,78 z"/>
</svg>
