<?xml version="1.0" encoding="UTF-8"?>
<?xml-stylesheet href="common.css" type="text/css"?>
<svg xmlns="http://www.w3.org/2000/svg" width="128" height="128" version="1.1">
	<path class="neutral shining" d="m 34,24 c -4,0 -6.8,3 -7,7 l -2,44 c -0.2,4 3,7 7,7 L 96,82 c 4,0 7.2,-3 7,-7 l -2,-44 c -0.2,-4 -3,-7 -7,-7 z m -9.5,6 -6.5,17 -4,54 c 0,5 4,9 9,9 l 82,0 c 5,0 9,-4 9,-9 L 110,47 103.5,30 106,81 110.5,105.5 104.5,88.5 c -1,-2.5 -2.5,-3.5 -5,-3.5 l -71,0 c -2.5,-0 -4,1 -5,3.5 l -6,17 4.5,-24.5 z"/>
	<path class="neutral darkened" d="m 64,25.8 c -7.4,0 -19,5.3 -18.8,11.3 l 0.4,9 8.1,-10 -9.7,17.2 6.3,7.8 c 4.2,0 4.7,0.3 4.7,3.5 4.1,2.8 4.1,2.8 8.9,2.8 4.8,0 4.8,-0 8.9,-2.8 0,-3.2 0.5,-3.5 4.7,-3.5 l 6.3,-7.8 -9.7,-17.2 8.1,10 0.4,-9 C 83,31.2 71.4,25.8 64,25.8 z M 37.4,47.6 c -2.7,0 -4.9,1.1 -4.9,2.3 0,2.3 1.6,1.7 1.6,4.5 0,2.3 -2.1,1.7 -2.1,4.9 7.4,0 9.3,0 16,2.3 l -6,-7.3 c -2.9,-1.3 -3.9,-2.5 -4.7,-6.6 z m 53.3,0 c -0.8,4.1 -1.8,5.3 -4.7,6.6 L 80,61.5 c 6.7,-2.3 8.6,-2.3 16,-2.3 0,-3.1 -2.1,-2.5 -2.1,-4.9 0,-2.7 1.6,-2.1 1.6,-4.5 0,-1.2 -2.2,-2.3 -4.9,-2.3 z m -36.8,0.3 c 1,0 7.7,1.6 7.7,3.7 0,3.6 -4.7,5.4 -8.8,5.4 -1.8,0 -2.8,-2.1 -2.8,-5.8 0,-2.2 1.2,-3.3 3.9,-3.3 z m 20.4,0 c 2.8,0 3.9,1.1 3.9,3.3 0,3.7 -1,5.8 -2.8,5.8 -4.2,0 -8.8,-1.8 -8.8,-5.4 0,-2.1 6.6,-3.7 7.7,-3.7 z M 64,55.6 67.3,61 65.9,62 64,61 62.1,62 60.7,61 64,55.6 z m -8.9,10.3 0.8,2.4 1.5,1 0,-1.9 -2.2,-1.5 z m 17.9,0 -2.2,1.5 0,1.9 1.5,-1 0.8,-2.4 z m -20.1,0.3 c -3.9,2 -8.6,2.9 -11.5,2.9 -1.5,0 -2.8,1.1 -2.8,2.8 6.4,1.3 4.3,5.9 7.2,5.9 3.4,0 3,-4.3 10.2,-6.9 L 53.9,69.5 52.8,66.2 z m 22.3,0 -1,3.3 -2.1,1.4 c 7.2,2.6 6.8,6.9 10.2,6.9 2.9,0 0.8,-4.7 7.2,-5.9 0,-1.7 -1.4,-2.8 -2.8,-2.8 -2.8,0 -7.5,-0.9 -11.5,-2.9 z m -17.1,1.6 0,2.2 2.2,0.7 0,-2.3 -2.2,-0.7 z m 11.9,0 -2.2,0.7 0,2.3 2.2,-0.7 0,-2.2 z m -8.9,0.7 0,2.3 2.6,0 0,-2.3 -2.6,0 z m 3.4,0 0,2.3 2.6,0 0,-2.3 -2.6,0 z"/>
</svg>
