<?xml version="1.0" encoding="UTF-8"?>
<?xml-stylesheet href="common.css" type="text/css"?>
<svg xmlns="http://www.w3.org/2000/svg" width="128" height="128" version="1.1">
	<path class="green shining" d="M 64,28 C 51.1,28 39.5,42.4 29.7,59.8 L 12,91.4 12,89 l -4,0 0,11 4,0 0,-2.2 20.6,-36 24.7,-15.3 c 4.5,-2.8 4.8,-3.3 6.7,-3.3 1.9,0 2.2,0.6 6.7,3.3 l 24.7,15.3 20.6,36 0,2.2 4,0 0,-11.1 -4,0 0,2.5 L 98.2,59.8 C 88.5,42.4 76.9,28 64,28 z M 49.8,54.6 35.4,63.4 20.3,98 107.7,98 92.6,63.4 78.3,54.6 81.2,82.7 c 0.2,2.4 -1.7,4.4 -3.8,4.4 l -26.6,0 c -2.1,0 -4,-2 -3.8,-4.4 z"/>
</svg>
