<?xml version="1.0" encoding="UTF-8"?>
<?xml-stylesheet href="common.css" type="text/css"?>
<svg xmlns="http://www.w3.org/2000/svg" width="128" height="128" version="1.1">
	<path class="blue shining" d="m 13,70.8 c 0,-24.2 19.2,-47.4 44.9,-47.4 20.5,0 37,16.6 37,35.7 0,12.8 -9.8,27.1 -24.9,27.1 -13.4,0 -20.6,-8.6 -20.6,-19.1 -2.2,0 -3.6,3.7 -3.6,7.4 0,10.2 10.7,22.2 26.1,22.2 19.7,0 38.9,-18.2 38.9,-43.7 0,-16.4 -8,-28.9 -15.2,-36.9 7.9,6.8 19.4,20.2 19.4,41.2 0,24.2 -19.2,47.4 -44.9,47.4 -20.5,0 -37,-16.6 -37,-35.7 0,-12.8 9.8,-27.1 24.9,-27.1 13.4,0 20.6,8.6 20.6,19.1 2.2,0 3.6,-3.7 3.6,-7.4 C 82.2,43.4 71.5,31.4 56.1,31.4 36.4,31.4 17.2,49.6 17.2,75.1 17.3,91.4 25.3,104 32.4,112 24.5,105.2 13,91.8 13,70.8 z"/>
</svg>
