<?xml version="1.0" encoding="UTF-8"?>
<?xml-stylesheet href="common.css" type="text/css"?>
<svg xmlns="http://www.w3.org/2000/svg" width="128" height="128" version="1.1">
	<path class="cyan shining" d="m 106.1,9.8 -8.8,1.3 2.7,19 8.8,-1.2 -2.7,-19.1 z m 3.1,22 -8.8,1.3 4.3,30.5 c 0.5,3.8 0.3,7.7 -1.1,11.2 L 94.7,97 c -0.8,2.2 -2.6,5.1 -5.5,5.5 -2.1,0.3 -4.3,0.5 -7.3,1 2.7,-3.5 3.8,-8.2 2.6,-12.8 l -4.3,1.1 0.5,1.9 -3.2,2.4 1.2,4.3 c -1.4,2 -3.4,3.4 -5.8,4.1 -2.5,0.7 -5,0.3 -7.1,-0.7 l -1.1,-4.3 -4,-0.5 -0.5,-1.8 -4.3,1.1 c 1.4,5.3 5.5,9.1 10.4,10.5 1.8,5.8 7.3,5.6 25.7,3 4.9,-0.8 8,-3.4 11.1,-11.2 L 113,75.3 c 1.3,-3.2 1.3,-6.9 0.6,-12 L 109.2,31.8 z M 71.9,40 29.6,51.1 l -0.4,3.3 -11,6.3 C 15,62.6 12.8,65 14.3,70.5 l -2.4,1.9 3.4,13.1 3,0.8 c 1.2,4.3 5.8,6.6 8.4,6.7 l 11.2,0.3 c 4.7,0.1 9.3,-0.2 10.3,-3.7 1.5,-5.5 2.5,-11.2 3.4,-14.5 0.8,-2.9 1.3,-8.2 4.5,-9 3.2,-0.8 6.2,3.6 8.3,5.7 2.3,2.4 6,6.9 10,11 2.6,2.5 6.7,0.5 10.8,-1.9 l 9.7,-5.7 c 2.2,-1.3 5.1,-5.6 3.9,-9.9 l 2.3,-2.2 -3.4,-13 -2.9,-0.5 C 93.3,44 90.3,43 86.5,42.9 L 73.9,42.8 71.9,40 z m 13.6,7.6 c 3.3,-0.1 5.3,3.2 5.9,5.4 l 2.9,10.9 c 0.6,2.4 -0.8,6.3 -2.5,7.3 l -8.5,5.3 C 79.5,78.9 76.5,78.1 75,76.4 L 60.3,59.8 c -2.5,-2.7 -3.8,-7 1.1,-8.3 1.7,-0.5 20.6,-3.4 23.4,-3.9 0.3,0 0.5,0 0.7,0 z m -39.6,8.1 c 3.5,0 4.2,3.8 3.5,7 l -4.8,21.6 c -0.5,2.2 -2.7,4.4 -7.2,4.2 L 27.4,88 c -2,-0.1 -5.1,-2.8 -5.7,-5.2 L 18.9,71.9 C 18.2,69.5 18.4,65.3 22,64 c 2.6,-1 20.5,-7.6 22.3,-8.1 0.6,-0.1 1.1,-0.2 1.6,-0.2 z m 11,13.4 c -1.2,0.3 -3,8.5 -5.3,19.5 L 70.9,83.5 C 63.6,75.1 58.1,68.8 56.9,69.1 z"/>
</svg>
