<?xml version="1.0" encoding="UTF-8"?>
<?xml-stylesheet href="common.css" type="text/css"?>
<svg xmlns="http://www.w3.org/2000/svg" width="128" height="128" version="1.1">
	<path class="neutral shining" d="M 64,18 C 52.4,18 34.3,27.3 34.7,37.8 L 35.3,53.4 48,36 32.9,66.1 42.7,79.6 c 6.5,0 7.3,0.6 7.3,6.2 6.4,4.9 6.4,4.9 14,4.9 7.6,0 7.6,0 14,-4.9 0,-5.6 0.8,-6.2 7.3,-6.2 L 95.1,66.1 80,36 92.7,53.4 93.3,37.8 C 93.7,27.3 75.6,18 64,18 z M 22.4,55.9 c -4.2,0 -7.7,1.9 -7.7,4 0,4.1 2.6,3 2.6,7.8 0,4.1 -3.3,3 -3.3,8.5 11.6,0 14.5,0 25,4.1 L 29.7,67.5 C 25.2,65.3 23.7,63.2 22.4,56 z m 83.3,0 c -1.3,7.2 -2.8,9.3 -7.3,11.5 L 89,80.2 c 10.5,-4.1 13.4,-4.1 25,-4.1 0,-5.5 -3.3,-4.4 -3.3,-8.5 0,-4.8 2.6,-3.7 2.6,-7.8 0,-2.1 -3.5,-4 -7.7,-4 z m -57.6,0.5 c 1.6,0 12,2.8 12,6.4 0,6.3 -7.3,9.4 -13.8,9.4 -2.8,0 -4.3,-3.6 -4.3,-10.1 0,-3.8 1.9,-5.7 6.2,-5.7 z m 31.9,0 c 4.3,0 6.2,1.9 6.2,5.7 0,6.5 -1.5,10.1 -4.3,10.1 -6.5,0 -13.8,-3.1 -13.8,-9.4 0,-3.6 10.3,-6.4 12,-6.4 z M 64,70 69.2,79.3 66.9,81.1 64,79.3 61.1,81.1 58.8,79.3 64,70 z m -14,17.9 1.2,4.2 2.3,1.8 0,-3.4 -3.5,-2.6 z m 27.9,0 -3.5,2.6 0,3.4 2.3,-1.8 1.2,-4.2 z m -31.4,0.5 c -6.2,3.5 -13.5,5.1 -17.9,5.1 -2.3,0 -4.4,2 -4.4,4.9 10,2.2 6.7,10.3 11.3,10.3 5.3,0 4.7,-7.6 15.9,-12.1 l -3.3,-2.4 -1.6,-5.8 z m 34.9,0 -1.6,5.8 -3.3,2.4 c 11.3,4.5 10.6,12.1 15.9,12.1 4.5,0 1.3,-8.1 11.3,-10.3 0,-2.9 -2.1,-4.9 -4.4,-4.9 -4.4,0 -11.7,-1.6 -17.9,-5.1 z m -26.8,2.8 0,3.8 3.5,1.3 0,-3.9 -3.5,-1.2 z m 18.6,0 -3.5,1.2 0,3.9 3.5,-1.3 0,-3.8 z m -14,1.3 0,4.1 4.1,0 0,-4.1 -4.1,0 z m 5.3,0 0,4.1 4.1,0 0,-4.1 -4.1,0 z"/>
</svg>
