<?xml version="1.0" encoding="UTF-8"?>
<?xml-stylesheet href="common.css" type="text/css"?>
<svg xmlns="http://www.w3.org/2000/svg" width="128" height="128" version="1.1">
	<g class="neutral shining">
		<path d="m 30,115.2 c -1.6,0 -2.7,-0.4 -3.6,-1.1 -4,-3.4 1.8,-14.6 13.6,-27.5 l 2.2,4.8 c -5.3,6.6 -7.7,11.8 -5.9,13.4 3.5,3 19.3,-6 35.4,-20.2 1.3,-1 2.5,-2.2 3.6,-3.2 C 73.1,79.1 70.6,76.8 67.9,74.5 51.7,60.4 35.9,51.3 32.5,54.3 c -2.3,2 1.6,8.9 9.3,17.4 l -1.8,4.2 C 28.2,63 22.4,51.8 26.4,48.4 c 5.4,-4.7 26.5,6.2 47.3,24.4 1.9,1.7 3.8,3.3 5.5,5 11.7,-11.4 18.5,-21.5 15.7,-24 -2.3,-2 -10.2,1.4 -20,8.1 l -4.8,-1.5 c 14.7,-10.3 27.6,-15.4 31.5,-11.9 4.6,3.9 -3.7,17.8 -18.9,32.9 15.2,15.1 23.4,29 18.9,32.9 -0.8,0.7 -2,1.1 -3.6,1.1 -5.9,0 -16.3,-4.9 -27.9,-13 l 5.6,-1.9 c 7.5,4.6 13.4,6.7 15.2,5.1 2.6,-2.2 -2.6,-10.5 -12,-20.4 -1.6,1.6 -3.4,3.1 -5.2,4.7 C 56.2,105.1 38.4,115.2 30,115.2 z m 34.6,-14.8 c 5.1,-3.8 10.3,-8.2 14.3,-11.8 l 3.2,3.6 c -3.9,4.9 -10.3,8.1 -17.5,8.2 z M 51.4,96.9 c -5.7,-3.4 -9.3,-9.2 -9.3,-15.7 0,-6.7 3.9,-12.6 10,-16.1 6.1,4.1 15.1,11.8 19.7,16.2 -3.8,3.4 -13.5,11.5 -20.3,15.6 z M 79.2,74.2 c -4.3,-4.1 -9.2,-8 -14.6,-12.2 7.4,0.2 13.9,3.6 17.8,8.7 z"/>
		<path d="M 64,44 40,20 88,20 z"/>
	</g>
</svg>
