<?xml version="1.0" encoding="UTF-8"?>
<?xml-stylesheet href="common_neutral.css" type="text/css"?>
<svg xmlns="http://www.w3.org/2000/svg" width="128" height="128" version="1.1">
	<path class="teamcolor shining" d="M 36.7,57.3 22.7,79 c -2.5,3.8 -1.8,5.9 0.5,8.1 l 13,12.5 1.7,-36.3 c 0.2,-3.7 7.5,-3.5 14.7,-2.7 l -9.3,-5.3 c -2.7,-1.5 -5,-0.6 -6.6,1.9 z M 65,16 c -5,0.1 -8.5,3 -8.5,9 L 56,93 53.5,93 54,63.6 c 0,-1.8 -14,-2.1 -14.1,-0.2 l -1.3,30.4 c -0.4,9.8 2.2,17.2 4.1,17.3 l 6.9,0.5 c 2.3,0.2 2.8,-1.4 5.5,-1.3 2.4,0.1 4.3,5.6 6.8,5.6 l 7.3,0 c 2.7,0 3.8,-4.2 6.2,-4.3 2.5,-0.2 3.3,1.7 5.4,1.6 l 5.5,-0.4 c 3.1,-0.2 4.5,-5.3 7,-5.8 2.3,-0.4 3.2,1.3 5.4,0.4 l 4.9,-1.9 c 1.8,-0.7 3,-6.7 2.1,-13.3 L 102.1,68.1 C 101.9,66.6 91.9,66.8 91.9,68.2 L 93,93 90.5,93 89.6,63.5 C 89.5,61.9 76,61.8 76,63.4 L 76.5,93 74,93 73.5,25 C 73.5,19 70,16 65,16 z"/>
	<path class="teamcolor darkened" d="m 65,19.5 c 2.5,0 5,0.5 6,1.5 l 0,8 c 0,5 -12,5 -12,0 l 0,-8 c 1,-1 3.5,-1.5 6,-1.5 z m -3,18.5 6,0 4,2 -14,0 z m 11,20 -7,3 7,1 -10,2 -5,-5 z"/>
</svg>
