<?xml version="1.0" encoding="UTF-8"?>
<?xml-stylesheet href="common.css" type="text/css"?>
<svg xmlns="http://www.w3.org/2000/svg" width="128" height="128" version="1.1">
	<path class="red shining" d="m 14,48.1 c 0,-3 2.7,-4 6.1,-4 4,0 9.2,3.4 9.2,6 0,1.7 -2.3,3 -6.7,3 C 17.1,53.2 14,51 14,48.1 z m 9,28.3 c 0,-7.4 21.4,-0.1 21.4,-12.2 0,-5.1 -9,-6.6 -9,-10.2 0,-4.6 17.1,0.5 17.1,-7.6 0,-5.1 -8.3,-5.9 -8.3,-12.7 0,-1.7 1,-3.3 2.8,-3.3 8.1,0 3.6,16 15.8,16 4.6,0 7,-3.4 7,-8.6 0,-6.1 -2.4,-8.2 -2.4,-15.2 0,-2.8 1.7,-5.8 5.2,-5.8 3.3,0 5.4,3 5.4,6.1 0,8.1 -3.6,8.3 -3.6,15.5 0,10.8 4.8,13.5 13.7,13.5 5.1,0 7.6,-9.6 12.9,-9.6 4.2,0 5.9,2.7 5.9,5.4 0,6.6 -18,2 -18,17.2 0,18.1 25.1,7.6 25.1,19.2 0,2.5 -1.3,4.7 -4.2,4.7 -8.8,0 -7.7,-9.3 -25.9,-9.3 -6.6,0 -7.8,5.9 -7.8,10.8 0,6.6 4.6,7.7 4.6,11.3 0,3 -2.4,4.5 -5.2,4.5 -7.8,0 0.7,-23.3 -14.7,-23.3 -15.8,0 -9.6,27.8 -24,27.8 -3,0 -5.1,-1.8 -5.1,-5.1 0,-12.3 17.1,-11.9 17.1,-24.7 0,-4.7 -3.7,-6.1 -6.9,-6.1 -6.1,0 -10.6,4.1 -14.6,4.1 C 24.8,78.8 23,78 23,76 z m 65.7,29.2 c 0,-3 2.4,-5.4 5.4,-5.4 3,0 5.4,2.4 5.4,5.4 0,3 -2.4,5.4 -5.4,5.4 -3,0 -5.4,-2.4 -5.4,-5.4 z"/>
</svg>
