<?xml version="1.0" encoding="UTF-8"?>
<?xml-stylesheet href="common.css" type="text/css"?>
<svg xmlns="http://www.w3.org/2000/svg" width="128" height="128" version="1.1">
	<path class="yellow shining" d="m 17.4,8 32.8,53.9 c 3.3,5.4 -0.4,10 -6.7,7.1 C 33.4,64.3 24.4,58.2 16,51.3 51.3,100.2 71.1,112 94,112 109,112 112,91.9 112,84 112,71.8 100.7,52.6 73.4,34.5 l 11.9,20.3 c 3.1,5.3 -0.9,7.1 -5.5,3.4 z"/>
	<path class="yellow darkened" d="m 92.7,64.3 c 7.1,5.5 14.3,17.1 14.3,19.5 0,5.7 -2,23.2 -13,23.2 -7.1,0 -19.8,-1.8 -25.5,-8.5 L 56.3,84.1 62.2,67.1 92.7,78.6 80.3,70 z"/>
</svg>
