<?xml version="1.0" encoding="UTF-8"?>
<?xml-stylesheet href="common.css" type="text/css"?>
<svg xmlns="http://www.w3.org/2000/svg" width="128" height="128" version="1.1">
	<path class="blue shining" d="m 39.9,12 c -9.9,0 -18,23.3 -18,52 0,28.7 8.1,52 18,52 7.5,0 14,-13.2 16.7,-32 l -2.8,0 c -2.4,11.9 -6.9,20 -12,20 -7.7,0 -13.9,-17.9 -13.9,-40 0,-22.1 6.2,-40 13.9,-40 5.1,0 9.6,8.1 12,20 l 2.8,0 C 53.9,25.2 47.4,12 39.9,12 z m 34.8,12.7 c -5.8,-0.1 -8.5,6.4 -8.4,11.4 4.1,9.7 15.8,24.9 22.2,27.3 L 98.1,45.5 C 93.8,33.6 86.9,27.6 74.7,24.7 z m -6.5,1 c -2.6,0.6 -6.2,4.8 -7.8,11.5 1.3,7.6 4,10.6 10.6,20.2 2.3,3.3 -1.8,6.2 -5.7,5.9 L 36,63 c -0.3,6.9 0.6,12 2.1,16.6 32.3,-8.4 50.9,1.6 60.2,0.8 L 87.4,65.6 C 81.4,63 68,47.5 64.1,36.4 c 0,-3.7 1.5,-7.9 4.1,-10.7 z M 43.7,50.3 c -3.9,1.2 -6.4,5.1 -7.1,9 l 29.1,2.4 c 2.1,0.2 5.2,-1.4 4,-3.3 L 65.2,51.7 C 61.7,53.8 43.7,50.3 43.7,50.3 z m 56.8,4.2 -7.8,14 7.3,10.4 c 4.9,7.2 15.6,-9.8 3.1,-23.4 l -2.6,-1 z"/>
</svg>
