<?xml version="1.0" encoding="UTF-8"?>
<?xml-stylesheet href="common.css" type="text/css"?>
<svg xmlns="http://www.w3.org/2000/svg" width="128" height="128" version="1.1">
	<path class="green shining" d="m 70,80 c 6.1,0 11,4.9 11,11 0,6.1 -4.9,11 -11,11 -6.1,0 -11,-4.9 -11,-11 0,-6.1 4.9,-11 11,-11 z M 36,63 c 6.1,0 11,4.9 11,11 0,6.1 -4.9,11 -11,11 -6.1,0 -11,-4.9 -11,-11 0,-6.1 4.9,-11 11,-11 z m 6,-35 c 8.6,0 15.6,6.7 16,15.2 C 61.4,40 65.9,38 71,38 81.5,38 90,46.5 90,57 90,67.5 81.5,76 71,76 60.5,76 51.5,67.1 52,56.5 49.3,58.7 45.8,60 42,60 33.2,60 26,52.8 26,44 26,35.2 33.2,28 42,28 z m 54,-3 c 6.1,0 11,4.9 11,11 0,6.1 -4.9,11 -11,11 C 89.9,47 85,42.1 85,36 85,29.9 89.9,25 96,25 z M 42,20 c -13.3,0 -24,10.7 -24,24 0,4.8 1.4,9.3 3.9,13.1 C 18.2,61 16,66.2 16,72 16,84.2 25.8,94 38,94 43.3,94 48.2,92.1 52.1,88.9 51.3,99.6 60.1,108 70,108 c 9.9,0 18,-8.1 18,-18 0,-3.4 -1,-6.6 -2.7,-9.4 8.7,-4.7 15.7,-14.9 14.5,-27.3 C 106.9,51.2 112,44.7 112,37 112,27.6 104.4,20 95,20 88.4,20 82.8,23.7 79.9,29.2 74.1,27.2 66.6,27.8 61.5,30 57.1,24 50,20 42,20 z"/>
</svg>
