<?xml version="1.0" encoding="UTF-8"?>
<?xml-stylesheet href="common.css" type="text/css"?>
<svg xmlns="http://www.w3.org/2000/svg" width="128" height="128" version="1.1">
	<path class="green shining" d="m 41.6,20 c -6,0 -8.9,0.4 -12.8,1.2 -2.5,0.5 -6.3,4 -6.5,6.1 -0.4,4.9 -1.1,5.9 -0.9,9.2 0.1,3.3 4.5,9.8 5.5,13.6 0.3,1 2.3,3.2 5.4,5.3 l 0.4,-1.8 c -2.3,-2.3 -4.2,-5.7 -4,-8.2 3.3,5.6 21.3,28.8 40,39.9 2.1,1.2 -4.7,9.5 -7.8,14.3 0.1,1.9 -0.2,3.4 -1,4.8 4.5,-2 9,-7.1 11,-10.4 l 0.2,1.9 c 4.4,-2.1 3.6,-7.1 5.5,-7.1 1.2,0 8.9,8.8 13.2,16.9 l 2.6,1.8 c 0,-1.8 -0.8,-4.1 -2.1,-5.8 0.8,0.7 2.8,2.2 3.1,5 l 1.5,0.8 C 93,93.9 79.3,88.2 87.3,82.9 c -2.6,4.5 3.4,9.3 5.6,10.2 8.3,-10.2 11,-20.6 8.9,-28.1 C 97.3,48.5 74.9,20 41.6,20 z m 1.3,4.8 c 5.7,0 8.4,4.6 7,8.2 -3.1,7.9 -14.5,-1.6 -13.6,-4.8 2.1,-2.5 4.5,-3.4 6.6,-3.4 z m 1.9,1.3 c -2.2,0 -3.9,2 -3.9,4.4 0,2.4 1.8,4.4 3.9,4.4 2.2,0 3.9,-2 3.9,-4.4 0,-2.4 -1.8,-4.4 -3.9,-4.4 z m 0,1.9 c 1.1,0 2.1,1.1 2.1,2.4 0,1.3 -0.9,2.4 -2.1,2.4 -1.1,0 -2,-1.1 -2,-2.4 0,-1.3 0.9,-2.4 2,-2.4 z m 11.8,0.7 c 15,30.1 -12.8,28.2 -21.7,19.7 14.3,6.9 29.3,1 21.7,-19.7 z m -29.8,0.6 c 3.5,0 7.7,3.7 10.5,10.1 -7.1,-4.7 -12.1,-6.7 -15.5,-6.1 1.1,-2.7 2.9,-4 5,-4 z m 69.6,0.5 c -4.1,0 -8.7,1.1 -12.5,3.9 6.6,5.8 11,11.3 14.7,17.4 2.7,-0.6 4.3,-0.7 7,0.2 l 3.4,-4 c -1,-6.8 -1.9,-6.9 -10.8,-8.4 2.1,-1.2 6.9,-1.5 10,-0.4 -1.3,-2.8 -11.1,-6 -2.1,-5.8 -1.9,-1.7 -5.6,-2.8 -9.7,-2.8 z M 54.5,56.9 c 0.1,0 0.3,0 0.4,0 3.7,0.2 10.7,7.7 29.1,14.7 -13.8,-0.6 -23.8,-9 -31.6,-6 5.3,-3.9 -1,-6.8 1.1,-8.3 0.3,-0.2 0.7,-0.3 1,-0.4 z M 35.3,58.4 C 30,63 19,60 19,69 c 7.1,-6.9 13.5,0 21.4,-4.6 z m 1.5,17 C 35.7,83 35.9,84.1 40,87.9 l -3.1,-0.2 c 0.3,3.3 1.6,5.6 3.4,7.8 -5.8,2.8 -8.3,5 -10.1,9.7 3.3,-0.7 6,-0.7 10,0.6 -11.2,1.2 -11.3,2.3 -10.3,10.3 22.8,0 33.7,-2.4 44.1,-12.8 0,2.1 -1,6.2 -2.5,7.4 2.5,-0.8 3.7,-1.8 5.2,-3.8 0.2,2.4 -0.7,4.5 -2.8,6.8 5.3,-1 8.7,-4 11.9,-11.1 l -8.7,-6.3 c -7.9,7 -17.9,11.4 -21,11.4 2.6,-5.1 2.9,-6.1 2.6,-8.7 l 5.1,-7.3 C 55.7,91.3 46,77.5 36.8,75.5 z"/>
</svg>
