<?xml version="1.0" encoding="UTF-8"?>
<?xml-stylesheet href="common.css" type="text/css"?>
<svg xmlns="http://www.w3.org/2000/svg" width="128" height="128" version="1.1">
	<path class="nex shining" opacity="0.75" d="M 67.65429688,16.38085938 C 65.77824733,16.14711072 63.89045027,16.01995341 62,16 34.38576252,16 12,38.38576252 12,66 c 0.0216298,9.06267734 2.50601233,17.94907062 7.1875,25.70898438 l 7.03515625,-9.43164063 C 23.45514637,76.58116366 22.01159257,70.33288593 22,64 22.02046555,47.22295988 32.02325143,32.06750295 47.44140625,25.453125 54.14051982,21.82443848 60.98927222,18.76855834 67.65429688,16.38085938 Z M 64,106 c -6.32719563,-0.018187 -12.56851758,-1.4656824 -18.2578125,-4.234375 l -9.45898438,7.0527344 C 44.04598022,113.4991564 52.93522042,115.9815545 62,116 c 27.61423748,0 50,-22.38576252 50,-50 -0.010375,-1.91155246 -0.1303633,-3.82093703 -0.359375,-5.71875 -2.3912577,6.68518263 -5.420164,13.56640277 -9.0605469,20.28710962 C 95.95795458,95.99376389 80.78676842,105.9944734 64,106 Z"/>
	<path class="nex shining" d="M 24,108 83,64 79,79 98,53 96,77 C 109,53 114,26 108,20 102,14 75,19 51,32 L 75,30 49,49 64,45 20,104 Z M 92,25 c 2.5,-3 12,-3 13,-2 1,1 1,10.5 -2,13 L 34,94 Z"/>
</svg>
