<?xml version="1.0" encoding="UTF-8"?>
<?xml-stylesheet href="common.css" type="text/css"?>
<svg xmlns="http://www.w3.org/2000/svg" width="128" height="128" version="1.1">
	<path class="shotgun shining" opacity="0.75" d="m 62,16 c -27.61423748,0 -50,22.38576252 -50,50 0.009027,3.54320913 0.39465723,7.07542201 1.15039062,10.53710938 L 22.171875,67.515625 C 22.06548224,66.34666658 22.00814024,65.17376187 22,64 22,40.80404052 40.80404052,22 64,22 c 3.21430597,0.0150825 6.41625598,0.39910683 9.54296875,1.14453125 l 4.45117187,-4.45117187 C 72.84487748,16.9310791 67.442434,16.02132582 62,16 Z m 47.3183594,33.99609375 -4.46875,4.46875 C 105.5964138,57.58878473 105.9824003,60.78808247 106,64 c 0,23.19595948 -18.80404052,42 -42,42 -1.17251344,-0.00955 -2.34411276,-0.068193 -3.51171875,-0.1757812 l -8.99609375,8.9980468 C 54.94332033,115.5851329 58.46561448,115.9799179 62,116 c 27.61423748,0 50,-22.38576252 50,-50 -0.01649,-5.44506568 -0.9222963,-10.8508761 -2.6816406,-16.00390625 z"/>
	<path class="shotgun shining" d="M 90,18 49,59 69,79 110,38 z m -45,45 -16,16 -4,-3 -6,6 27,27 6,-6 -3,-4 16,-16 z"/>
</svg>
