<?xml version="1.0" encoding="UTF-8"?>
<?xml-stylesheet href="common.css" type="text/css"?>
<svg xmlns="http://www.w3.org/2000/svg" width="128" height="128" version="1.1">
	<path class="uzi shining" opacity="0.75" d="M 62,16 A 50,50 0 0 0 12.546875,58.984375 L 26.58398438,45.015625 A 42,42 0 0 1 64,22 42,42 0 0 1 86.31835938,28.47851562 c 1.72129974,-1.0802611 3.45860409,-2.11012106 4.98046874,-2.91992187 A 50,50 0 0 0 62,16 Z m 42.9550781,24.51953125 c -0.9298894,1.74264604 -1.996646,3.51514265 -3.140625,5.28710937 A 42,42 0 0 1 106,64 42,42 0 0 1 89.68554688,97.20117188 L 73.82226562,114.5214844 A 50,50 0 0 0 112,66 50,50 0 0 0 104.9550781,40.51953125 Z M 12.5546875,73.00976562 a 50,50 0 0 0 36.33984375,41.22851558 l -5.00976563,-5.765625 2.84765626,-6.2285156 A 42,42 0 0 1 26.45703125,82.80273438 l -3.05273437,0.6875 z"/>
	<path class="uzi shining" d="M 62,30 C 57.8,30 44.5,40 41.2,43.3 l 7.5,7.5 C 52,47.5 62,34.2 62,30 Z m 38,1 C 95,31 79,43 75,47 l 9,9 c 4,-4 16,-20 16,-25 z M 38.7,44.2 20.3,62.5 29.5,71.7 47.8,53.3 Z M 72,48 50,70 61,81 83,59 Z M 18.7,64.2 17,66.7 25.3,75 27.8,73.3 Z M 48,72 l -2,3 10,10 3,-2 z m 46,2 C 90.2,74 78.1,83.1 75,86.2 L 81.8,93 C 84.9,89.9 94,77.8 94,74 Z M 72.8,86.9 56,103.6 64.4,112 81.1,95.3 Z m -18.3,18.2 -1.5,2.3 7.6,7.6 2.3,-1.5 z"/>
</svg>
