<?xml version="1.0" encoding="UTF-8"?>
<?xml-stylesheet href="common_pink.css" type="text/css"?>
<svg xmlns="http://www.w3.org/2000/svg" width="128" height="128" version="1.1">
	<path class="teamcolor shining" d="m 64,20 c -4,0 -8,1 -10,2 -0.5,7 0,17.5 1.5,25 l 3.5,5 10,0 3.5,-5 C 74,39.5 74.5,29 74,22 72,21 68,20 64,20 z M 51,24.5 C 44,29.5 42,36 42,45 l 5,3 0,13 8,7 18,0 8,-7 0,-13 5,-3 C 86,36 84,29.5 77,24.5 77,33 76,42 74,47 c 2,0 4,2 4,4.5 0,2.5 -2,4.5 -4.5,4.5 -2,0 -3,-0.5 -4,-2 l -11,0 c -1,1.5 -2,2 -4,2 C 52,56 50,54 50,51.5 50,49 52,47 54,47 52,42 51,33 51,24.5 z M 64,35 c 3,0 5.5,2.5 5.5,5.5 0,3 -2.5,5.5 -5.5,5.5 -3,0 -5.5,-2.5 -5.5,-5.5 0,-3 2.5,-5.5 5.5,-5.5 z m -23,11.5 -2,1.5 0,9 4,3 0,9 9,9 24,0 9,-9 0,-9 4,-3 0,-9 L 87,46.5 83,49 83,61.5 74,70 54,70 45,61.5 45,49 z m -0.5,24 -7.5,1 -3,11.5 c 2,6 12,10 20,10 L 51,81 C 37,77 33,74 43,73 z m 47,0 L 85,73 c 10,1 6,4 -8,8 l 1,12 c 8,0 18,-4 20,-10 L 95,71.5 z M 53,83 52,96 C 45,96 33,94 28,85 17,88 12,97 12,104 22,98 29,99 40,99 l 8,7 32,0 8,-7 c 11,0 18,-1 28,5 0,-7 -5,-16 -16,-19 -5,9 -17,11 -24,11 L 75,83 z"/>
</svg>
