<?xml version="1.0" encoding="UTF-8"?>
<?xml-stylesheet href="common.css" type="text/css"?>
<svg xmlns="http://www.w3.org/2000/svg" width="128" height="128" version="1.1">
	<path class="yellow shining" d="m 42.2,69 c 0,-4.8 3.1,-8.8 7.5,-9.8 l 8.3,-21.5 2.9,0.6 -3.7,22.8 c 2.3,2 3.2,4.6 3.2,7.2 0,5.1 -4.1,9.9 -9.4,9.9 -4.9,0 -8.8,-4.1 -8.8,-9.2 z M 77.1,44.1 c 7.3,7.8 10,16.9 9.7,26.4 l 8.1,1.2 c 1,-13.8 -5.3,-26.2 -13.2,-33 z M 47.6,35.2 c 9.7,-2.1 18.3,0.3 24.7,4.9 L 87.1,23.4 C 75.3,16.5 59.5,14.6 44.6,20.9 z M 23.7,54.4 C 27.7,46.1 34.4,40 41.9,36.9 L 39.3,23.4 C 28.4,29.6 19.9,39.6 15.6,51.2 z M 21.5,60 C 18.5,70.3 20,78.8 23,85.7 l -7,5.1 C 11.9,81 10.6,69 13.8,56.8 z m 10.5,24 -6,24 86,0 6,-24 z m 15.3,4 c 2.8,0 5.6,0 4.8,3.3 L 51.3,95 c -0.6,2.5 -3.6,3 -5.1,3 l 4.3,5.9 11.6,-15.9 5.7,0 3.9,16 -4.4,0 -1,-4 -8.5,0 -2.9,4 -9.7,0 -4.4,-6 -3.8,0 -1.4,6 -4.4,0 3.9,-16 z m 28.8,0 4.9,0 6.1,10.5 2.6,-10.5 4.4,0 -3.9,16 -4.9,0 -6.1,-10.5 -2.6,10.5 -4.3,0 z m 21.1,0 4.3,0 -1.8,7.5 9.1,-7.5 5.3,0 -9,7.5 6.1,8.5 -5.3,0 -4.2,-5.8 -3.3,2.8 -0.8,3 -4.3,0 z m -58.5,3 -1,4 7.7,0 c 0.7,0.1 1.5,-0.2 1.7,-1.1 l 0.5,-2.1 C 47.8,91 47.1,91 46.4,91 z m 25.4,0.2 -4.2,5.8 5.6,0 z"/>
</svg>
