<?xml version="1.0" encoding="UTF-8"?>
<?xml-stylesheet href="common.css" type="text/css"?>
<svg xmlns="http://www.w3.org/2000/svg" width="128" height="128" version="1.1">
	<path class="green shining" d="M 81.7,38.7 77,44 c 7.3,7.8 10,16.9 9.7,26.4 l 8.1,1.2 C 95.9,57.9 89.6,45.5 81.7,38.7 z M 47.5,35.1 C 57.2,33 65.8,35.4 72.2,40 l 4.5,-5.1 C 66,28.1 54.4,28.4 46.7,30.8 z M 23.6,54.3 C 27.7,46.1 34.4,40 41.9,36.9 L 39.3,23.4 C 28.4,29.6 19.9,39.6 15.6,51.2 z m -2.2,5.6 c -3,10.3 -1.5,18.8 1.5,25.7 L 16,90.8 C 11.9,81 10.6,69 13.8,56.8 z m 38.9,8.3 c 0,-6.4 -5.6,-10.6 -11.2,-8.9 l -14.6,-14.8 -2.2,2.1 10.8,18 c -0.6,1.1 -0.9,2.7 -0.9,4.3 0,5 3.9,9.2 8.7,9.2 4.9,0 9.4,-4.3 9.4,-9.9 z M 32,84 l -6,24 86,0 6,-24 z m 2.8,4 20.5,0 -0.8,3 -7.9,0 -3.3,13 -4.5,0 3.2,-13 -8,0 z m 23.4,0 4.5,0 -4,16 -4.5,0 z m 8.2,0 5.5,0 3,12 9,-12 5.5,0 -4,16 -4.5,0 2.5,-10 -7.5,10 -4,0 -2.5,-10 -2.5,10 -4.5,0 z m 44.9,0 -0.8,3 -13.4,0 -0.8,3 12,0 -0.8,3 -12,0 -1,4 13.5,0 -0.7,3 -18,0 4,-16 z"/>
</svg>
