<?xml version="1.0" encoding="UTF-8"?>
<?xml-stylesheet href="common.css" type="text/css"?>
<svg xmlns="http://www.w3.org/2000/svg" width="128" height="128" version="1.1">
	<path class="blue shining" d="m 51.5,58.9 c -4.7,0 -7.9,3.8 -8.7,6.6 l -20.3,5.6 0.2,3 20.8,-0.5 c 1.3,2.4 4.2,4.5 7.4,4.5 4.8,0 9.4,-4.2 9.4,-10.1 0,-4.5 -3.3,-9.1 -8.8,-9.1 z M 81.7,38.7 77,44 c 7.3,7.8 10,16.9 9.7,26.4 l 8.1,1.2 C 95.9,57.9 89.6,45.5 81.7,38.7 z M 47.5,35.1 C 57.2,33 65.8,35.4 72.2,40 l 4.5,-5.1 C 66,28.1 54.4,28.4 46.7,30.8 z m -26.4,18.3 2.5,1 C 27.7,46.1 34.4,40 41.9,36.9 l -0.7,-4 c -8.5,3.9 -16,11.3 -20.1,20.5 z M 21.5,60 C 18.5,70.3 20,78.8 23,85.7 l -7,5.1 C 11.9,81 10.6,69 13.8,56.8 z m 10.5,24 -6,24 86,0 6,-24 z m 26.5,4 -0.7,3 -13.5,0 -0.8,3 12.1,0 -0.8,3 -12,0 -1.8,7 -4.5,0 4,-16 z m 13.9,0 4,16 -4.6,0 -1,-4 -8.8,0 -3,4 -4.6,0 12,-16 z m 10.4,0 4.5,0 -4,16 -4.5,0 z m 13,0 -3.3,13 13.5,0 -0.7,3 -18,0 4,-16 z m -27.2,3.2 -4.4,5.8 5.9,0 z"/>
</svg>
