<?xml version="1.0" encoding="UTF-8"?>
<?xml-stylesheet href="common.css" type="text/css"?>
<svg xmlns="http://www.w3.org/2000/svg" width="128" height="128" version="1.1">
	<path class="red shining" d="M 92.3,26.8 77,44 c 7.3,7.8 10,16.9 9.7,26.4 l 25,3.7 c 1.9,-17.2 -4,-35.5 -19.4,-47.3 z M 47.5,35.1 C 57.2,33 65.8,35.4 72.2,40 L 87.1,23.4 C 75.3,16.5 59.5,14.6 44.6,20.9 z M 23.6,54.3 C 27.7,46.1 34.4,40 41.9,36.9 L 39.3,23.4 C 28.4,29.6 19.9,39.6 15.6,51.2 z m -2.2,5.6 c -3,10.4 -1.5,18.9 1.5,25.8 L 16,90.8 C 11.9,81 10.6,69 13.8,56.8 z m 36.4,1.7 23,-5.7 1.1,3.1 -21.8,10.5 c -0.4,3.5 -3.6,8.6 -9.4,8.6 -4.9,0 -8.7,-4.3 -8.7,-9.2 0,-5.5 4.4,-10.1 9.5,-10.1 2.3,0 4.6,1 6.3,2.8 z M 32,84 l -6,24 86,0 6,-24 z m 9.4,4 13.2,0 c 2.9,0 5.8,0 5,3.3 L 58.7,95 c -0.6,2.5 -3.8,3 -5.3,3 l 4.5,6 -5.5,0 -4.5,-6 -4.5,0 -1.5,6 -4.5,0 z m 42.3,0 -0.8,3 -13.5,0 -0.8,3 12.1,0 -0.8,3 -12,0 -1,4 13.5,0 -0.8,3 -18,0 4,-16 z m 22.5,0 -0.8,3 -12,0 c -0.7,0 -1.5,0 -1.7,0.8 l -2.1,8.3 c -0.2,0.9 0.5,0.9 1.3,0.9 l 12,0 -0.8,3 -12.1,0 c -2.9,0 -5.8,0 -5,-3.3 l 2.4,-9.4 c 0.7,-2.9 3,-3.3 5.5,-3.3 z m -61,3 -1,4 8.6,0 c 0.7,0.1 1.5,-0.2 1.7,-1.1 L 55,91.8 C 55.1,91 54.4,91 53.7,91 z"/>
</svg>
