<?xml version="1.0" encoding="UTF-8"?>
<?xml-stylesheet href="common.css" type="text/css"?>
<svg xmlns="http://www.w3.org/2000/svg" width="128" height="128" version="1.1">
	<path class="armor shining" d="m 55,16 -47,81 9,16 94,0 9,-16 -47,-81 -9,0 z"/>
	<path class="armor darkened" d="m 48,103 -16,-28 5,-8.7 6.9,4 -2.7,4.7 11.4,20 5.4,0 0,8 -10,0 z m 22,0 0,-8 5.4,0 11.4,-20 -2.7,-4.7 6.9,-4 5,8.7 -16,28 -10,0 z M 49.8,59.9 42.9,55.9 48,47 l 32,0 5.1,8.9 -6.9,4 -2.8,-4.9 -22.8,0 -2.8,4.9 z"/>
</svg>
