<?xml version="1.0" encoding="UTF-8"?>
<?xml-stylesheet href="common.css" type="text/css"?>
<svg xmlns="http://www.w3.org/2000/svg" width="128" height="128" version="1.1">
	<path class="redorange shining" d="m 55,16 -47,81 9,16 94,0 9,-16 -47,-81 -9,0 z"/>
	<path class="redorange darkened" d="m 64.7,51 c 2.1,-0.4 4.6,3.7 6.6,3.4 2.3,-0.4 2.4,-1.9 4.3,-2.2 l 6,-0.8 c 1.3,-0.2 4.7,4.8 6.1,12.9 l 4.4,25.5 c 0.2,1.3 -11,3.4 -11.3,2.3 l -5.3,-24.9 -3.2,0.7 5.9,25.2 c 0.3,1.4 -12.9,4.1 -13.1,2.9 l -5.7,-25 -3.1,0.8 6,24.6 c 0.2,1 -10.3,3.1 -10.6,2.2 l -5.9,-24 -3.1,0.8 5.6,19.9 c 0.2,0.8 -7.5,2.7 -7.8,1.7 L 33,77.7 C 31,72.5 31.2,67.7 32.3,67 l 3.7,-2.4 c 1.7,-1.1 2.7,0.1 4.5,-0.6 2,-0.8 2,-5.2 4.6,-5.9 l 4.5,-1.3 c 1.7,-0.5 2.7,0.9 4.7,0.3 2,-0.6 2.2,-4.2 4.3,-4.7 z M 98.5,74.7 97.7,97.9 c -0,0.9 -3.1,4.2 -4.3,4.3 L 71.7,104 c -1.6,-0.5 -0.9,-3.7 -0.1,-5.3 l 18.4,-4.6 c 4,-1 5.4,-3.1 5.2,-4.2 L 91.8,70.4 z"/>
</svg>
