<?xml version="1.0" encoding="UTF-8"?>
<?xml-stylesheet href="common.css" type="text/css"?>
<svg xmlns="http://www.w3.org/2000/svg" width="128" height="128" version="1.1">
	<path class="yellow shining" d="m 55,16 -47,81 9,16 94,0 9,-16 -47,-81 -9,0 z"/>
	<path class="yellow darkened" d="m 64,73 c -14.4,0 -26,2.9 -26,6.5 0,2.8 7.1,5.2 17,6.1 L 55,83.4 C 49.6,82.7 46,81.5 46,80 c 0,-2.2 8.1,-4 18,-4 9.9,0 18,1.8 18,4 0,1.5 -3.6,2.7 -9,3.4 l 0,2.2 C 82.9,84.7 90,82.3 90,79.5 90,75.9 78.4,73 64,73 z M 58.5,79 58,90 c 5,2 8,6 8,9 -8,-11 -21,-9 -24,-3 2.7,1.1 5,3 5,6 -8,-9 -18,-3 -19,3 l 72,0 c -1,-8 -14,-10 -19,-4 0,-3 3,-6 5,-6 -3,-4 -13.5,-3 -15.5,1 l -1,-17 z M 69,70 68.5,63 c 7,7 19,3 18.5,-3 -2,1 -5,1 -6,0 16,-4 4,-19 -10,-9 1,-3 3,-4 6,-5 -2,-7 -20,-8 -28,6 -1,-2 1,-6 4,-8 -11,-1 -21,17 -3,17 -2,2 -4,2 -7,1 1,4 9.5,4 16.5,1 L 59,70 z"/>
</svg>
