<?xml version="1.0" encoding="UTF-8"?>
<?xml-stylesheet href="common.css" type="text/css"?>
<svg xmlns="http://www.w3.org/2000/svg" version="1.1" width="256" height="256">
	<g class="vehicle">
		<g filter="url(common.filters#vehicleWeapon)">
			<path d="m 57.5,129 c -1,0 -3.5,5 -4,8 l 8,0 c -0.5,-3 -3,-8 -4,-8 z m -4.5,9 0,8 1.5,2 0.5,10.5 1.5,2.5 2,0 1.5,-2.5 0.5,-10.5 1.5,-2 0,-8 z m 0.6,14 -3.6,6 1,2.5 3,-2.5 z m 7.8,0 -0.4,6 3,2.5 1,-2.5 z"/>
			<path d="m 198.5,129 c 1,0 3.5,5 4,8 l -8,0 c 0.5,-3 3,-8 4,-8 z m 4.5,9 0,8 -1.5,2 -0.5,10.5 -1.5,2.5 -2,0 -1.5,-2.5 -0.5,-10.5 -1.5,-2 0,-8 z m -0.6,14 3.6,6 -1,2.5 -3,-2.5 z m -7.8,0 0.4,6 -3,2.5 -1,-2.5 z"/>
		</g>
	</g>
</svg>
