<?xml version="1.0" encoding="UTF-8"?>
<?xml-stylesheet href="common.css" type="text/css"?>
<svg xmlns="http://www.w3.org/2000/svg" version="1.1" width="256" height="256">
	<g class="vehicle">
		<path opacity="0.6" d="m 123,77 -9,12 3,3 22,0 3,-3 -9,-12 z"/>
		<path filter="url(common.filters#vehicle)" d="m 122,75 -10,13 0,25 11,17.5 0,35.5 10,0 0,-35.5 11,-17.5 0,-25 -10,-13 z m 1,4 10,0 7,9.5 -1.5,1.5 -5.5,-4 -10,0 -5.5,4 -1.5,-1.5 z m -25.2,10 -7.9,1.8 -6.1,6.1 -1.8,7.9 8.4,8.3 18.5,0 0,-8 -4,-4 0.8,-4.2 z m 60.4,0 -8,7.9 0.8,4.2 -4,4 0,8 18.5,0 8.4,-8.3 -1.8,-7.9 -6.1,-6.1 z m -65.2,27 -11,16 0,28 15,20 14,0 10,-14 0,-35 -9.5,-15 z m 51.5,0 -9.5,15 0,35 10,14 14,0 15,-20 0,-28 -11,-16 z m -70.5,16 -5,7 0,9 5,7 6,0 0,-23 z m 102,0 0,23 6,0 5,-7 0,-9 -5,-7 z m -89.4,38.9 -6.3,5.8 1.8,7.9 6.1,6.1 7.9,1.8 10,-9.5 -10.5,0 z m 82.8,0 -8.9,12.1 -10.5,0 10,9.5 7.9,-1.8 6.1,-6.1 1.8,-7.9 z"/>
	</g>
</svg>
