<?xml version="1.0" encoding="UTF-8"?>
<?xml-stylesheet href="common.css" type="text/css"?>
<svg xmlns="http://www.w3.org/2000/svg" version="1.1" width="256" height="256">
	<g class="vehicle">
		<path opacity="0.6" d="m 120,70.5 -7,5.5 -4,12 5,10 28,0 5,-10 -4,-12 -7,-5.5 z"/>
		<path filter="url(common.filters#vehicle)" d="m 127,60 0,5 -2,0 0,-7 -2,0 -3,9 16,0 -3,-9 -2,0 0,7 -2,0 0,-5 z m -8,9 -8,5 -10,30 -5,0 -5,5 0,31 7,0 9,30 3,-10 3,0 -1,13 -3,5 -5,33 4,0 4,-4 6,-26 20,0 6,26 4,4 4,0 -5,-33 -3,-5 -1,-13 3,0 3,10 9,-30 7,0 0,-31 -5,-5 -5,0 -10,-30 -8,-5 z m 1,3 16,0 5,4 3.5,11 -3.5,8 -6,-4 -14,0 -6,4 -3.5,-8 3.5,-11 z"/>
	</g>
</svg>
