<?xml version="1.0" encoding="UTF-8"?>
<?xml-stylesheet href="common.css" type="text/css"?>
<svg xmlns="http://www.w3.org/2000/svg" version="1.1" width="256" height="256">
	<g class="vehicle">
		<path opacity="0.6" d="m 166,115 22,13 3,12 -25,0 z"/>
		<path filter="url(common.filters#vehicle)" d="m 127.5,119 c 3.8,0 7.5,1.4 10.4,4 l 19.1,0 5,2 0,19 -5,2 -19.1,0 c -2.9,2.6 -6.6,4 -10.4,4 -8.6,0 -15.5,-6.9 -15.5,-15.5 0,-8.6 6.9,-15.5 15.5,-15.5 z M 53,87 l 3.5,8 28.5,11 1,6 -8,2 1,5 6,2 -9,3 0,12 26,1 0,6 -9,2 0,9 7,1 0,5 22,6 51,-2 0,-7 9,-10 10,0 1,-5 -4,-15 -19,-12 1,-3 -23,-11 0,-6 -21,-1 -27,12 -8,-1.5 -4,-8 z m 114,30 19.5,11.5 2.5,9.5 -2,0 -2,-5 -12,-2 z m 20,33 -4,4 -3,-3 -4,4 3,3 -4,4 8,8 6,0 -9,-9 1.5,-1.5 7,7 3,-3 -7,-7 1.5,-1.5 9,9 0,-6 z"/>
	</g>
</svg>
