<?xml version="1.0" encoding="UTF-8"?>
<?xml-stylesheet href="common.css" type="text/css"?>
<svg xmlns="http://www.w3.org/2000/svg" version="1.1" width="80" height="80">
	<g transform="scale(0.5,0.5)">
		<g filter="url(common.filters#shining)">
			<g transform="scale(2,2)">
				<path class="armor" d="m 29.6,22 -4.2,7.3 5.2,3 2.5,-4.3 13.9,0 2.5,4.3 5.2,-3 -4.2,-7.3 -20.8,0 z m -6.2,10.7 -4.2,7.3 10.4,18 8.4,0 0,-6 -4.9,0 -6.9,-12 2.5,-4.3 -5.2,-3 z m 33.2,0 -5.2,3 2.5,4.3 -6.9,12 -4.9,0 0,6 8.4,0 10.4,-18 -4.2,-7.3 z"/>
			</g>
		</g>
	</g>
</svg>
