<?xml version="1.0" encoding="UTF-8"?>
<?xml-stylesheet href="common.css" type="text/css"?>
<svg xmlns="http://www.w3.org/2000/svg" version="1.1" width="256" height="256">
	<g class="vehicle">
		<g filter="url(common.filters#vehicleWeapon)">
			<path d="m 107.75,65 0,5 0.25,0 0,8 -1,1 0,9 4,0 0,-9 -1,-1 0,-8 0.25,0 0,-5 -2.5,0 z m -6,3 0,5 0.25,0 0,8 -1,1 0,9 4,0 0,-9 -1,-1 0,-8 0.25,0 0,-5 -2.5,0 z"/>
			<path d="m 150.25,65 0,5 -0.25,0 0,8 1,1 0,9 -4,0 0,-9 1,-1 0,-8 -0.25,0 0,-5 2.5,0 z m 6,3 0,5 -0.25,0 0,8 1,1 0,9 -4,0 0,-9 1,-1 0,-8 -0.25,0 0,-5 2.5,0 z"/>
		</g>
	</g>
</svg>
