<?xml version="1.0" encoding="UTF-8"?>
<?xml-stylesheet href="common.css" type="text/css"?>
<svg xmlns="http://www.w3.org/2000/svg" version="1.1" width="256" height="256">
	<g class="vehicle">
		<path opacity="0.6" d="m 125,76 -6,8 3,6 14,0 3,-6 -6,-8 z"/>
		<path d="m 125,74 -7,9 0,27 -2,0 -1,-17 -5,0 -10,6 0,5 -13.5,0.1 c -5,-6.8 -13.1,-10.8 -21.7,-10.8 -14.7,0 -26.6,11.5 -26.6,25.7 0,3.1 0.6,6.1 1.7,8.9 l 7.2,-3 c 2,6.8 9.1,11.6 17.2,11.6 6.9,0 13.1,-3.4 16,-8.8 l 7.1,4.8 c 2.6,-4.1 4.1,-8.4 4.1,-15.4 l 7.5,0 0,5 11,19 6,0 0,-9 6,0 0,55 -16,5 0,8 17,8 2,-5 8,0 2,5 17,-8 0,-8 -16,-5 0,-55 6,0 0,9 6,0 11,-19 0,-5 7.5,0 c 0,7 1.5,11.4 4.1,15.4 l 7.1,-4.8 c 2.9,5.4 9.2,8.8 16,8.8 8.1,0 15.2,-4.8 17.2,-11.6 l 7.2,3 c 1.1,-2.9 1.7,-5.9 1.7,-8.9 0,-14.2 -11.9,-25.7 -26.6,-25.7 -8.6,0 -16.7,4 -21.7,10.8 L 158,104 l 0,-5 -10,-6 -5,0 -1,17 -2,0 0,-27 -7,-9 z m 12.5,11 -1.5,3 -7,-3 -7,3 -1.5,-3 0,-1 5.5,-7 6,0 5.5,7 z m -11.5,61 6,0 0,47 -6,0 z" filter="url(common.filters#vehicle)"/>
	</g>
</svg>
