<?xml version="1.0" encoding="UTF-8"?>
<?xml-stylesheet href="common.css" type="text/css"?>
<svg xmlns="http://www.w3.org/2000/svg" width="512" height="64" version="1.1">
	<g class="shadow blurred">
		<path d="m 232,18 10,20 -12,0 -10,-20 z m -16,0 10,20 -12,0 -10,-20 z m -16,0 10,20 -12,0 -10,-20 z m -16,0 10,20 -12,0 -10,-20 z m -16,0 10,20 -12,0 -10,-20 z m -16,0 10,20 -12,0 -10,-20 z m -16,0 10,20 -12,0 -10,-20 z m -16,0 10,20 -12,0 -10,-20 z m -16,0 10,20 -12,0 L 92,18 z M 88,18 98,38 l -12,0 -10,-20 z m -16,0 10,20 -12,0 -10,-20 z m -16,0 10,20 -12,0 -10,-20 z m -16,0 10,20 -12,0 -10,-20 z m -16,0 10,20 -12,0 -10,-20 z"/>
		<path d="m 280,18 -10,20 12,0 10,-20 z m 16,0 -10,20 12,0 10,-20 z m 16,0 -10,20 12,0 10,-20 z m 16,0 -10,20 12,0 10,-20 z m 16,0 -10,20 12,0 10,-20 z m 16,0 -10,20 12,0 10,-20 z m 16,0 -10,20 12,0 10,-20 z m 16,0 -10,20 12,0 10,-20 z m 16,0 -10,20 12,0 10,-20 z m 16,0 -10,20 12,0 10,-20 z m 16,0 -10,20 12,0 10,-20 z m 16,0 -10,20 12,0 10,-20 z m 16,0 -10,20 12,0 10,-20 z m 16,0 -10,20 12,0 10,-20 z"/>
		<path d="m 22,42 -3,7 L 240,56 l 8,-6 -4,-8 z"/>
		<path d="m 490,42 3,7 -221,7 -8,-6 4,-8 z"/>
	</g>
</svg>
