<?xml version="1.0" encoding="UTF-8"?>
<?xml-stylesheet href="common.css" type="text/css"?>
<svg xmlns="http://www.w3.org/2000/svg" width="128" height="128" version="1.1">
	<path class="crylink shining" d="M 19.3,94.4 C 33.8,119.5 78.1,104.3 65.3,70.1 64.9,93.4 48.8,93.5 43.5,80.4 40.2,72 31.2,69 23.4,73.5 c -7.8,4.5 -8.6,13.1 -4.1,20.9 z M 107.7,92.6 c 14.5,-25.1 -20.8,-55.9 -44,-27.7 20.4,-11.3 28.5,2.6 19.8,13.7 -5.6,7.1 -3.7,16.4 4.1,20.9 7.8,4.5 15.6,0.9 20.1,-6.9 z M 62,17 C 33,17 24,63 60,69 40,57 48,43 62,45 70.9,46.3 78,40 78,31 78,22 71,17 62,17 z"/>
</svg>
