<?xml version="1.0" encoding="UTF-8"?>
<?xml-stylesheet href="common.css" type="text/css"?>
<svg xmlns="http://www.w3.org/2000/svg" width="128" height="128" version="1.1">
	<path class="minstanex shining" d="M 46.5,58 C 36.2,55.6 36.3,63.9 42.2,72.9 L 60,49 45,53 71,34 47,36 c 24,-13 51,-18 57,-12 6,6 1,33 -12,57 L 94,57 75,83 79,68 55.1,85.8 c 9,5.9 17.3,6 14.9,-4.3 C 78.5,98.5 63,103 44,84 25,65 29.5,49.5 46.5,58 z M 49.6,81.5 99,40 c 3,-2.5 3,-12 2,-13 -1,-1 -10.5,-1 -13,2 L 46.5,78.4 z M 31,77 c -8.9,-2.1 -8.4,5.8 -2.3,14 L 36.8,80.2 41,85 32.5,95.5 43,87.1 47.8,91.3 37,99.4 c 8.2,6 16.1,6.5 14,-2.4 7.5,16.5 -8,16 -22,2 C 15,85 14.5,69.5 31,77 z m -15,31 7.8,-10.4 3.1,3.5 3.5,3.1 L 20,112 z"/>
</svg>
