<?xml version="1.0" encoding="UTF-8"?>
<?xml-stylesheet href="common.css" type="text/css"?>
<svg xmlns="http://www.w3.org/2000/svg" width="128" height="128" version="1.1">
	<path class="electro shining" d="m 64,23 c -8,0 -15.2,3.7 -20,9.4 L 44,43 c 5.5,-4.4 12.4,-7 20,-7 7.6,0 14.5,2.6 20,7 L 84,32.4 C 79.2,26.7 72,23 64,23 z m 0,21 C 50.7,44 40,54.7 40,68 40,81.3 50.7,92 64,92 77.3,92 88,81.3 88,68 88,54.7 77.3,44 64,44 z m -31.7,19.2 -9.1,5.3 c -2.6,7 -2.2,15 1.8,22 4.1,7 10.8,11.4 18.2,12.6 l 9.1,-5.3 C 45.8,95.3 40.1,90.5 36.3,84 c -3.8,-6.5 -5,-13.9 -4,-20.8 z m 63.4,0 c 1,6.9 -0.2,14.3 -4,20.8 -3.8,6.5 -9.5,11.3 -16,13.8 l 9.1,5.3 c 7.4,-1.2 14.1,-5.6 18.2,-12.6 4,-7 4.4,-15 1.8,-22 l -9.1,-5.3 z"/>
</svg>
