<?xml version="1.0" encoding="UTF-8"?>
<?xml-stylesheet href="common.css" type="text/css"?>
<svg xmlns="http://www.w3.org/2000/svg" width="128" height="128" version="1.1">
	<path class="rpc shining" opacity="0.75" d="M 59.53320312 16.12304688 A 50 50 0 0 0 12 66 A 50 50 0 0 0 14.015625 79.92578125 L 18.98828125 57.94335938 L 22.65429688 56.87109375 A 42 42 0 0 1 58.17578125 22.45117188 L 59.53320312 16.12304688 z M 111.703125 60.70117188 L 105.8554688 60.71289062 A 42 42 0 0 1 106 64 A 42 42 0 0 1 65.13085938 105.9589844 L 62.85546875 115.9570312 A 50 50 0 0 0 112 66 A 50 50 0 0 0 111.703125 60.70117188 z"/>
	<path class="rpc shining" d="m 26.2928932,59.59440842 -4.9497474,21.92031018 2.8284271,2.8284271 48.08326107,-48.08326106 a 14,14 0 0 1 19.7989899,0 14,14 0 0 1 0,19.79898987 l -48.08326107,48.08326109 11.31370847,11.3137085 4.9497474,-21.9203102 8.4852814,8.4852814 4.9497475,-21.9203102 8.4852813,8.4852813 4.9497475,-21.9203102 8.4852814,8.4852814 4.94974753,-21.92031021 h 12.727922 l -12.0208153,-14.84924241 9.1923882,-9.19238815 -19.79898983,-3.37533006 -10e-8,-10.76680556 -15.5563492,12.72792206 -8.4852813,-8.48528138 -4.9497475,21.92031022 -8.4852814,-8.48528138 -4.9497475,21.92031022 L 39.7279221,46.15937958 34.7781746,68.0796898 Z M 27,90 38.3137085,101.3137085 87.81118317,51.81623383 a 8,8 0 0 0 0,-11.3137085 8,8 0 0 0 -11.3137085,0 z"/>
</svg>
