<?xml version="1.0" encoding="UTF-8"?>
<?xml-stylesheet href="common.css" type="text/css"?>
<svg xmlns="http://www.w3.org/2000/svg" width="128" height="128" version="1.1">
	<path class="uzi shining" d="M 62,23 C 57.8,23 44.5,33 41.2,36.3 l 7.5,7.5 C 52,40.5 62,27.2 62,23 z m 40,3 C 97,26 81,38 77,42 l 9,9 c 4,-4 16,-20 16,-25 z M 38.7,37.2 20.3,55.5 29.5,64.7 47.8,46.3 38.7,37.2 z M 74,43 52,65 63,76 85,54 74,43 z M 18.7,57.2 17,59.7 25.3,68 27.8,66.3 18.7,57.2 z M 50,67 48,70 58,80 61,78 50,67 z m 48,5 C 94.2,72 82.1,81.1 79,84.2 L 85.8,91 C 88.9,87.9 98,75.8 98,72 z M 76.8,84.9 60,101.6 68.4,110 85.1,93.3 76.8,84.9 z m -18.3,18.2 -1.5,2.3 7.6,7.6 2.3,-1.5 -8.4,-8.4 z"/>
</svg>
