<?xml version="1.0" encoding="UTF-8"?>
<?xml-stylesheet href="common.css" type="text/css"?>
<svg xmlns="http://www.w3.org/2000/svg" width="128" height="128" version="1.1">
	<path class="porto shining" d="m 70,111 c 10,0 9,-10 3,-21 l -4.5,0 c 3,6 3.5,12 -1.5,12 -14,0 -41,-27 -41,-41 0,-5 6,-4.5 12,-1.5 L 38,55 c -11,-6 -21,-7 -21,3 0,19 34,53 53,53 z m -14,-67 9,9 -12,12 -9,-9 0,28 28,0 -9,-9 12,-12 9,9 0,-28 -28,0 z m 2,-27 c -10,0 -9,10 -3,21 l 4.5,0 C 56.5,32 56,26 61,26 c 14,0 41,27 41,41 0,5 -6,4.5 -12,1.5 l 0,4.5 c 11,6 21,7 21,-3 C 111,51 77,17 58,17 z"/>
</svg>
