<?xml version="1.0" encoding="UTF-8"?>
<?xml-stylesheet href="common.css" type="text/css"?>
<svg xmlns="http://www.w3.org/2000/svg" width="128" height="128" version="1.1">
	<path class="hmg shining" opacity="0.75" d="m 62,16 a 50,50 0 0 0 -50,50 50,50 0 0 0 2.98632812,16.84179688 l 8.34570313,-8.49609376 A 42,42 0 0 1 22,64 42,42 0 0 1 64,22 42,42 0 0 1 80.33203125,25.30859375 L 84.921875,21.578125 A 50,50 0 0 0 62,16 Z m 44.4160156,27.14257812 -3.7636718,4.53515626 A 42,42 0 0 1 106,64 42,42 0 0 1 64,106 42,42 0 0 1 53.65234375,104.6523438 l -8.51367187,8.3671874 A 50,50 0 0 0 62,116 50,50 0 0 0 112,66 50,50 0 0 0 106.4160156,43.14257812 Z"/>
	<path class="hmg shining" d="M 108,18 C 97,22 94,24 79,37 L 91,49 C 104,34 106,31 110,20 z M 75,39 62,52 55,54 25,84 44,103 74,73 76,66 89,53 z m -53,48 -3,5 17,17 5,-3 z"/>
</svg>
