<?xml version="1.0" encoding="UTF-8"?>
<?xml-stylesheet href="common.css" type="text/css"?>
<svg xmlns="http://www.w3.org/2000/svg" width="128" height="128" version="1.1">
	<path class="minelayer shining" d="m 54,24 4,15 12,0 4,-15 z m -2.1,5.8 -16.7,12.1 11.1,7.2 -5.4,16.5 -13.2,-0.7 6.4,19.7 10.2,-8.3 14.1,10.2 -4.8,12.3 20.7,0 -4.8,-12.3 14.1,-10.2 10.3,8.3 6.4,-19.7 -13.2,0.7 -5.3,-16.5 11,-7.2 -16.7,-12.1 -3.4,12.7 -17.4,0 z M 29.1,42.1 22.9,61.2 38.4,62 42.1,50.6 z m 69.9,0 -13,8.4 3.7,11.4 15.5,-0.8 z M 64,47 c 9.4,0 17,7.6 17,17 0,9.4 -7.6,17 -17,17 -9.4,0 -17,-7.6 -17,-17 0,-9.4 7.6,-17 17,-17 z m 0,5 c -6.6,0 -12,5.4 -12,12 0,6.6 5.4,12 12,12 6.6,0 12,-5.4 12,-12 0,-6.6 -5.4,-12 -12,-12 z m -19.6,28.7 -12,9.8 16.2,11.8 5.6,-14.5 z m 39.1,0 -9.7,7.1 5.6,14.5 16.2,-11.8 -12,-9.8 z"/>
</svg>
