<?xml version="1.0" encoding="UTF-8"?>
<?xml-stylesheet href="common.css" type="text/css"?>
<svg xmlns="http://www.w3.org/2000/svg" width="128" height="128" version="1.1">
	<path class="rocketlauncher shining" d="m 46.3,13 -7.8,24.4 11.4,4.3 10.5,-23.3 z m -10.6,33.4 -6.5,20.3 8,3.1 8.8,-19.4 z m -9.1,28.4 -5.6,17.6 5.1,2 7.6,-16.8 z M 84.9,34.3 67.9,53.4 76.5,62 95.6,45 Z M 61.7,60.5 47.5,76.4 53.6,82.5 69.5,68.3 Z m -19.8,22.3 -12.3,13.8 3.9,3.9 13.8,-12.3 z m -6.3,21.1 2,5.1 17.6,-5.6 -2.7,-7.1 z m 24.6,-11.1 3.1,8 20.3,-6.5 -4,-10.3 z m 28.1,-12.7 4.4,11.4 24.4,-7.8 -5.4,-14.1 z"/>
</svg>
