<?xml version="1.0" encoding="UTF-8"?>
<?xml-stylesheet href="common.css" type="text/css"?>
<svg xmlns="http://www.w3.org/2000/svg" width="128" height="128" version="1.1">
	<path class="hagar shining" d="m 66.7,14 c -6.6,1.7 -10.7,3.7 -14.8,6.6 l 11.6,11.6 C 66.3,28 68.3,23.9 70,17.3 70,14.8 69.2,14 66.7,14 z M 49.8,21.8 37.8,33.8 37,39.6 22.9,54.4 l -1.6,5 3.3,3.3 5,-1.6 14.8,-14 5.8,-0.8 12,-12 -12.4,-12.4 z m -19.8,21.9 -10.3,4.1 -1.7,4.1 3.7,0.4 8.3,-8.7 z M 76,49 c -8,2 -13,4.5 -18,8 l 14,14 c 3.5,-5 6,-10 8,-18 0,-3 -1,-4 -4,-4 z m -35.7,5 -8.7,8.3 0.4,3.7 4.1,-1.7 4.1,-10.3 z M 55.5,58.5 41,73 l -1,7 -17,18 -2,6 4,4 6,-2 18,-17 7,-1 14.5,-14.5 -15,-15 z m 55.7,3.5 c -5.6,1.4 -9.1,3.1 -12.6,5.6 l 9.8,9.8 C 110.9,73.9 112.6,70.4 114,64.8 114,62.7 113.3,62 111.2,62 z M 96.9,68.6 86.8,78.8 l -0.7,4.9 -11.9,12.6 -1.4,4.2 2.8,2.8 4.2,-1.4 12.6,-11.9 L 97.3,89.3 107.4,79.1 96.9,68.6 z M 31.5,85 19,90 17,95 21.5,95.5 31.5,85 z M 80.1,87.2 71.4,90.6 70,94.1 l 3.2,0.3 7,-7.3 z m 8.7,8.7 -7.3,7 L 81.9,106 l 3.5,-1.4 3.5,-8.7 z M 44,97.5 l -10.5,10 0.5,4.5 5,-2 5,-12.5 z"/>
</svg>
