<?xml version="1.0" encoding="UTF-8" standalone="no"?>
<!-- Created with Inkscape (http://www.inkscape.org/) -->

<svg
   xmlns:dc="http://purl.org/dc/elements/1.1/"
   xmlns:cc="http://creativecommons.org/ns#"
   xmlns:rdf="http://www.w3.org/1999/02/22-rdf-syntax-ns#"
   xmlns:svg="http://www.w3.org/2000/svg"
   xmlns="http://www.w3.org/2000/svg"
   xmlns:sodipodi="http://sodipodi.sourceforge.net/DTD/sodipodi-0.dtd"
   xmlns:inkscape="http://www.inkscape.org/namespaces/inkscape"
   width="2048"
   height="1024"
   id="svg2"
   sodipodi:version="0.32"
   inkscape:version="0.47 r22583"
   version="1.0"
   sodipodi:docname="xonotic_logo_print_black-all.svg"
   inkscape:output_extension="org.inkscape.output.svg.inkscape"
   inkscape:export-xdpi="45"
   inkscape:export-ydpi="45">
  <defs
     id="defs4" />
  <sodipodi:namedview
     id="base"
     pagecolor="#ffffff"
     bordercolor="#666666"
     borderopacity="1.0"
     inkscape:pageopacity="1"
     inkscape:pageshadow="2"
     inkscape:zoom="0.35355339"
     inkscape:cx="1151.9274"
     inkscape:cy="287.31486"
     inkscape:document-units="px"
     inkscape:current-layer="XonoticLogo"
     showgrid="false"
     inkscape:showpageshadow="false"
     gridtolerance="10"
     showguides="false"
     inkscape:guide-bbox="true"
     inkscape:snap-to-guides="true"
     inkscape:snap-global="true"
     borderlayer="true">
    <inkscape:grid
       type="xygrid"
       id="grid2383"
       visible="true"
       enabled="true"
       empspacing="4"
       snapvisiblegridlinesonly="true" />
  </sodipodi:namedview>
  <metadata
     id="metadata7">
    <rdf:RDF>
      <cc:Work
         rdf:about="">
        <dc:format>image/svg+xml</dc:format>
        <dc:type
           rdf:resource="http://purl.org/dc/dcmitype/StillImage" />
        <dc:title>Xonotic Logo Print Version</dc:title>
        <dc:date>2010</dc:date>
        <dc:rights>
          <cc:Agent>
            <dc:title>Xonotic Community</dc:title>
          </cc:Agent>
        </dc:rights>
        <dc:publisher>
          <cc:Agent>
            <dc:title />
          </cc:Agent>
        </dc:publisher>
        <dc:creator>
          <cc:Agent>
            <dc:title>Xonotic Community</dc:title>
          </cc:Agent>
        </dc:creator>
        <cc:license
           rdf:resource="Dual-licensed under the &quot;GNU LGPL v2.1, or any later version&quot; (http://www.gnu.org/licenses/old-licenses/lgpl-2.1.html) and &quot;CC-BY v3.0&quot; (http://creativecommons.org/licenses/by/3.0/)" />
        <dc:subject>
          <rdf:Bag>
            <rdf:li>Xonotic</rdf:li>
            <rdf:li>Phoenix</rdf:li>
            <rdf:li>Logo</rdf:li>
          </rdf:Bag>
        </dc:subject>
        <dc:description>A print version of the Xonotic logo. Completely black.</dc:description>
        <dc:relation>Xonotic Logo</dc:relation>
      </cc:Work>
    </rdf:RDF>
  </metadata>
  <g
     inkscape:groupmode="layer"
     id="XonoticLogo">
    <path
       style="fill:#000000;fill-opacity:1;fill-rule:evenodd;stroke:none;stroke-width:2;stroke-linejoin:round;stroke-miterlimit:4;stroke-dasharray:none;stroke-opacity:1"
       d="M 857 368.9375 C 796.36176 368.76641 732.87456 384.18887 666.125 385.0625 C 758.0098 415.9278 779.27105 388.6614 848.78125 422.875 C 847.11615 392.7912 900.9699 393.6642 895.75 430.1875 C 890.88344 464.23879 803.51285 441.61971 723.09375 456 L 728 456 C 732 456 733.94939 458.0519 736 460 L 770.09375 492.40625 C 788.27502 495.62397 803.51872 498.57484 816 498.1875 L 816 462 C 816 456.75 791.5 456.08203 785.375 456 L 870.625 456 C 864.5 456.08203 840 456.75 840 462 L 840 470.6875 C 852.02772 467.08674 867.58729 471.24335 869.875 490.03125 C 871.7864 505.72838 859.43644 512.09098 840 516.71875 L 840 544.9375 C 848.59987 539.12135 862.97407 538.47271 869.5 551.5625 C 889.8587 592.3985 800.83265 574.45585 801.15625 643.78125 C 826.01965 613.82845 851.61405 620.10185 867.53125 620.65625 C 867.29215 595.84215 893.97135 590.0828 903.03125 615.375 C 908.75285 631.3468 939.21895 629.528 973.15625 636 C 922.93965 615.3783 888.2578 565.20965 890.0625 507.78125 C 891.6509 457.24191 921.07895 414.09685 963.15625 392.59375 C 928.74666 374.76078 893.38295 369.04016 857 368.9375 z M 1191 368.9375 C 1154.617 369.04017 1119.2533 374.76078 1084.8438 392.59375 C 1126.921 414.09685 1156.3491 457.24201 1157.9375 507.78125 C 1159.7421 565.20965 1125.0604 615.3782 1074.8438 636 C 1108.7811 629.5279 1139.2472 631.3467 1144.9688 615.375 C 1154.0287 590.0828 1180.7079 595.84215 1180.4688 620.65625 C 1196.386 620.10185 1221.9804 613.82845 1246.8438 643.78125 C 1247.1674 574.45585 1158.1413 592.3984 1178.5 551.5625 C 1189.9573 528.5812 1225.6194 547.93745 1211.7188 563.28125 C 1222.8142 565.47134 1233.337 566.04409 1243.9375 566.1875 C 1248.5671 565.29671 1252 563.96875 1252 562 L 1252 525.40625 C 1210.0054 516.4603 1174.9949 515.73635 1178.125 490.03125 C 1180.1088 473.7382 1192.075 468.43239 1203.0625 469.65625 C 1200.183 465.62154 1197.9737 460.9868 1196 460 C 1188 456 1164 456 1164 456 L 1324.9062 456 C 1244.4871 441.61975 1157.1164 464.23879 1152.25 430.1875 C 1147.0299 393.6642 1200.8838 392.7911 1199.2188 422.875 C 1268.7289 388.6614 1289.9901 415.9278 1381.875 385.0625 C 1315.1254 384.18881 1251.6383 368.76639 1191 368.9375 z M 709.71875 410.21875 C 640.2748 410.53265 570.43261 439.98631 493.28125 456 L 502.75 456 C 502.75 456 495.82758 456.19662 488.28125 457.03125 C 488.25121 457.03723 488.21754 457.02528 488.1875 457.03125 C 483.69178 457.92508 479.17235 458.77376 474.625 459.5625 C 472.5243 460.24242 470.87891 461.04466 470 462 L 464.96875 467.46875 C 487.7949 470.51032 505.75547 470.78546 521.1875 469.4375 C 525.80256 461.56942 532.91148 456 540 456 L 582.9375 456 C 608.09339 449.19843 637.14572 443.00854 686.3125 445.4375 C 627.8211 423.0682 720.79085 406.2727 711.21875 441.25 C 749.14055 445.0627 744.83015 434.23865 816.96875 438.34375 C 780.70247 417.52946 745.2638 410.05808 709.71875 410.21875 z M 1338.2812 410.21875 C 1302.7362 410.05808 1267.2975 417.52946 1231.0312 438.34375 C 1303.1698 434.23865 1298.8594 445.0627 1336.7812 441.25 C 1327.2092 406.2727 1420.1787 423.0682 1361.6875 445.4375 C 1410.8543 443.00854 1439.9066 449.19843 1465.0625 456 L 1466.625 456 C 1466.2656 456.00481 1465.6647 456.0216 1465.1875 456.03125 C 1483.8894 461.09184 1500.4546 466.48731 1521.5312 468.90625 C 1526.15 461.32831 1533.0773 456 1540 456 L 1554.7188 456 C 1477.5674 439.98631 1407.7252 410.53265 1338.2812 410.21875 z M 1336.75 458.4375 C 1334.8975 458.87931 1333.2361 459.38197 1332 460 C 1328.3729 461.8135 1324 476 1316 476 L 1276 476 L 1276 492.71875 C 1308.7142 486.90378 1351.1356 479.85789 1404.5 489.96875 C 1384.758 473.65191 1361.2868 464.07399 1336.75 458.4375 z M 706.03125 459.6875 C 689.43059 463.9204 673.40367 470.09911 658.8125 479.0625 C 659.52612 481.75512 659.94317 484.55286 660 487.34375 C 677.21264 485.08788 693.19214 484.56168 708 485.0625 L 708 462 C 708 461.09766 707.26107 460.33942 706.03125 459.6875 z M 1217.5938 476 C 1222.8547 480.93479 1224.6023 488.16876 1218.4688 495.96875 C 1227.5383 499.04599 1238.6739 498.6059 1252 496.75 L 1252 476 L 1217.5938 476 z M 732 484 L 732 486.75 C 733.08662 486.86564 734.17835 486.97036 735.25 487.09375 L 732 484 z M 600.9375 494.28125 C 580.80606 494.13756 561.1227 509.02357 540 520.78125 L 540 532 C 540 532.4167 540.01955 532.83443 540.03125 533.25 C 575.42751 526.96358 593.02466 509.11729 617.75 498.21875 C 612.08079 495.5047 606.49526 494.32092 600.9375 494.28125 z M 1447.0625 494.28125 C 1443.3886 494.30747 1439.7166 494.83054 1436 495.96875 L 1436 500.9375 C 1459.5923 512.74492 1478.1252 529.93112 1516 534.40625 L 1516 525.03125 C 1491.7859 513.00541 1469.7163 494.11959 1447.0625 494.28125 z M 732 499.46875 L 732 533.125 C 746.57981 530.06228 744.71028 523.43098 767.125 517.4375 L 749 500.1875 C 743.12936 499.6873 737.47277 499.4658 732 499.46875 z M 1313.75 499.46875 C 1302.088 499.60167 1289.5645 500.81513 1276 503.34375 L 1276 516.21875 C 1308.519 523.61244 1298.3058 532.45905 1326.2188 534.4375 C 1321.8868 500.5412 1402.8481 528.17135 1347.9375 541.53125 C 1377.2868 545.76413 1396.8477 552.02036 1412 558.625 L 1412 526.96875 C 1383.9771 511.3682 1353.914 499.01096 1313.75 499.46875 z M 708 501.0625 C 690.33316 503.49137 674.63929 508.48575 660 514.90625 L 660 536 C 660 541.17452 658.72931 546.33544 656.625 550.96875 C 668.36237 547.33006 682.44713 544.0718 700.0625 541.53125 C 662.03838 532.27981 689.15659 516.20594 708 518.4375 L 708 501.0625 z M 784.375 505.96875 L 791.5625 512.78125 C 795.37242 512.25511 799.52498 511.73771 804.0625 511.25 C 797.26141 509.19036 790.71655 507.45568 784.375 505.96875 z M 1252 508.90625 C 1249.3458 509.63869 1246.6674 510.42328 1243.9375 511.25 C 1246.7943 511.55706 1249.4374 511.89587 1252 512.21875 L 1252 508.90625 z M 816 521.53125 C 811.88295 522.2879 807.6334 523.04817 803.28125 523.90625 L 816 536 L 816 521.53125 z M 636 526.96875 C 624.02122 533.63742 612.399 540.89502 600.53125 548 L 624 548 C 634 548 636 540 636 532 L 636 526.96875 z M 779.59375 529.3125 C 763.61627 533.59419 747.22982 539.585 732 548.9375 L 732 562 C 732 565.98499 746.08142 567.32855 755.5625 567.78125 C 778.40725 565.0758 797.75834 567.0357 817.8125 565.65625 C 817.18489 565.12786 816.59194 564.56374 816 564 L 779.59375 529.3125 z M 1276 531.46875 L 1276 562 C 1276 567.25 1300.5 567.91797 1306.625 568 L 1294.0625 568 C 1311.7656 570.25382 1331.5912 575.36829 1355.5 587 C 1334.6454 555.48069 1305.0614 540.25731 1276 531.46875 z M 516 531.5625 C 508.82913 533.7961 501.45617 535.04825 493.78125 534.6875 C 501.82119 535.37937 509.17402 535.62749 516 535.5 L 516 531.5625 z M 1540.0312 533.625 C 1540.0544 534.24403 1540.1012 534.86002 1540.1562 535.46875 C 1544.6187 535.36299 1549.2854 535.11204 1554.2188 534.6875 C 1549.3841 534.91475 1544.6567 534.51412 1540.0312 533.625 z M 1436 541.0625 L 1436 562 C 1436 567.25 1460.5 567.91797 1466.625 568 L 1430.9688 568 C 1458.3866 582.79071 1475.9018 595.25858 1544.4688 585.90625 C 1499.7131 580.05141 1467.6555 560.2393 1436 541.0625 z M 563.71875 568 C 545.87124 576.30461 526.35033 582.92109 503.53125 585.90625 C 572.09823 595.25858 589.61336 582.79072 617.03125 568 L 563.71875 568 z M 707.90625 568 C 702.39865 573.57746 697.21983 579.86651 692.5 587 C 716.40874 575.36829 736.23443 570.2538 753.9375 568 L 707.90625 568 z M 792.46875 577.28125 C 725.95098 578.03179 710.44345 643.79656 662.03125 655.96875 C 724.62815 663.94345 711.8175 631.3836 773.4375 620.8125 C 716.2161 624.5562 778.9857 569.7135 785.9375 605.5625 C 804.0586 601.9992 795.94765 592.41535 829.59375 582.65625 C 815.60993 578.77769 803.35348 577.15843 792.46875 577.28125 z M 1255.5312 577.28125 C 1244.6465 577.15843 1232.3901 578.77769 1218.4062 582.65625 C 1252.0524 592.41545 1243.9412 601.9991 1262.0625 605.5625 C 1269.0143 569.7134 1331.7837 624.5561 1274.5625 620.8125 C 1336.1822 631.3836 1323.3719 663.94335 1385.9688 655.96875 C 1337.5565 643.79648 1322.049 578.03179 1255.5312 577.28125 z M 665.5 602.1875 C 644.32819 602.338 621.53871 636.46826 595.40625 640.78125 C 653.43149 635.44097 651.31313 620.24871 676.4375 605.53125 C 672.83687 603.15452 669.19034 602.16127 665.5 602.1875 z M 595.40625 640.78125 C 593.73364 640.93519 592.02468 641.08143 590.25 641.21875 C 591.98252 641.20876 593.70256 641.06243 595.40625 640.78125 z M 1382.5 602.1875 C 1378.8097 602.16126 1375.1631 603.15453 1371.5625 605.53125 C 1396.6868 620.24881 1394.5685 635.44088 1452.5938 640.78125 C 1426.4612 636.46826 1403.6716 602.33806 1382.5 602.1875 z M 1452.5938 640.78125 C 1454.2974 641.06243 1456.0175 641.20876 1457.75 641.21875 C 1455.9753 641.08143 1454.2664 640.93519 1452.5938 640.78125 z "
       id="PhoenixWings" />
    <path
       style="fill:#000000;fill-opacity:1;fill-rule:evenodd;stroke:none;stroke-width:2;stroke-linejoin:round;stroke-miterlimit:4;stroke-opacity:1;stroke-dasharray:none"
       d="M 1057.0938,439.71875 C 1023.0924,445.20314 979.58155,487.66395 937.1875,521.78125 L 989.3125,497.71875 959.1875,529.75 985.21875,517.5625 C 976.67388,534.40527 977.58883,563.53923 949.46875,569.28125 964.11056,583.77194 982.92685,594.06177 1003.9688,598.09375 1014,600 1021,628 1024,628 1027,628 1034,600 1044.0312,598.09375 1065.8794,593.90727 1085.3218,582.97344 1100.1875,567.59375 1025.7951,568.52336 1030.4958,493.04561 1096.2188,476.53125 1091.1498,471.8082 1074.2793,472.69319 1060.4688,474.875 1062.8755,458.78057 1085.6974,451.07251 1102.5625,453.15625 1092.9241,443.37812 1081.189,436.3137 1061.7188,444.4375 L 1057.0938,439.71875 z M 1047.75,453.28125 1052.8125,458.28125 C 1046.2027,463.87886 1040.3298,464.25093 1034.75,459.25 L 1047.75,453.28125 z"
       id="PhoenixHead"
       sodipodi:nodetypes="cccccccsccccccccccc" />
    <path
       style="fill:#000000;fill-opacity:1;stroke:none"
       d="M 400,512 351,565 367,565 C 370,565 371.15,565 373,563 L 410,523 447,563 C 448.85,565 450,565 453,565 L 469,565 420,512 469,459 453,459 C 450,459 448.85,459 447,461 L 410,501 373,461 C 371.15,459 370,459 367,459 L 351,459 400,512 z"
       id="LetterXFill"
       sodipodi:nodetypes="ccccccccccccccccc" />
    <path
       style="fill:#000000;fill-opacity:1;stroke:none"
       d="M 541,459 C 529,459 519,475 519,489 L 519,535 C 519,549 529,565 541,565 L 635,565 C 647,565 657,549 657,535 L 657,489 C 657,475 647,459 635,459 L 541,459 z M 553,473 623,473 C 635,473 638.99471,481.0001 638.875,493.1563 L 638.875,530.8438 C 638.99471,543 635,551 623,551 L 553,551 C 541,551 537.00529,543 537.125,530.8438 L 537.125,493.1563 C 537.00529,481.0001 541,473 553,473 z"
       id="LetterOFill"
       sodipodi:nodetypes="cccccccccccccccccc" />
    <path
       style="fill:#000000;fill-opacity:1;stroke:none"
       d="M 839,459 817,459 C 817,459 819,460 819,461 L 819,543 730,459 709,459 C 709,459 711,460 711,461 L 711,563 C 711,564 709,565 709,565 L 731,565 C 731,565 729,564 729,563 L 729,477 822,565 839,565 C 839,565 837,564 837,563 L 837,461 C 837,460 839,459 839,459 z"
       id="LetterNFill"
       sodipodi:nodetypes="ccccccccccccccccc" />
    <path
       style="fill:#000000;fill-opacity:1;stroke:none"
       d="M 969.28125,396.2812 C 925.981,416.8108 896,460.9225 896,512 896,582.656 953.344,640 1024.0001,640 1094.6561,640 1152.0001,582.656 1152.0001,512 1152.0001,460.9225 1122.0192,416.8108 1078.7189,396.2812 1112.8942,415.4666 1136.0001,452.0438 1136.0001,494 1136.0001,548.5462 1096.937,594.0173 1045.2813,603.9688 1038.3891,605.2965 1030.0001,636 1024.0001,636 1018.0001,636 1009.6109,605.2966 1002.7187,603.9688 951.06315,594.0172 912,548.5462 912,494 912,452.0438 935.1059,415.4666 969.28125,396.2812 z"
       id="RingBorder" />
    <path
       style="fill:#000000;fill-opacity:1;stroke:none"
       d="M 1212,473 1255,473 1255,563 C 1255,564 1253,565 1253,565 L 1275,565 C 1275,565 1273,564 1273,563 L 1273,473 1316,473 C 1320,473 1328,459 1328,459 1328,459 1200,459 1200,459 1200,459 1208,473 1212,473 z"
       id="LetterTFill"
       sodipodi:nodetypes="ccccccccccc" />
    <path
       style="fill:#000000;fill-opacity:1;stroke:none"
       d="M 1433,461 C 1433,460 1435,459 1435,459 L 1413,459 C 1413,459 1415,460 1415,461 L 1415,563 C 1415,564 1413,565 1413,565 L 1435,565 C 1435,565 1433,564 1433,563 L 1433,461 z"
       id="LetterIFill"
       sodipodi:nodetypes="ccccccccc" />
    <path
       style="fill:#000000;fill-opacity:1;stroke:none"
       d="M 1541,459 C 1529,459 1519,475 1519,489 L 1519,535 C 1519,549 1529,565 1541,565 L 1635,565 C 1649,565 1650,534 1650,534 1650,534 1644,551 1623,551 L 1553,551 C 1541,551 1537.0053,543 1537.125,530.8438 L 1537.125,493.1563 C 1537.0053,481.0001 1541,473 1553,473 L 1623,473 C 1644,473 1650,490 1650,490 1650,490 1649,459 1635,459 L 1541,459 z"
       id="LetterCFill"
       sodipodi:nodetypes="ccccccccccccccc" />
  </g>
</svg>
