<?xml version="1.0" encoding="UTF-8"?>
<?xml-stylesheet href="common.css" type="text/css"?>
<svg xmlns="http://www.w3.org/2000/svg" width="256" height="256" version="1.1">
	<rect class="back" width="100%" height="100%"/>
	<path class="sign" d="m 190,129 -23,3 7,69 9,-16 z M 38,120 c 5.3,14 12.6,25.8 21.2,35.3 L 56.2,130.9 C 50.1,127.7 44.1,124 38,120 z m 180,0 c -6.1,4 -12.1,7.7 -18.2,10.9 l -3.1,24.5 C 205.4,145.8 212.7,134 218,120 z M 97.6,146.6 94.2,180.1 c 21.8,8.8 45.9,8.8 67.7,0 l -3.4,-33.6 c -20.3,4.6 -40.6,4.6 -60.9,0 z M 66,129 l 23,3 -7,69 -9,-16 z M 35,111 92,80 c 15,22 57,22 72,0 l 57,31 c -53,17 -133,17 -186,0 z"/>
</svg>
