<?xml version="1.0" encoding="UTF-8"?>
<?xml-stylesheet href="common.css" type="text/css"?>
<svg xmlns="http://www.w3.org/2000/svg" width="256" height="256" version="1.1">
	<rect class="back" width="100%" height="100%"/>
	<path class="sign" d="m 125.5,62.2 c 5.2,-1.1 11.3,9.2 16.2,8.3 5.6,-0.9 6,-4.7 10.7,-5.3 l 14.7,-1.9 c 3.3,-0.4 11.5,11.8 15,31.8 l 10.9,62.7 c 0.5,3.1 -27.1,8.4 -27.7,5.6 l -13,-61.1 -7.9,1.8 14.4,62 c 0.8,3.4 -31.6,10 -32.2,7.1 l -14.1,-61.5 -7.7,1.9 14.6,60.5 c 0.6,2.4 -25.4,7.6 -25.9,5.5 l -14.4,-59 -7.7,1.9 13.7,48.9 c 0.6,2 -18.3,6.6 -19.3,4.1 l -18.2,-47.7 c -4.9,-12.8 -4.4,-24.6 -1.6,-26.4 l 9.1,-6 c 4.1,-2.7 6.7,0.3 11.1,-1.5 4.8,-2 5,-12.8 11.2,-14.6 l 11.1,-3.3 c 4.1,-1.2 6.5,2.3 11.6,0.8 4.9,-1.4 5.3,-10.3 10.7,-11.5 z m 83,58.2 -1.9,56.9 c -0.1,2.3 -7.6,10.3 -10.7,10.5 l -53.1,4.5 c -4,-1.1 -2.2,-9 -0.2,-13.1 l 45.1,-11.3 c 9.8,-2.5 13.2,-7.5 12.7,-10.4 l -8.3,-47.8 z"/>
</svg>
