<?xml version="1.0" encoding="UTF-8"?>
<?xml-stylesheet href="common_glow.css" type="text/css"?>
<svg xmlns="http://www.w3.org/2000/svg" width="256" height="256" version="1.1">
	<rect class="back" width="100%" height="100%"/>
	<path class="sign" d="m88 202a34 34 0 0 0 34 -34v-34h-34a34 34 0 0 0 -34 34 34 34 0 0 0 34 34zm80 0a34 34 0 0 1 -34 -34v-34h34a34 34 0 0 1 34 34 34 34 0 0 1 -34 34zm-80-148a34 34 0 0 1 34 34v34h-34a34 34 0 0 1 -34 -34 34 34 0 0 1 34 -34zm80 0a34 34 0 0 0 -34 34v34h34a34 34 0 0 0 34 -34 34 34 0 0 0 -34 -34z"/>
</svg>
