<?xml version="1.0" encoding="UTF-8"?>
<?xml-stylesheet href="common_glow.css" type="text/css"?>
<svg xmlns="http://www.w3.org/2000/svg" width="256" height="256" version="1.1">
	<rect class="back" width="100%" height="100%"/>
	<path class="sign" d="m 78,78 c -27.6,0 -50,22.4 -50,50 0,27.6 22.4,50 50,50 15.8,0 25.9,-5.3 34.2,-14.5 l 48.7,-53.9 C 166.9,103 168.5,103 178,103 c 13.8,0 25,11.2 25,25 0,13.8 -11.2,25 -25,25 -9.5,0 -11.1,0 -17.1,-6.6 l -10.4,-11.6 -16.3,18.1 9.6,10.6 C 152.1,172.7 162.2,178 178,178 c 27.6,0 50,-22.4 50,-50 0,-27.6 -22.4,-50 -50,-50 -15.8,0 -25.9,5.3 -34.2,14.5 L 95.1,146.4 C 89.1,153 87.5,153 78,153 64.2,153 53,141.8 53,128 c 0,-13.8 11.2,-25 25,-25 9.5,0 11.1,-0 17.1,6.6 l 10.4,11.6 16.3,-18.1 -9.6,-10.6 C 103.9,83.3 93.8,78 78,78 z"/>
</svg>
