<?xml version="1.0" encoding="UTF-8" standalone="no"?>
<!-- Created with Inkscape (http://www.inkscape.org/) -->

<svg
   xmlns:dc="http://purl.org/dc/elements/1.1/"
   xmlns:cc="http://creativecommons.org/ns#"
   xmlns:rdf="http://www.w3.org/1999/02/22-rdf-syntax-ns#"
   xmlns:svg="http://www.w3.org/2000/svg"
   xmlns="http://www.w3.org/2000/svg"
   xmlns:sodipodi="http://sodipodi.sourceforge.net/DTD/sodipodi-0.dtd"
   xmlns:inkscape="http://www.inkscape.org/namespaces/inkscape"
   width="64"
   height="64"
   id="svg2"
   version="1.1"
   inkscape:version="0.48.2 r9819"
   inkscape:export-filename="/tmp/out.tga.png"
   inkscape:export-xdpi="90"
   inkscape:export-ydpi="90"
   sodipodi:docname="New document 1">
  <defs
     id="defs4" />
  <sodipodi:namedview
     id="base"
     pagecolor="#ffffff"
     bordercolor="#666666"
     borderopacity="1.0"
     inkscape:pageopacity="0.0"
     inkscape:pageshadow="2"
     inkscape:zoom="7.9195959"
     inkscape:cx="57.038716"
     inkscape:cy="30.598137"
     inkscape:document-units="px"
     inkscape:current-layer="layer1"
     showgrid="true"
     inkscape:window-width="1259"
     inkscape:window-height="786"
     inkscape:window-x="143"
     inkscape:window-y="172"
     inkscape:window-maximized="0">
    <inkscape:grid
       type="xygrid"
       id="grid2985"
       empspacing="4"
       visible="true"
       enabled="true"
       snapvisiblegridlinesonly="true" />
  </sodipodi:namedview>
  <metadata
     id="metadata7">
    <rdf:RDF>
      <cc:Work
         rdf:about="">
        <dc:format>image/svg+xml</dc:format>
        <dc:type
           rdf:resource="http://purl.org/dc/dcmitype/StillImage" />
        <dc:title></dc:title>
      </cc:Work>
    </rdf:RDF>
  </metadata>
  <g
     inkscape:label="Layer 1"
     inkscape:groupmode="layer"
     id="layer1"
     transform="translate(0,-988.36218)">
    <path
       style="fill:#000000;fill-opacity:1;stroke:none"
       d="M 28 8 L 28 28 L 8 28 L 8 36 L 28 36 L 28 56 L 36 56 L 36 36 L 56 36 L 56 28 L 36 28 L 36 8 L 28 8 z M 32 28 C 34.209139 28 36 29.790861 36 32 C 36 34.209139 34.209139 36 32 36 C 29.790861 36 28 34.209139 28 32 C 28 29.790861 29.790861 28 32 28 z "
       id="rect2995"
       transform="translate(0,988.36218)" />
    <path
       sodipodi:type="arc"
       style="fill:#ffffff;fill-opacity:1;stroke:none"
       id="path2987"
       sodipodi:cx="8"
       sodipodi:cy="32"
       sodipodi:rx="4"
       sodipodi:ry="4"
       d="m 12,32 a 4,4 0 1 1 -8,0 4,4 0 1 1 8,0 z"
       transform="translate(0,988.36218)" />
    <path
       sodipodi:type="arc"
       style="fill:#ffffff;fill-opacity:1;stroke:none"
       id="path2989"
       sodipodi:cx="56"
       sodipodi:cy="32"
       sodipodi:rx="4"
       sodipodi:ry="4"
       d="m 60,32 a 4,4 0 1 1 -8,0 4,4 0 1 1 8,0 z"
       transform="translate(0,988.36218)" />
    <path
       sodipodi:type="arc"
       style="fill:#ffffff;fill-opacity:1;stroke:none"
       id="path2991"
       sodipodi:cx="28"
       sodipodi:cy="8"
       sodipodi:rx="4"
       sodipodi:ry="4"
       d="m 32,8 a 4,4 0 1 1 -8,0 4,4 0 1 1 8,0 z"
       transform="translate(4,988.36218)" />
    <path
       sodipodi:type="arc"
       style="fill:#ffffff;fill-opacity:1;stroke:none"
       id="path2993"
       sodipodi:cx="28"
       sodipodi:cy="56"
       sodipodi:rx="4"
       sodipodi:ry="4"
       d="m 32,56 a 4,4 0 1 1 -8,0 4,4 0 1 1 8,0 z"
       transform="translate(4,988.36218)" />
  </g>
</svg>
