<?xml version="1.0" encoding="UTF-8"?>
<?xml-stylesheet href="common.css" type="text/css"?>
<svg xmlns="http://www.w3.org/2000/svg" width="256" height="256" version="1.1">
	<g class="bullets shining">
		<path d="m 116,48 -84,84 0,24 12,0 16,14 6,-6 -14,-14 0,-12 70,-70 12,0 50,50 6,-6 -20,-20 0,-14 -30,-30 z m 80,70 -6,6 14,14 0,12 -70,70 -12,0 -50,-50 -6,6 20,20 0,14 30,30 24,0 84,-84 0,-24 -12,0 z"/>
		<path transform="translate(64,76)" d="m 37,30 c -3,5 -6,18 -6,27 l 14,0 C 45,48 42,35 39,30 l -2,0 z m 26,0 c -3,5 -6,18 -6,27 l 14,0 C 71,48 68,35 65,30 l -2,0 z m 26,0 c -3,5 -6,18 -6,27 l 14,0 C 97,48 94,35 91,30 l -2,0 z m -59,30 0,36 16,0 0,-36 -16,0 z m 26,0 0,36 16,0 0,-36 -16,0 z m 26,0 0,36 16,0 0,-36 -16,0 z m -52,39 1,3 14,0 1,-3 -16,0 z m 26,0 1,3 14,0 1,-3 -16,0 z m 26,0 1,3 14,0 1,-3 -16,0 z"/>
	</g>
</svg>
