<?xml version="1.0" encoding="UTF-8"?>
<?xml-stylesheet href="common.css" type="text/css"?>
<svg xmlns="http://www.w3.org/2000/svg" width="256" height="256" version="1.1">
	<g class="plasma shining">
		<path d="m 116,48 -84,84 0,24 12,0 16,14 6,-6 -14,-14 0,-12 70,-70 12,0 50,50 6,-6 -20,-20 0,-14 -30,-30 z m 80,70 -6,6 14,14 0,12 -70,70 -12,0 -50,-50 -6,6 20,20 0,14 30,30 24,0 84,-84 0,-24 -12,0 z"/>
		<path d="m 104.6,106 c -8.3,0 -14.6,4.6 -14.6,14.6 0,5.8 2.2,12.8 6.1,20.1 l 3.5,-5.1 c -1.3,-3.3 -2,-6.6 -2,-9.3 0,-6.5 3.8,-9.9 9.9,-9.9 3.6,0 7.7,1.1 12.3,3.3 -18.9,15.1 -29.8,34.7 -29.8,47.7 0,10 6.3,14.6 14.6,14.6 16.8,0 37.7,-16.7 47.7,-29.8 2.2,4.6 3.3,8.7 3.3,12.3 0,6.4 -3.8,9.9 -9.9,9.9 -2.7,0 -6,-0.7 -9.3,-2 l -5.1,3.5 c 7.3,3.9 14.2,6.1 20.1,6.1 8.3,0 14.6,-4.6 14.6,-14.6 0,-6.7 -2.9,-14.9 -8.1,-23.4 5.2,-8.5 8.1,-16.7 8.1,-23.4 0,-10 -6.3,-14.6 -14.6,-14.6 -6.7,0 -14.9,2.9 -23.4,8.1 -8.9,-5.4 -16.9,-8.1 -23.4,-8.1 z m 41.1,7.6 c 6.1,0 9.9,3.5 9.9,9.9 0,3.6 -1.1,7.7 -3.3,12.3 -5.3,-7 -13.6,-14.5 -19.6,-18.6 4.7,-2.3 9.3,-3.6 13,-3.6 z m -21.3,8.7 c 8.3,5 16.7,12.7 23.1,21.7 -9.7,14 -27.6,27.6 -40,27.6 -6.1,0 -9.9,-3.4 -9.9,-9.9 0,-11.8 12.3,-29 26.8,-39.4 z m 1.6,9.7 c -6.1,0 -11,4.9 -11,11 0,6.1 4.9,11 11,11 6.1,0 11,-4.9 11,-11 0,-6.1 -4.9,-11 -11,-11 z"/>
	</g>
</svg>
