<?xml version="1.0" encoding="UTF-8"?>
<?xml-stylesheet href="common.css" type="text/css"?>
<svg xmlns="http://www.w3.org/2000/svg" width="256" height="256" version="1.1">
	<g class="rockets shining">
		<path d="m 116,48 -84,84 0,24 12,0 16,14 6,-6 -14,-14 0,-12 70,-70 12,0 50,50 6,-6 -20,-20 0,-14 -30,-30 z m 80,70 -6,6 14,14 0,12 -70,70 -12,0 -50,-50 -6,6 20,20 0,14 30,30 24,0 84,-84 0,-24 -12,0 z"/>
		<path transform="translate(64,76)" d="M 9,74 33,79 23,50 46,69 54,26 74,69 98,46 91,78 119,74 85,106 89,85 73,95 58,60 53,95 36,86 l 7,20 z"/>
	</g>
</svg>
