<?xml version="1.0" encoding="UTF-8"?>
<?xml-stylesheet href="common.css" type="text/css"?>
<svg xmlns="http://www.w3.org/2000/svg" width="256" height="256" version="1.1">
	<g class="shells shining">
		<path d="m 116,48 -84,84 0,24 12,0 16,14 6,-6 -14,-14 0,-12 70,-70 12,0 50,50 6,-6 -20,-20 0,-14 -30,-30 z m 80,70 -6,6 14,14 0,12 -70,70 -12,0 -50,-50 -6,6 20,20 0,14 30,30 24,0 84,-84 0,-24 -12,0 z"/>
		<path transform="translate(64,78)" d="m 33,26 0,46 22,0 0,-46 z m 40,0 0,46 22,0 0,-46 z m -40,50 0,18.5 -4,0.5 0,7 30,0 0,-7 -4,-0.5 0,-18.5 z m 40,0 0,18.5 -4,0.5 0,7 30,0 0,-7 -4,-0.5 0,-18.5 z"/>
	</g>
</svg>
