<?xml version="1.0" encoding="UTF-8"?>
<?xml-stylesheet href="common.css" type="text/css"?>
<svg xmlns="http://www.w3.org/2000/svg" width="256" height="256" version="1.1">
	<path class="fuelregen shining" d="m 114,16 -23,40 4,9 -54,93.5 -10,1.5 -23,40 14,24 46,0 6,-8 108,0 6,8 46,0 14,-24 -23,-40 -10,-1.5 -54,-93.5 4,-9 -23,-40 -28,0 z m -34,53 -18.5,2 -32,55.5 7.5,17 3,0.5 L 82,71.5 80,69 z m 96,0 -2,2.5 42,72.5 3,-0.5 7.5,-17 L 194.5,71 176,69 z m -90,155 -1,3 11,15 64,0 11,-15 -1,-3 -84,0 z"/>
	<path class="fuelregen darkened" d="m 77,106 0,5 12,5 7.5,9.5 7,-7 L 93,109 Z m 55,4 -32,32 0,51 c 0,3.5 2.5,6 6,6 l 64,0 c 3.5,0 6,-2.5 6,-6 l 0,-77 c 0,-3.5 -2.50032,-6.04729 -6,-6 z m 4,4 23.5,0 0,8 -31.5,2 0,-2 z m -28,4 -12,12 6,6 12,-12 z m 8,18 10,9 28,0 10,-9 2,2 -9,10 0,33 9,10 -2,2 -10,-9 -28,0 -10,9 -2,-2 9,-10 0,-33 -9,-10 z m 11,13 0,31 26,0 0,-31 z"/>
</svg>
