<?xml version="1.0" encoding="UTF-8"?>
<?xml-stylesheet href="common.css" type="text/css"?>
<svg xmlns="http://www.w3.org/2000/svg" width="256" height="256" version="1.1">
	<g class="health shining">
		<path d="m 77,17 8,15 86,0 8,-15 -102,0 z M 46,39 8,63 8,193 46,217 54,204 36,189 36,169 25,159 25,97 36,87 36,67 54,52 46,39 z m 164,0 -8,13 18,15 0,20 11,10 0,62 -11,10 0,20 -18,15 8,13 38,-24 0,-130 -38,-24 z m -125,185 -8,15 102,0 -8,-15 -86,0 z"/>
		<path d="m 81,52 -21,17 0,20 -11,10 0,58 11,10 0,20 21,17 94,0 21,-17 0,-20 11,-10 0,-58 -11,-10 0,-20 -21,-17 -94,0 z"/>
	</g>
	<path class="health_dark darkened" d="m 112,61 -7,32.5 8,14.5 30,0 8,-14.5 -7,-32.5 -32,0 z m -16,42.5 -38,9 0,31 38,9 11,-10.5 42,0 11,10.5 38,-9 0,-31 -38,-9 -11,10.5 -42,0 -11,-10.5 z m 17,44.5 -8,14.5 7,32.5 32,0 7,-32.5 -8,-14.5 -30,0 z"/>
</svg>
