<?xml version="1.0" encoding="UTF-8"?>
<?xml-stylesheet href="common.css" type="text/css"?>
<svg xmlns="http://www.w3.org/2000/svg" width="256" height="256" version="1.1">
	<g class="health shining">
		<path d="m 87,114 -27,17 0,90 27,17 6,-9 -13,-11 0,-14 -8,-7 0,-42 8,-7 0,-14 13,-11 -6,-9 z m 82,0 -6,9 13,11 0,14 8,7 0,42 -8,7 0,14 -13,11 6,9 27,-17 0,-90 -27,-17 z"/>
		<path d="m 116.5,128 -5,23.5 6,10.5 21,0 6,-10.5 -5,-23.5 z m -11.5,30.5 -27,6.5 0,22 27,6.5 8,-7.5 30,0 8,7.5 27,-6.5 0,-22 -27,-6.5 -8,7.5 -30,0 z m 12.5,31.5 -6,10.5 5,23.5 23,0 5,-23.5 -6,-10.5 z"/>
	</g>
</svg>
