<?xml version="1.0" encoding="UTF-8"?>
<?xml-stylesheet href="common.css" type="text/css"?>
<svg xmlns="http://www.w3.org/2000/svg" width="256" height="256" version="1.1">
	<g class="health shining">
		<path d="m 112,85 -7,32.5 8,14.5 30,0 8,-14.5 -7,-32.5 -32,0 z m -16,42.5 -38,9 0,31 38,9 11,-10.5 42,0 11,10.5 38,-9 0,-31 -38,-9 -11,10.5 -42,0 -11,-10.5 z m 17,44.5 -8,14.5 7,32.5 32,0 7,-32.5 -8,-14.5 -30,0 z"/>
		<path d="m 79,62 8,14 82,0 8,-14 -98,0 z m -9,3 -38,24 0,126 38,24 8,-13 -18,-15 0,-20 -11,-10 0,-58 11,-10 0,-20 18,-15 -8,-13 z m 116,0 -8,13 18,15 0,20 11,10 0,58 -11,10 0,20 -18,15 8,13 38,-24 0,-126 -38,-24 z m -99,163 -8,14 98,0 -8,-14 -82,0 z"/>
	</g>
</svg>
