<?xml version="1.0" encoding="UTF-8"?>
<?xml-stylesheet href="common.css" type="text/css"?>
<svg xmlns="http://www.w3.org/2000/svg" width="256" height="256" version="1.1">
	<path class="shield shining" d="m 114,16 -23,40 4,9 -54,93.5 -10,1.5 -23,40 14,24 46,0 6,-8 108,0 6,8 46,0 14,-24 -23,-40 -10,-1.5 -54,-93.5 4,-9 -23,-40 -28,0 z m -34,53 -18.5,2 -32,55.5 7.5,17 3,0.5 L 82,71.5 80,69 z m 96,0 -2,2.5 42,72.5 3,-0.5 7.5,-17 L 194.5,71 176,69 z m -90,155 -1,3 11,15 64,0 11,-15 -1,-3 -84,0 z"/>
	<path class="shield darkened" d="m 97.7,199 19,0 0,-15.2 -10.3,0 L 84.8,146 90,137.1 76.9,129.5 67.4,146 Z m 41.6,0 19,0 30.3,-53 -9.5,-16.5 -13.1,7.6 5.2,8.9 -21.6,37.8 -10.3,0 z m -38.2,-81.6 5.3,-9.2 43.2,0 5.3,9.2 13,-7.6 -9.6,-16.8 -60.6,0 -9.6,16.8 z"/>
</svg>
