<?xml version="1.0" encoding="UTF-8"?>
<?xml-stylesheet href="common.css" type="text/css"?>
<svg xmlns="http://www.w3.org/2000/svg" width="256" height="256" version="1.1">
	<path class="jetpack shining" d="m 106,32 -34,32 -10,76 60,0 2,-108 z m 26,0 2,108 60,0 -10,-76 -34,-32 z m -59,114 -1,12 40,0 0,-12 z m 71,0 0,12 40,0 -1,-12 z m -64,18 c -6,2 -10,6 -10,14 0,8 12,32 22,54 10,-22 22,-46 22,-54 0,-8 -4,-12 -10,-14 8,12 -6,26 -12,26 -6,0 -20,-14 -12,-26 z m 72,0 c -6,2 -10,6 -10,14 0,8 12,32 22,54 10,-22 22,-46 22,-54 0,-8 -4,-12 -10,-14 8,12 -6,26 -12,26 -6,0 -20,-14 -12,-26 z"/>
</svg>
