<?xml version="1.0" encoding="UTF-8"?>
<?xml-stylesheet href="common.css" type="text/css"?>
<svg xmlns="http://www.w3.org/2000/svg" width="256" height="256" version="1.1">
	<path class="strength shining" d="m 114,16 -23,40 4,9 -54,93.5 -10,1.5 -23,40 14,24 46,0 6,-8 108,0 6,8 46,0 14,-24 -23,-40 -10,-1.5 -54,-93.5 4,-9 -23,-40 -28,0 z m -34,53 -18.5,2 -32,55.5 7.5,17 3,0.5 L 82,71.5 80,69 z m 96,0 -2,2.5 42,72.5 3,-0.5 7.5,-17 L 194.5,71 176,69 z m -90,155 -1,3 11,15 64,0 11,-15 -1,-3 -84,0 z"/>
	<path class="strength darkened" d="m 129.5,102.1 c 3.8,-0.8 8.3,6.7 11.9,6.1 4.1,-0.7 4.4,-3.4 7.8,-3.9 l 10.7,-1.4 c 2.4,-0.3 8.4,8.6 11,23.2 l 8,45.7 c 0.4,2.3 -19.8,6.1 -20.2,4.1 l -9.5,-44.6 -5.8,1.3 10.5,45.2 c 0.6,2.5 -23,7.3 -23.5,5.2 l -10.3,-44.9 -5.6,1.4 10.7,44.1 c 0.4,1.8 -18.5,5.6 -18.9,4 l -10.5,-43.1 -5.6,1.4 10,35.7 c 0.4,1.5 -13.4,4.8 -14,3 l -13.2,-34.8 c -3.6,-9.4 -3.2,-17.9 -1.2,-19.2 l 6.7,-4.4 c 3,-2 4.9,0.2 8.1,-1.1 3.5,-1.5 3.7,-9.3 8.2,-10.7 l 8.1,-2.4 c 3,-0.9 4.8,1.7 8.5,0.6 3.6,-1 3.9,-7.5 7.8,-8.4 z M 190,144.5 l -1.4,41.5 c -0.1,1.7 -5.6,7.5 -7.8,7.7 L 142.1,197 c -2.9,-0.8 -1.6,-6.6 -0.1,-9.6 l 32.9,-8.2 c 7.2,-1.8 9.6,-5.5 9.3,-7.6 l -6.1,-34.9 z"/>
</svg>
