<?xml version="1.0" encoding="UTF-8"?>
<?xml-stylesheet href="common.css" type="text/css"?>
<svg xmlns="http://www.w3.org/2000/svg" width="256" height="256" version="1.1">
	<g class="armor shining">
		<path d="m 70,88 -12,27 70,56 70,-56 -12,-27 -25,10 -3,14 -30,16 L 98,112 95,98 70,88 z m 12,57 15,46 27,17 -2,-32 -40,-31 z m 92,0 -40,31 -2,32 27,-17 15,-46 z"/>
		<path d="m 54,57 -26,58 10,26 9,3 9,21 15.5,0 L 49,116 66,78 123,85 123,68 54,57 z m 148,0 -69,11 0,17 57,-7 17,38 -22.5,49 15.5,0 9,-21 9,-3 10,-26 -26,-58 z M 60.5,175 76,211 l 52,34 52,-34 15.5,-36 -15.5,0 -9,20 -43,26.0625 L 85,195 76,175 60.5,175 z"/>
	</g>
</svg>
