<?xml version="1.0" encoding="UTF-8"?>
<?xml-stylesheet href="common.css" type="text/css"?>
<svg xmlns="http://www.w3.org/2000/svg" width="256" height="256" version="1.1">
	<g class="armor shining">
		<path d="m 40,12 -32,74 10,26 9,3 7.5,17 15.5,0 -21,-45 24,-52 46,4 0,-19 z m 176,0 -59,8 0,19 46,-4 24,52 -21,45 15.5,0 7.5,-17 9,-3 10,-26 z M 52.5,172 68,204 l 60,39 60,-39 15.5,-32 -15.5,0 -9,16 -51,28 -51,-28 -9,-16 z"/>
		<path d="m 66,52 -17,38 36,79 43,26 43,-26 36,-79 -17,-38 -62,9 z"/>
	</g>
	<path class="armor darkened" d="M 70,62 58,89 128,145 198,89 186,62 161,72 158,86 128,102 98,86 95,72 70,62 z m 12,57 15,46 27,17 -2,-32 -40,-31 z m 92,0 -40,31 -2,32 27,-17 15,-46 z"/>
</svg>
