<?xml version="1.0" encoding="UTF-8"?>
<?xml-stylesheet href="common.css" type="text/css"?>
<svg xmlns="http://www.w3.org/2000/svg" width="256" height="256" version="1.1">
	<g class="armor shining">
		<path d="m 84,142 -9,20 53,43 53,-43 -9,-20 -19,7.5 -2,10.5 -23,12 -23,-12 -2,-10.5 -19,-7.5 z m 9,43 11.5,35 20.5,13 -1.5,-24 L 93,185 z m 70,0 -30.5,24 -1.5,24 20.5,-13 11.5,-35 z"/>
		<path d="m 72,119 -20,44 7.5,19.5 7,2 6.5,15.5 12,0 -17,-36 13,-29 22,3 0,-14 -31,-5 z m 112,0 -31,5 0,14 22,-3 13,29 -17,36 12,0 6.5,-15.5 7,-2 7.5,-19.5 -20,-44 z"/>
	</g>
</svg>
