# Blender v2.80 (sub 75) OBJ File: ''
# www.blender.org
mtllib crystal.mtl
o entity0_brush1
v -64.000000 -16.000000 15.999999
v -64.000000 128.000000 16.000006
v -64.000000 128.000000 0.000006
v -64.000000 -16.000000 -0.000001
v -56.000000 141.333328 -15.999994
v -48.000000 128.000000 -31.999994
v -48.000000 -15.999999 -32.000000
v -56.000000 -29.333334 -16.000002
v -28.799999 -74.666664 -16.000004
v -22.400000 -85.333336 15.999996
v -36.571430 173.714279 16.000008
v -36.571430 173.714279 -15.999992
v -16.000000 -16.000002 64.000000
v -16.000000 128.000000 64.000008
v -32.000000 128.000000 -47.999996
v -32.000000 -15.999998 -48.000000
v -16.000000 -87.111115 21.333330
v -16.000000 184.000000 30.400007
v -16.000000 -38.222218 -50.666668
v -16.000000 -69.333336 -32.000004
v -16.000000 184.000000 -30.399992
v -16.000000 150.222229 -50.666660
v 12.800000 198.399994 21.760010
v 12.800000 198.399994 -21.759991
v 22.857143 128.000000 -57.142853
v 22.857143 -15.999997 -57.142857
v 16.000000 -29.333332 -56.000000
v 16.000000 141.333328 -55.999992
v 16.000000 -16.000002 64.000000
v 16.000000 128.000000 64.000008
v 16.000000 -87.111115 21.333330
v 16.000000 192.000000 25.600008
v 28.799999 -74.666664 -16.000004
v 22.400000 -85.333336 15.999996
v 16.000000 -69.333336 -32.000004
v 16.000000 192.000000 -25.599993
v 58.666668 -24.888889 15.999999
v 59.428570 -16.000000 20.571428
v 48.000000 128.000000 32.000004
v 51.200001 -15.999999 -28.799999
v 53.333332 -33.777779 -16.000002
v 48.000000 128.000000 -31.999994
v 59.428570 105.142860 20.571432
v 51.200001 121.599998 -28.799994
v -64.000000 -16.000000 -0.000001
v -64.000000 128.000000 0.000006
v -64.000000 128.000000 -15.999994
v -64.000000 -15.999999 -16.000000
v -56.000000 -29.333334 -16.000002
v -56.000000 141.333328 -15.999994
v -48.000000 128.000000 -31.999994
v -48.000000 -15.999999 -32.000000
vt -16.000000 16.000000
vt -16.000000 -128.000000
vt 0.000000 -128.000000
vt 0.000000 16.000000
vt 16.000000 -141.333328
vt 32.000000 -128.000000
vt 32.000000 16.000000
vt 16.000000 29.333334
vt 16.000000 74.666664
vt -16.000000 85.333336
vt -16.000000 -173.714279
vt 16.000000 -173.714279
vt -64.000000 16.000000
vt -64.000000 -128.000000
vt 48.000000 -128.000000
vt 48.000000 16.000000
vt -21.333334 87.111115
vt -30.400000 -184.000000
vt 50.666668 38.222221
vt 32.000000 69.333336
vt 30.400000 -184.000000
vt 50.666668 -150.222229
vt 12.800000 21.760000
vt 12.800000 -21.760000
vt -16.000000 -30.400000
vt -36.571430 -16.000000
vt -36.571430 16.000000
vt -16.000000 30.400000
vt 22.857143 -128.000000
vt 22.857143 16.000000
vt 16.000000 29.333334
vt -16.000000 38.222221
vt -32.000000 16.000000
vt -32.000000 -128.000000
vt -16.000000 -150.222229
vt 16.000000 -141.333328
vt 16.000000 16.000000
vt 16.000000 -128.000000
vt -16.000000 -128.000000
vt -16.000000 16.000000
vt 16.000000 87.111115
vt -16.000000 87.111115
vt 16.000000 -192.000000
vt 12.800000 -198.399994
vt -16.000000 -184.000000
vt 28.799999 -16.000000
vt 22.400000 16.000000
vt 16.000000 21.333334
vt -16.000000 21.333334
vt -22.400000 16.000000
vt -28.799999 -16.000000
vt -16.000000 -32.000000
vt 16.000000 -32.000000
vt 16.000000 69.333336
vt -16.000000 69.333336
vt 12.800000 -198.399994
vt 16.000000 -192.000000
vt -16.000000 -184.000000
vt -16.000000 24.888889
vt -20.571428 16.000000
vt -64.000000 16.000000
vt -21.333334 87.111115
vt -16.000000 85.333336
vt -32.000000 -128.000000
vt -25.600000 -192.000000
vt -64.000000 -128.000000
vt 28.799999 16.000000
vt 16.000000 33.777779
vt 16.000000 74.666664
vt 32.000000 69.333336
vt 56.000000 29.333334
vt 57.142857 16.000000
vt 25.600000 -192.000000
vt 32.000000 -128.000000
vt 57.142857 -128.000000
vt 56.000000 -141.333328
vt -20.571428 -105.142860
vt 28.799999 -121.599998
vt 21.760000 -198.399994
vt -21.760000 -198.399994
vt 0.000000 16.000000
vt 0.000000 -128.000000
vt 16.000000 -128.000000
vt 16.000000 16.000000
vt 16.000000 29.333334
vt 16.000000 -141.333328
vt 32.000000 -128.000000
vt 32.000000 16.000000
vn -1.0000 0.0000 0.0000
vn -0.8944 0.0000 -0.4472
vn -0.8575 -0.5145 -0.0000
vn -0.8575 0.5145 -0.0000
vn -0.7071 -0.0000 0.7071
vn -0.7071 0.0000 -0.7071
vn -0.6509 -0.3906 0.6509
vn -0.6509 0.3906 0.6509
vn -0.6509 -0.3906 -0.6509
vn -0.6509 0.3906 -0.6509
vn -0.4472 0.8944 0.0000
vn -0.1644 0.0000 -0.9864
vn 0.0000 -0.0000 1.0000
vn 0.0000 -0.5145 0.8575
vn 0.0000 0.5145 0.8575
vn 0.0000 -0.9487 -0.3162
vn 0.0000 -0.5145 -0.8575
vn 0.0000 0.5145 -0.8575
vn 0.6509 -0.3906 0.6509
vn 0.6509 0.3906 0.6509
vn 0.6509 -0.3906 -0.6509
vn 0.6509 0.3906 -0.6509
vn 0.7071 -0.0000 0.7071
vn 0.7071 0.0000 -0.7071
vn 0.8575 -0.5145 -0.0000
vn 0.8944 0.4472 0.0000
vn 0.9864 0.0000 -0.1644
vn 0.8944 -0.0000 0.4472
usemtl __TB_empty
s off
f 1/1/1 2/2/1 3/3/1 4/4/1
f 5/5/2 6/6/2 7/7/2 8/8/2 4/4/2 3/3/2
f 9/9/3 10/10/3 1/1/3 4/4/3 8/8/3
f 11/11/4 12/12/4 5/5/4 3/3/4 2/2/4
f 13/13/5 14/14/5 2/2/5 1/1/5
f 15/15/6 16/16/6 7/7/6 6/6/6
f 10/10/7 17/17/7 13/13/7 1/1/7
f 14/14/8 18/18/8 11/11/8 2/2/8
f 19/19/9 20/20/9 9/9/9 8/8/9 7/7/9 16/16/9
f 21/21/10 22/22/10 15/15/10 6/6/10 5/5/10 12/12/10
f 23/23/11 24/24/11 21/25/11 12/26/11 11/27/11 18/28/11
f 25/29/12 26/30/12 27/31/12 19/32/12 16/33/12 15/34/12 22/35/12 28/36/12
f 29/37/13 30/38/13 14/39/13 13/40/13
f 31/41/14 29/37/14 13/40/14 17/42/14
f 32/43/15 23/44/15 18/45/15 14/39/15 30/38/15
f 33/46/16 34/47/16 31/48/16 17/49/16 10/50/16 9/51/16 20/52/16 35/53/16
f 27/31/17 35/54/17 20/55/17 19/32/17
f 24/56/18 36/57/18 28/36/18 22/35/18 21/58/18
f 37/59/19 38/60/19 29/61/19 31/62/19 34/63/19
f 39/64/20 32/65/20 30/66/20
f 40/67/21 41/68/21 33/69/21 35/70/21 27/71/21 26/72/21
f 36/73/22 42/74/22 25/75/22 28/76/22
f 38/60/23 43/77/23 39/64/23 30/66/23 29/61/23
f 44/78/24 40/67/24 26/72/24 25/75/24 42/74/24
f 41/68/25 37/59/25 34/63/25 33/69/25
f 43/77/26 44/78/26 42/74/26 36/73/26 24/79/26 23/80/26 32/65/26 39/64/26
f 38/60/27 37/59/27 41/68/27 40/67/27 44/78/27 43/77/27
s 1
f 45/81/1 46/82/1 47/83/1 48/84/1
f 49/85/3 45/81/3 48/84/3
f 46/82/4 50/86/4 47/83/4
f 51/87/6 52/88/6 48/84/6 47/83/6
f 52/88/9 49/85/9 48/84/9
f 50/86/10 51/87/10 47/83/10
f 46/82/28 45/81/28 49/85/28 52/88/28 51/87/28 50/86/28
