<?xml version="1.0" encoding="UTF-8"?>
<svg xmlns="http://www.w3.org/2000/svg" xmlns:xlink="http://www.w3.org/1999/xlink" version="1.1" width="2560" height="2048">
	<defs>
		<text id="version" x="756" y="432" text-align="center" text-anchor="middle" font-size="64px" font-family="Xolonium">LUMA</text>
		<g id="wings">
			<path id="wing" d="m622,220.8c-1.8,57.4,32.9,107.6,83.1,128.2-33.9-6.5-64.4-4.7-70.1-20.6-9.1-25.3-35.7-19.5-35.5,5.3-15.9-0.6-41.5-6.8-66.4,23.1-0.3-69.3,88.7-51.4,68.3-92.2-11.5-23-47.1-3.6-33.2,11.7-43.7,8.6-78.7-8-143.8,23.7,57.9-87.5,183.2-49.3,177.4-97-4.4-36.5-59.1-17.9-40.3,5.9-32.9,11.1-92.8-23.7-186-6,86.9-71.8,245.6-13.5,252.3-59.8,5.2-36.5-48.6-37.4-47-7.3-69.5-34.2-90.8-6.9-182.7-37.8,106.8-1.4,205.2-40.05,296.9,7.5-42.1,21.55-71.4,64.7-73,115.3zm-73.1-69.4c-72.1-4.1-67.8,6.7-105.8,2.9,9.6-35-83.4-18.2-24.9,4.2-122.4-6-120.2,41.3-243.2,18.5,138.9-14.5,251.7-95.7,373.9-25.6zm-199.2,59.9c-33.6,14.8-54,42.5-124,36.5,47.2,2.2,83.7-55.8,124-36.5zm186.3,13c-71.8,7.7-47.6,20.7-82.3,23.2,4.3-33.9-76.6-6.3-21.7,7.1-109.4,15.8-83.3,59.8-196.5,44.4,114.6-15,146-121.5,300.5-74.7zm25.5,71.4c-33.6,9.8-25.5,19.3-43.7,22.9-7-35.8-69.7,19-12.5,15.3-61.6,10.6-48.8,43.1-111.4,35.2,56.3-14.2,68.1-100.9,167.6-73.3zm-153.2,22.9c-25.8,15.1-22.8,30.8-86.2,35.7,32.9-0.2,60.6-52.6,86.2-35.7z"/>
			<use xlink:href="#wing" transform="matrix(-1,0,0,1,1512,0)"/>
		</g>
		<path id="head" d="m789.1,152.7c-34,5.5-77.5,47.9-119.9,82.1l52.1-24.1-30.1,32,26-12.2c-8.5,16.8-7.6,46-35.8,51.7,14.6,14.5,33.5,24.8,54.5,28.8,10,1.9,17,29.9,20,29.9s10-28,20-29.9c21.8-4.2,41.3-15.1,56.2-30.5-74.4,0.9-69.7-74.5-4-91.1-5.1-4.7-21.9-3.8-35.8-1.7,2.4-16.1,25.2-23.8,42.1-21.7-9.6-9.8-21.4-16.8-40.8-8.7l-4.6-4.7zm-9.3,13.6,5.1,5c-6.6,5.6-12.5,6-18.1,1l13-6z"/>
		<path id="text" d="m46,169c9,0,28,1,33,6l50,50-50,50c-5,5-24,6-33,6h52c4,0,6-1,9-4l37-37,37,37c3,3,5,4,9,4h52c-9,0-28-1-33-6l-50-50,50-50c5-5,24-6,33-6h-52c-4,0-6,1-9,4l-37,37-37-37c-3-3-5-4-9-4h-52zm226,0c-12,0-24,16-24,32v48c0,16,12,32,24,32h96c12,0,24-16,24-32v-48c0-16-12-32-24-32h-96zm136,0c9,0,32,1,32,6v100c0,5-23,6-32,6h88c-9,0-32-1-32-6v-77l79,79c3,3,5,4,9,4h52c-9,0-32-1-32-6v-100c0-5,23-6,32-6h-88c9,0,32,1,32,6v77l-79-79c-3-3-5-4-9-4h-52zm488,0c9,0,29,1,33,6,11,14,12,14,17,14h38v86c0,5-23,6-32,6h88c-9,0-32-1-32-6v-86h38c6,0,7,0,17-14,4-5.3,24-6,33-6h-200zm216,0c9,0,32,1,32,6v100c0,5-23,6-32,6h88c-9,0-32-1-32-6v-100c0-5,23-6,32-6h-88zm160,0c-12,0-24,16-24,32v48c0,16,12,32,24,32h94c18,0,18-24,18-48-3,15-12,28-28,28h-72c-10,0-12-8-12-16v-40c0-8,2-16,12-16h72c16,0,25,13,28,28,0-24,0-48-18-48h-94zm-988,20,72,0c10,0,12,8,12,16v40c0,8-2,16-12,16h-72c-10,0-12-8-12-16v-40c0-8,2-16,12-16z"/>
		<path id="ring" d="m701.4,109.2c-43.4,20.5-73.4,64.6-73.4,115.8,0,70.7,57.3,128,128,128s128-57.3,128-128c0-51.2-30-95.3-73.4-115.8,34.2,19.1,57.4,55.8,57.4,97.8,0,55.1-40,101-91,110-6,1-15,32-21,32s-15-31-21-32c-51-9-91-54.9-91-110,0-42,23.2-78.7,57.4-97.8z"/>
		<mask id="textMask">
			<use xlink:href="#text" fill="#ffffff" stroke="#000000" stroke-width="5"/>
		</mask>
		<mask id="ringMask">
			<use xlink:href="#ring" fill="#ffffff" stroke="#000000" stroke-width="5"/>
		</mask>
		<radialGradient id="backFill">
			<stop stop-color="#1f7fff" stop-opacity="0" offset=".31"/>
			<stop stop-color="#1f7fff" stop-opacity=".25" offset=".44"/>
			<stop stop-color="#1f7fff" stop-opacity="0" offset=".85"/>
		</radialGradient>
		<linearGradient id="headStroke" x2="0" y2="1">
			<stop stop-color="#ff9f5f" offset="0"/>
			<stop stop-color="#ff7f2f" offset=".25"/>
			<stop stop-color="#3f0f00" offset="1"/>
		</linearGradient>
		<linearGradient id="headFill" x2="0" y2="1">
			<stop stop-color="#3f0b00" offset="0"/>
			<stop stop-color="#080100" offset="1"/>
		</linearGradient>
		<linearGradient id="textStroke" x2="0" y2="1">
			<stop stop-color="#bfdfff" offset="0"/>
			<stop stop-color="#5fafff" offset=".2"/>
			<stop stop-color="#5fafff" offset=".8"/>
			<stop stop-color="#bfdfff" offset="1"/>
		</linearGradient>
		<linearGradient id="textFill" x2="0" y2="1">
			<stop stop-color="#0f416f" offset="0"/>
			<stop stop-color="#02070d" offset="1"/>
		</linearGradient>
		<linearGradient id="wingStroke" xlink:href="#headStroke" y1=".1" x2="0" y2=".8"/>
		<linearGradient id="wingFill" xlink:href="#headFill" y1=".1" x2="0" y2=".8"/>
		<linearGradient id="ringStroke" xlink:href="#textStroke" y1=".3" x2="0" y2="1"/>
		<linearGradient id="ringFill" xlink:href="#textFill" y1=".3" x2="0" y2="1"/>
		<filter id="glow" x="-1" y="-1" width="3" height="3">
			<feGaussianBlur stdDeviation="16"/>
		</filter>
		<filter id="blur" x="-0.5" y="-0.5" width="2" height="2">
			<feGaussianBlur stdDeviation="0.7"/>
		</filter>
	</defs>
	<g filter="url(#blur)">
		<rect y="-50" x="500" width="512" height="512" fill="url(#backFill)"/>
		<use xlink:href="#wings" fill="url(#wingStroke)" filter="url(#glow)" opacity=".6"/>
		<use xlink:href="#wings" fill="url(#wingFill)" stroke="url(#wingStroke)" stroke-width="2"/>
		<use xlink:href="#head" fill="url(#headStroke)" filter="url(#glow)" opacity=".6"/>
		<use xlink:href="#head" fill="url(#headFill)" stroke="url(#headStroke)" stroke-width="2"/>
		<use xlink:href="#text" fill="#1f7fff" filter="url(#glow)"/>
		<use xlink:href="#text" fill="url(#textStroke)"/>
		<use xlink:href="#text" fill="url(#textFill)" stroke="#00001f" stroke-width="8" mask="url(#textMask)"/>
		<use xlink:href="#ring" fill="#1f7fff" filter="url(#glow)"/>
		<use xlink:href="#ring" fill="url(#ringStroke)"/>
		<use xlink:href="#ring" fill="url(#ringFill)" stroke="#00001f" stroke-width="8" mask="url(#ringMask)"/>
		<use xlink:href="#version" fill="#1f7fff" stroke="#1f7fff" stroke-width="3" filter="url(#glow)"/>
		<use xlink:href="#version" stroke="url(#textStroke)" stroke-width="5"/>
		<use xlink:href="#version" fill="url(#ringFill)" stroke="#00001f"/>
	</g>
</svg>
