<?xml version="1.0" encoding="UTF-8"?>
<?xml-stylesheet href="common_n.css" type="text/css"?>
<svg xmlns="http://www.w3.org/2000/svg" version="1.1" width="384" height="384">
	<path class="dialog" d="m 17,87 0,259 17,14 316,0 17,-14 0,-259 z"/>
	<path class="header" d="m 89,14 -25,52 0,21 256,0 0,-21 -25,-52 z"/>
	<g class="glowing">
		<path class="frame" d="M 86,10 50,58 c -4.5,6 -8,7.5 -14,8 l -24,2 0,286 22,22 4,0 13,-13 282,0 13,13 4,0 22,-22 0,-286 -24,-2 c -6,-0.5 -9.5,-2 -14,-8 L 298,10 z m 7,8 198,0 20,47 0,3 -19,16 -200,0 -19,-16 0,-3 z m -66,72 330,0 5,4 0,250 -16,13 -308,0 -16,-13 0,-250 z"/>
		<path class="detail" d="M 36,13 15,34 15,64.5 33,63 c 9,-0.75 11,-2 14,-6 L 80,13 z m 16,353 -3,3 c 39,7 41,7 45,7 l 196,0 c 4,0 6,0 45,-7 l -3,-3 z"/>
	</g>
</svg>
