<?xml version="1.0" encoding="UTF-8"?>
<?xml-stylesheet href="common_n.css" type="text/css"?>
<svg xmlns="http://www.w3.org/2000/svg" version="1.1" width="96" height="96">
	<defs>
		<clipPath id="clip">
			<path d="M 2.5,0 46,58 c 4.5,6 8,7.5 14,8 l 36,3 0,-69 z"/>
		</clipPath>
	</defs>
	<path class="detail glowing" clip-path="url(#clip)" d="m 16,13 33,44 c 3,4 5,5.25 14,6 L 81,64.5 81,34 60,13 16,13 z M 49.5,27 56,32 62.5,27 65,29.5 60,36 65,42.5 62.5,45 56,40 49.5,45 47,42.5 52,36 47,29.5 49.5,27 z"/>
</svg>
