<?xml version="1.0" encoding="UTF-8"?>
<?xml-stylesheet href="common.css" type="text/css"?>
<svg xmlns="http://www.w3.org/2000/svg" width="128" height="128" version="1.1">
	<path class="gametype shining" d="m 97,16 c -6.2,5.8 -13.7,8.2 -22,10 l 5.1,18.9 c 2.6,-0.5 4.7,-1.1 7.8,-2.3 L 82.3,27.3 c 5.5,-1.5 9.5,-3.5 13.4,-6.3 l 5.7,14.2 c -4.8,3.8 -8.7,5.8 -13.5,7.4 L 94,59.5 c 6.1,-2.8 9.8,-5.4 13.5,-9 l 5.2,13.2 c -2.8,3.8 -8.4,7.8 -13.4,10.4 L 94,59.5 c -2.3,1.2 -6.1,2.7 -9,3.5 L 65,18 c -17,-1 -31,4 -41,13 L 48,92 C 57,80 78,67 85,67 90,67 87,73 81,79.1 90,65.5 76,72 71,77.5 77,91 110,75 116,64 L 97,16 z m -34,5 6,13 c -6.5,0.5 -13,2 -18,4 L 59,56.5 c 4.9,-2.1 11.9,-4.5 17.5,-5.2 L 82.3,64.3 c -5.2,1.2 -12.4,5.3 -16.6,8.2 L 59,56.5 c -6,3 -12,6.4 -17.5,11 L 34,48 c 5,-4 10,-7 17,-10 l -6,-15 c 6,-2 12,-2 18,-2 z m -42.5,9 -4.5,2 L 44,112 l 7.5,-3 -31,-79 z"/>
</svg>
