<?xml version="1.0" encoding="UTF-8"?>
<?xml-stylesheet href="common.css" type="text/css"?>
<svg xmlns="http://www.w3.org/2000/svg" width="128" height="128" version="1.1">
	<path class="gametype shining" d="m 43,16 -4,10 7.5,-1 1,-4 33,0 1,4 7.5,1 -4,-10 z m 6,7 c -3.8,13.8 -4.7,41.7 -3.5,56 l 8.5,0 c 0,-21 0.5,-27 2,-39 l 16,0 c 1.5,12 2,18 2,39 l 8.5,0 C 83.7,64.7 82.8,36.8 79,23 z m -3.5,3.5 -14,2 C 28,37 24.5,55.5 25,71 29.5,73.5 37,75 42.5,75 42,55 43,38 45.5,26.5 z m 37,0 C 85,38 86,55 85.5,75 91,75 98.5,73.5 103,71 103.5,55.5 100,37 96.5,28.5 z M 64,48 c -3.9,0 -7,3.1 -7,7 l -0.8,9.4 C 56.9,60.7 60.1,58 64,58 c 3.9,0 7.1,2.7 7.8,6.4 L 71,55 c 0,-3.9 -3.1,-7 -7,-7 z m 0,12 c -3.3,0 -6,2.7 -6,6 l 0,3.7 C 59.5,68.1 61.6,67 64,67 c 2.4,0 4.5,1.1 6,2.7 L 70,66 c 0,-3.3 -2.7,-6 -6,-6 z m 0,8 c -4.4,0 -8,3.6 -8,8 l 0,5 c 0,4.4 3.6,8 8,8 4.4,0 8,-3.6 8,-8 l 0,-5 c 0,-4.4 -3.6,-8 -8,-8 z m 0,5 c 3.9,0 7.2,2.8 7.8,6.5 C 71.1,76.4 67.8,74 64,74 60.2,74 56.9,76.4 56.2,79.5 56.8,75.8 60.1,73 64,73 z m 0,3.5 c 3,0 5.5,2.2 5.5,5 0,2.8 -2.5,5 -5.5,5 -3,0 -5.5,-2.2 -5.5,-5 0,-2.8 2.5,-5 5.5,-5 z m -23,2 -9.3,0.9 L 24.5,83 18,93 l 1,2 L 27,97 36,82 z m 46,0 5,3.5 9,15 8,-2 1,-2 -6.5,-10 -7.3,-3.7 z m -50,5.5 -6.5,11 17,9 4,-13.5 z m 54,0 -14.5,6.5 4,13.5 17,-9 z m -37,6 -5,17 4,5 22,0 4,-5 -5,-17 c -4,1.5 -7,2 -10,2 -3,0 -6,-0.5 -10,-2 z"/>
</svg>
