<?xml version="1.0" encoding="UTF-8"?>
<?xml-stylesheet href="common.css" type="text/css"?>
<svg xmlns="http://www.w3.org/2000/svg" width="128" height="128" version="1.1">
	<path class="gametype shining" d="m 39,18 -13,13 0,1 3,5 16,-16 -5,-3 z m 49,0 -5,3 16,16 3,-5 0,-1 -13,-13 z m -35,2 c -2,0 -3,0 -5,2 L 30,40 c -2,2 -2,3 -2,5 l 0,8 c 0,8 0,8 -4,10 l 0,8 c 0,4 0,6 2,9 l 14,21 c 2,3 3,3 7,3 l 9,0 1,7 14,0 1,-7 9,0 c 4,0 5,0 7,-3 l 14,-21 c 2,-3 2,-5 2,-9 l 0,-8 c -4,-2 -4,-2 -4,-10 l 0,-8 c 0,-2 0,-3 -2,-5 L 80,22 c -2,-2 -3,-2 -5,-2 z m -3.5,12 29,0 C 89,37 96,48 96,60 c 0,8 -3,15 -7.75,20.5 l 4,6.4 -0.4,2.1 -11,7 -2,-0.4 L 74,88 49.5,88 C 39,83 32,72 32,60 32,48 39,37 49.5,32 z m -9.5,14 -3,3 0,21 3,3 48,0 3,-3 0,-21 -3,-3 z m 3.5,2 6,0 1.5,1.5 -1.5,1.5 -6,0 -1.5,-1.5 z m 20,0 6,0 1.5,1.5 -1.5,1.5 -6,0 -1.5,-1.5 z m 15,0 6,0 1.5,1.5 -1.5,1.5 -6,0 -1.5,-1.5 z m -37,2 1.5,1.5 0,6 -1.5,1.5 -1.5,-1.5 0,-6 z m 10,0 1.5,1.5 0,6 -1.5,1.5 -1.5,-1.5 0,-6 z m 20,0 1.5,1.5 0,6 -1.5,1.5 -1.5,-1.5 0,-6 z m 5,0 1.5,1.5 0,6 -1.5,1.5 -1.5,-1.5 0,-6 z m 10,0 1.5,1.5 0,6 -1.5,1.5 -1.5,-1.5 0,-6 z m -31.5,4 3,0 0,3 -3,0 z m 8.5,4 6,0 1.5,1.5 -1.5,1.5 -6,0 -1.5,-1.5 z m 15,0 6,0 1.5,1.5 -1.5,1.5 -6,0 -1.5,-1.5 z m -37,2 1.5,1.5 0,6 -1.5,1.5 -1.5,-1.5 0,-6 z m 10,0 1.5,1.5 0,6 -1.5,1.5 -1.5,-1.5 0,-6 z m 10,0 1.5,1.5 0,6 -1.5,1.5 -1.5,-1.5 0,-6 z m 25,0 1.5,1.5 0,6 -1.5,1.5 -1.5,-1.5 0,-6 z m -31.5,2 3,0 0,3 -3,0 z m -11.5,6 6,0 1.5,1.5 -1.5,1.5 -6,0 -1.5,-1.5 z m 20,0 6,0 1.5,1.5 -1.5,1.5 -6,0 -1.5,-1.5 z m 15,0 6,0 1.5,1.5 -1.5,1.5 -6,0 -1.5,-1.5 z m 9.8,17.3 -9.2,6 -0.2,0.7 1.1,1.7 0.7,0.1 9.2,-5.9 0.2,-0.7 -1.1,-1.7 z"/>
</svg>
