<?xml version="1.0" encoding="UTF-8"?>
<?xml-stylesheet href="common.css" type="text/css"?>
<svg xmlns="http://www.w3.org/2000/svg" width="128" height="128" version="1.1">
	<path class="gametype shining" d="m 40.5,22 c -2.4,0 -4.8,0.6 -6,1.2 -0.3,4.3 0,10.6 0.9,15.1 l 2.1,3 6,0 2.1,-3 C 46.5,33.8 46.8,27.5 46.5,23.2 45.3,22.6 42.9,22 40.5,22 z m -7.9,2.7 c -4.2,3 -5.4,7 -5.4,12.4 l 3,1.8 0,7.9 4.9,4.2 10.8,0 4.9,-4.2 0,-7.9 3,-1.8 c 0,-5.4 -1.2,-9.4 -5.4,-12.4 0,5.2 -0.7,10.6 -1.9,13.6 1.2,0 2.5,1.2 2.5,2.7 0,1.5 -1.2,2.8 -2.7,2.8 -1.3,0 -1.9,-0.3 -2.5,-1.2 l -6.6,0 c -0.6,0.9 -1.2,1.2 -2.4,1.2 -1.6,0 -2.8,-1.3 -2.8,-2.8 0,-1.5 1.3,-2.7 2.5,-2.7 -1.2,-3 -1.9,-8.4 -1.9,-13.6 z m 7.9,6.4 c 1.8,0 3.3,1.5 3.3,3.3 0,1.8 -1.5,3.3 -3.3,3.3 -1.8,0 -3.3,-1.5 -3.3,-3.3 0,-1.8 1.5,-3.3 3.3,-3.3 z M 76,32 c -3.3,0 -6.5,0.8 -8.1,1.6 -0.4,5.7 0,14.3 1.2,20.4 l 2.8,4 8.2,0 2.8,-4 C 84.1,47.9 84.5,39.3 84.1,33.6 82.5,32.8 79.3,32 76,32 z m -10.6,3.7 c -5.7,4 -7.3,9.3 -7.3,16.6 l 4.1,2.5 0,10.6 6.5,5.7 14.6,0 6.5,-5.7 0,-10.6 4.1,-2.5 c 0,-7.3 -1.6,-12.6 -7.3,-16.6 0,6.9 -0.8,14.2 -2.5,18.3 1.7,0 3.3,1.6 3.3,3.6 0,2.1 -1.6,3.7 -3.7,3.7 -1.6,0 -2.4,-0.4 -3.2,-1.6 l -9,0 c -0.8,1.2 -1.6,1.6 -3.2,1.6 -2.1,0 -3.7,-1.6 -3.7,-3.7 0,-2 1.6,-3.6 3.3,-3.6 -1.7,-4.1 -2.5,-11.4 -2.5,-18.3 z m -38.8,2.3 -1.2,0.9 0,5.5 2.4,1.8 0,5.4 5.5,5.5 14.5,0 5.4,-5.5 0,-5.4 2.4,-1.8 0,-5.5 -1.2,-0.9 -2.4,1.5 0,7.6 -5.5,5.1 -12,0 L 29,47.1 29,39.5 26.6,38 z M 76,44.2 c 2.4,0 4.5,2 4.5,4.5 0,2.4 -2.1,4.5 -4.5,4.5 -2.4,0 -4.5,-2.1 -4.5,-4.5 0,-2.5 2.1,-4.5 4.5,-4.5 z m -49.7,8.3 -4.5,0.6 -1.9,7 c 1.2,3.6 7.3,6 12.1,6 l 0.6,-7.2 C 24.2,56.5 21.8,54.6 27.8,54 l -1.5,-1.5 z m 31,1.1 -1.6,1.2 0,7.3 3.2,2.5 0,7.3 7.3,7.3 19.6,0 7.3,-7.3 0,-7.3 3.2,-2.5 0,-7.3 -1.6,-1.2 -3.2,2 0,10.2 -7.4,6.9 -16.2,0 -7.4,-6.9 0,-10.2 -3.2,-2 z m -5.2,4.1 c -1.1,0.4 -2.3,0.8 -3.7,1.2 l 0.6,7.2 c 2,0 4.3,-0.4 6.3,-1.2 l -2,-1.5 -1.2,-0.9 0,-1.5 0,-3.3 z M 33.8,60.1 33.3,68 C 29,68 21.7,66.8 18.7,61.3 c -6.6,1.8 -9.6,7.2 -9.6,11.5 6,-3.6 10.2,-3 16.9,-3 l 4.8,4.2 15.9,0 0.5,-1.7 0.5,-1.9 2,-0.2 5.7,-0.8 0,-2.7 c -2.7,1 -5.6,1.3 -7.6,1.3 l -0.6,-7.9 -13.4,0 z m 23.1,13 -6.1,0.8 -2.5,9.4 c 1.6,4.9 9.8,8.1 16.3,8.1 l 0.8,-9.7 C 54,78.4 50.8,75.9 58.9,75.1 l -2,-2 z m 38.2,0 -2,2 c 8.1,0.8 4.9,3.3 -6.5,6.6 l 0.8,9.7 c 6.5,0 14.7,-3.2 16.3,-8.1 l -2.5,-9.4 -6.1,-0.8 z M 67,83.3 66.2,93.9 c -5.7,0 -15.4,-1.7 -19.5,-9 -9,2.4 -13,9.8 -13,15.5 8.1,-4.9 13.8,-4.1 22.8,-4.1 l 6.5,5.7 26,0 6.5,-5.7 c 9,0 14.7,-0.8 22.8,4.1 0,-5.7 -4,-13.1 -13,-15.5 -4.1,7.3 -13.8,9 -19.5,9 L 85,83.3 l -18,0 z"/>
</svg>
