<?xml version="1.0" encoding="UTF-8"?>
<?xml-stylesheet href="common.css" type="text/css"?>
<svg xmlns="http://www.w3.org/2000/svg" width="128" height="128" version="1.1">
	<path class="gametype shining" d="m 25.3,19 c 5.1,17.3 23.2,38.2 53.8,63.9 l 1.8,-3.7 C 51.8,54.8 36.9,37.8 29.6,20 c 8.6,17.7 23.9,34.3 53,58.7 l -2.7,6.3 3.8,3.2 -3.9,4.6 2.3,1.9 c 6,-4.1 6,-4.1 9.8,-0.9 l 17,14.2 c 1.6,0 7.1,-7 7.1,-8.4 L 99.2,85.5 C 95.4,82.3 95.4,82.3 98.3,75.6 L 96,73.7 91.5,79 C 68.5,59.7 43.9,37.2 34.6,20.3 z m 77.5,0 -9.3,1.3 C 88.2,29.8 78.1,41.4 66.3,52.7 l 4.1,3.8 C 84,43.3 92.7,31.8 98.4,20 93.5,32 85.2,43.9 71.3,57.5 l 2.9,2.6 C 89.7,44.6 99.3,30.8 102.8,19 z M 53.7,64.2 C 48,69.2 42.2,74.2 36.5,79 L 32,73.7 29.7,75.6 c 3,6.6 3,6.7 -0.9,9.9 L 12,99.6 c 0,1.4 5.5,8.4 7.1,8.4 L 36,93.8 c 3.8,-3.2 3.8,-3.2 9.8,0.9 L 48.1,92.8 44.2,88.2 48,85 45.3,78.7 C 49.7,75 53.8,71.4 57.6,68.1 z m 5.2,4.9 c -3.6,3.2 -7.5,6.6 -11.7,10.1 l 1.8,3.7 c 4.6,-3.8 8.8,-7.5 12.8,-11.1 z"/>
</svg>
