<?xml version="1.0" encoding="UTF-8"?>
<?xml-stylesheet href="common.css" type="text/css"?>
<svg xmlns="http://www.w3.org/2000/svg" width="128" height="128" version="1.1">
	<path class="gametype shining" d="m 40.9,66.3 5.5,1.7 4,0 -3.1,3.2 L 45.5,82.5 44.9,70.9 z M 27.4,26.6 18.6,40.2 c -0.9,1.4 -1.1,2.4 -0.1,3.8 l 14.7,21.1 -2.9,19.4 26.6,0 0,-7.6 L 46.3,61.6 C 44.3,51.9 39.3,45.3 31.1,41.8 l 2.3,-4.5 c 9.5,5.1 13,-3.6 11.5,-4.3 L 30.2,25.9 c -1.2,-0.6 -2,-0.6 -2.7,0.7 z m 28,0.8 -10,13.6 C 45,41.8 51.2,47.1 51.6,46.5 56.9,39.3 58.7,33.2 62.4,34.2 63.6,32.9 56.2,26.4 55.5,27.4 z m -9.5,-7.2 -5.3,9 4.8,2.5 c 1.2,0.6 1.6,2.5 0.5,6.6 l 8.6,-12.5 c 0.9,-1.3 -7.8,-6.9 -8.5,-5.6 z m -10.1,-4.4 -4.9,8.8 8.2,3.9 5.1,-8.4 c 0.8,-1.4 -7.6,-5.7 -8.4,-4.3 z m 41.8,73 7,2.2 6.5,-0.5 -5.3,4.6 -2.4,14.3 -0.7,-14.7 z M 60.5,38.3 49.3,55.7 c -1.1,1.8 -1.4,3 -0.1,4.8 L 67.9,87.4 64.2,112 l 33.8,0 0,-21 9.3,-18.8 c 1.2,-2.4 1.4,-4 1.4,-9.3 L 97.6,74.4 88.2,69.5 85.3,84.8 C 82.3,70.7 75.7,62.1 65.2,57.7 l 3,-5.7 c 12,6.4 16.5,-4.6 14.6,-5.5 L 64,37.5 c -1.6,-0.8 -2.5,-0.7 -3.5,0.8 z m 44.8,12.1 -13,14.4 c -0.8,0.9 4.5,6.4 5.3,5.7 L 111.4,58.1 c 1.2,-1.1 -5.1,-8.8 -6.1,-7.7 z M 96.2,39.4 83.5,56.7 c -0.7,1 6.8,7.6 7.5,6.9 l 14,-15.5 c 1.4,-1.6 -7.9,-10 -8.8,-8.6 z m -12.1,-9.2 -6.8,11.4 6.1,3.2 c 1.6,0.8 2,3.1 0.6,8.4 L 94.9,37.3 c 1.2,-1.7 -9.9,-8.7 -10.9,-7.1 z m -12.8,-5.6 -6.2,11.2 10.5,5 6.5,-10.7 c 1.1,-1.7 -9.7,-7.2 -10.7,-5.5 z"/>
</svg>
