<?xml version="1.0" encoding="UTF-8"?>
<?xml-stylesheet href="common.css" type="text/css"?>
<svg xmlns="http://www.w3.org/2000/svg" width="128" height="128" version="1.1">
	<path class="gametype shining" d="m 86,20 -1.7,7.6 c -2.1,0.5 -4,1.3 -5.8,2.4 l -6.5,-4.2 -4.3,4.3 4.2,6.5 c -1.1,1.8 -1.9,3.7 -2.4,5.8 L 62,44 l 0,6 7.6,1.7 c 0.5,2.1 1.3,4 2.4,5.8 l -4.2,6.5 4.3,4.3 6.5,-4.2 c 1.8,1.1 3.7,1.9 5.8,2.4 l 1.6,7.5 6,0 1.7,-7.6 c 2.1,-0.5 4,-1.3 5.8,-2.4 l 6.5,4.2 4.3,-4.3 -4.2,-6.5 c 1.1,-1.8 1.9,-3.7 2.4,-5.8 l 7.5,-1.6 0,-6 -7.6,-1.7 c -0.5,-2.1 -1.3,-4 -2.4,-5.8 l 4.2,-6.5 -4.3,-4.3 -6.5,4.2 C 97.6,28.8 95.7,28 93.6,27.5 L 92,20 86,20 z m 3,12 c 8.3,0 15,6.7 15,15 0,8.3 -6.7,15 -15,15 -8.3,0 -15,-6.7 -15,-15 0,-8.3 6.7,-15 15,-15 z m 0,5 c -5.5,0 -10,4.5 -10,10 0,5.5 4.5,10 10,10 5.5,0 10,-4.5 10,-10 0,-5.5 -4.5,-10 -10,-10 z m 0,3 c 3.9,0 7,3.1 7,7 0,3.9 -3.1,7 -7,7 -3.9,0 -7,-3.1 -7,-7 0,-3.9 3.1,-7 7,-7 z m -48.5,6 -2.2,8.7 c -2.4,0.6 -4.7,1.5 -6.8,2.8 l -7.7,-4.6 -4.9,4.9 4.6,7.7 c -1.3,2.1 -2.2,4.4 -2.8,6.8 l -8.7,2.2 0,7 8.7,2.2 c 0.6,2.4 1.5,4.7 2.8,6.8 l -4.6,7.7 4.9,4.9 7.7,-4.6 c 2.1,1.3 4.4,2.2 6.8,2.8 l 2.2,8.7 7,0 2.2,-8.7 c 2.4,-0.6 4.7,-1.5 6.8,-2.8 l 7.7,4.6 4.9,-4.9 -4.6,-7.7 c 1.3,-2.1 2.2,-4.4 2.8,-6.8 l 8.7,-2.2 0,-7 -8.7,-2.2 c -0.6,-2.4 -1.5,-4.7 -2.8,-6.8 l 4.6,-7.7 -4.9,-4.9 -7.7,4.6 c -2.1,-1.3 -4.4,-2.2 -6.8,-2.8 l -2.2,-8.7 -7,0 z M 44,60 c 9.9,0 18,8.1 18,18 0,9.9 -8.1,18 -18,18 -9.9,0 -18,-8.1 -18,-18 0,-9.9 8.1,-18 18,-18 z m 0,6 c -6.6,0 -12,5.4 -12,12 0,6.6 5.4,12 12,12 6.6,0 12,-5.4 12,-12 0,-6.6 -5.4,-12 -12,-12 z m 0,4 c 4.4,0 8,3.6 8,8 0,4.4 -3.6,8 -8,8 -4.4,0 -8,-3.6 -8,-8 0,-4.4 3.6,-8 8,-8 z"/>
</svg>
