<?xml version="1.0" encoding="UTF-8"?>
<?xml-stylesheet href="common.css" type="text/css"?>
<svg xmlns="http://www.w3.org/2000/svg" width="128" height="128" version="1.1">
	<path class="gametype shining" d="M 62.5,20 C 51.9,20.4 42.3,24.5 34.9,31 l 13.6,0 14,-7.2 0,-3.8 z m 3,0 0,3.8 14,7.2 13.6,0 C 85.7,24.5 76.1,20.4 65.5,20 z M 31.8,34 c -4.5,4.8 -7.9,10.6 -9.9,17.1 l 7.5,13 L 42.1,62 51.9,45 47.7,34 31.8,34 z m 48.5,0 -4.2,11 10.6,18.3 11.3,1.8 8.1,-14 c -2,-6.5 -5.4,-12.3 -9.9,-17.1 l -15.9,0 z m -24.9,12.8 -10,17.4 9.2,15.8 18.8,0 9.2,-15.8 -10,-17.4 -17.2,0 z M 20.9,55.3 C 20.3,58.1 20,61 20,64 c 0,7.5 1.9,14.5 5.2,20.7 L 29,82.4 28.3,68.3 20.9,55.3 z m 86.2,0 -8,14 -0.6,12.8 4.3,2.6 c 3.3,-6.2 5.2,-13.2 5.2,-20.7 0,-3 -0.3,-5.9 -0.9,-8.7 z M 53.3,84 l -7.2,8.9 8,14 c 3.2,0.7 6.5,1.1 9.9,1.1 3.4,0 6.7,-0.4 9.9,-1.1 l 7.4,-13 -8,-9.9 -20,0 z M 31,84.8 26.7,87.3 C 32,95.8 40.2,102.4 50,105.7 L 41.9,91.7 31,84.8 z m 66.5,0.3 -12,7.6 -7.5,13 c 9.8,-3.3 18,-9.9 23.3,-18.4 l -3.8,-2.2 z"/>
</svg>
