<?xml version="1.0" encoding="UTF-8"?>
<?xml-stylesheet href="common.css" type="text/css"?>
<svg xmlns="http://www.w3.org/2000/svg" width="128" height="128" version="1.1">
	<path class="gametype shining" d="m 26.8,21.5 c -1.7,0 -3,0.5 -3.9,1.4 -4.4,4.3 2,18.2 14.9,34.4 l 2.4,-6 C 34.4,43 31.8,36.6 33.8,34.6 c 3.8,-3.8 21.1,7.5 38.7,25.2 1.4,1.3 2.7,2.7 3.9,4 -2.5,2.9 -5.2,5.8 -8.1,8.7 -17.7,17.6 -35,28.9 -38.7,25.2 -2.5,-2.5 1.8,-11.1 10.2,-21.8 l -2,-5.2 c -12.9,16.1 -19.3,30.1 -14.9,34.4 5.9,5.9 29,-7.8 51.7,-30.5 2.1,-2.1 4.1,-4.1 6,-6.2 12.8,14.3 20.2,26.9 17.1,30 -2.5,2.5 -11.1,-1.8 -21.8,-10.1 l -5.2,1.9 c 16.1,12.9 30.1,19.3 34.4,14.9 5,-4.9 -4,-22.2 -20.6,-41.1 16.6,-18.9 25.6,-36.2 20.6,-41.1 -0.9,-0.9 -2.2,-1.4 -3.9,-1.4 -6.4,0 -17.8,6.1 -30.5,16.3 l 6.1,2.4 C 85,34.4 91.4,31.8 93.4,33.8 96.2,36.6 90.6,46.9 80.3,59.3 78.5,57.3 76.6,55.4 74.6,53.4 55.5,34.2 36,21.5 26.8,21.5 z M 64.6,40 c 5.6,4.7 11.3,10.3 15.6,14.8 l 3.5,-4.5 C 79.4,44.2 72.5,40.2 64.6,40 z M 50.2,44.4 C 44,48.7 40,55.9 40,64 40,72.4 44.3,79.8 50.9,84.1 57.6,79 67.4,69.3 72.4,63.9 68.3,59.7 57.7,49.5 50.2,44.4 z M 80.6,72.8 C 75.9,77.9 70.6,82.8 64.7,88 72.8,87.8 79.9,83.5 84.1,77.1 z"/>
</svg>
