<?xml version="1.0" encoding="UTF-8"?>
<?xml-stylesheet href="common.css" type="text/css"?>
<svg xmlns="http://www.w3.org/2000/svg" width="128" height="128" version="1.1">
	<path class="gametype shining" d="m 18,73.1 c 0,-9.8 5.8,-19.4 16.5,-25 0,-18.4 10.5,-28.9 24.2,-30.3 -8.4,3 -14,10.2 -14,19.2 0,10.6 8.6,19.2 19.2,19.2 10.6,0 19.2,-8.6 19.2,-19.2 0,-9 -5.6,-16.2 -14,-19.2 C 83,19.2 93.5,29.7 93.5,48.1 104.2,53.7 110,63.4 110,73.1 c 0,4.1 -1,8 -2.4,10.8 0.2,-1 0.3,-2.6 0.3,-4.2 0,-11.2 -8.9,-20 -19.7,-20 -10.6,0 -19.2,8.6 -19.2,19.2 0,10.6 8.7,19.2 19.4,19.2 5.7,0 10.4,-2.2 13.7,-5.1 C 97.5,99.7 90.2,104 80.9,104 74.1,104 66.9,100.7 64,98.8 61.1,100.7 53.9,104 47.1,104 37.8,104 30.5,99.7 25.8,93.1 c 3.4,2.9 8,5.1 13.7,5.1 10.7,0 19.4,-8.6 19.4,-19.2 0,-10.6 -8.6,-19.2 -19.2,-19.2 -10.8,0 -19.7,8.9 -19.7,20 0,1.6 0.1,3.1 0.3,4.2 C 19,81.2 18,77.2 18,73.1 z m 18.5,-9.5 h 7 c 0,9.7 4.8,16.3 11.4,19.7 l -3.4,6.1 C 41.6,84.1 36.5,75.1 36.5,63.6 z M 49.1,42 c 4.3,-2.8 9.4,-4.4 14.9,-4.4 5.5,0 10.6,1.6 14.9,4.4 l -3.6,5.9 C 72.2,45.9 68.2,44.6 64,44.6 c -4.2,0 -8.2,1.3 -11.3,3.4 z m 9.1,22.9 c 0,3.3 2.6,5.8 5.8,5.8 3.3,0 5.8,-2.6 5.8,-5.8 0,-3.3 -2.6,-5.8 -5.8,-5.8 -3.3,0 -5.8,2.6 -5.8,5.8 z m 14.9,18.3 C 79.7,79.9 84.5,73.3 84.5,63.6 h 7 c 0,11.5 -5.1,20.5 -15,25.7 z"/>
</svg>
