<?xml version="1.0" encoding="UTF-8"?>
<?xml-stylesheet href="common.css" type="text/css"?>
<svg xmlns="http://www.w3.org/2000/svg" width="128" height="128" version="1.1">
	<path class="gametype shining" d="m 60,12 -17,4 -4,12 -9,1 -4,15 8,12 -4,14 6,36 4,-23 7,3 3,12 3,-10 6,0 5,28 5,-28 5,0 2,16 2,-17 5,-2 4,28 6,-38 6,-6 1,-15 L 92,42 98,26 82,14 64,16 60,12 z m 4,10 c 4,0 8,1 10,2 0.5,7 0,17.5 -1.5,25 L 69,54 59,54 55.5,49 C 54,41.5 53.5,31 54,24 c 2,-1 6,-2 10,-2 z m -13,4.5 c 0,8.5 1,17.5 3,22.5 -2,0 -4,2 -4,4.5 0,2.5 2,4.5 4.5,4.5 2,0 3,-0.5 4,-2 l 11,0 c 1,1.5 2,2 4,2 C 76,58 78,56 78,53.5 78,51 76,49 74,49 c 2,-5 3,-14 3,-22.5 7,5 9,11.5 9,20.5 l -5,3 0,13 -8,7 -18,0 -8,-7 0,-13 -5,-3 c 0,-9 2,-15.5 9,-20.5 z M 64,37 c -3,0 -5.5,2.5 -5.5,5.5 0,3 2.5,5.5 5.5,5.5 3,0 5.5,-2.5 5.5,-5.5 C 69.5,39.5 67,37 64,37 z m -23,11.5 4,2.5 0,12.5 9,8.5 20,0 9,-8.5 0,-12.5 4,-2.5 2,1.5 0,9 -4,3 0,9 -9,9 -24,0 -9,-9 0,-9 -4,-3 0,-9 2,-1.5 z"/>
</svg>
