<?xml version="1.0" encoding="UTF-8"?>
<?xml-stylesheet href="common.css" type="text/css"?>
<svg xmlns="http://www.w3.org/2000/svg" width="128" height="128" version="1.1">
	<path class="gametype shining" d="m 61.8,86.6 7.7,2.4 7.1,-0.6 -5.8,5 -2.7,15.7 -0.7,-16.1 z m -18.8,-55.2 -12.3,19 c -1.2,1.9 -1.5,3.3 -0.2,5.2 L 51,85.1 47,112 l 37,0 0,-23 10.2,-20.6 c 1.3,-2.7 1.6,-4.4 1.6,-10.2 l -12.2,12.6 -10.3,-5.3 -3.1,16.7 C 66.9,66.8 59.6,57.4 48.1,52.6 l 3.2,-6.3 c 13.2,7 18.1,-5 16,-6 l -20.6,-9.8 c -1.7,-0.8 -2.7,-0.8 -3.8,0.9 z m 49.1,13.2 -14.3,15.7 c -0.9,1 5,7 5.9,6.2 l 15,-13.5 c 1.3,-1.2 -5.6,-9.7 -6.6,-8.5 z M 82,32.5 68.2,51.4 c -0.8,1 7.5,8.3 8.2,7.5 l 15.3,-17 c 1.6,-1.7 -8.6,-10.9 -9.7,-9.4 z m -13.3,-10 -7.4,12.5 6.7,3.5 c 1.7,0.9 2.2,3.4 0.6,9.2 l 12,-17.4 c 1.3,-1.9 -10.8,-9.5 -11.9,-7.8 z m -14,-6.1 -6.8,12.3 11.5,5.4 7.1,-11.7 c 1.2,-1.9 -10.6,-7.9 -11.7,-6 z"/>
</svg>
