<?xml version="1.0" encoding="UTF-8"?>
<?xml-stylesheet href="common.css" type="text/css"?>
<svg xmlns="http://www.w3.org/2000/svg" width="128" height="128" version="1.1">
	<path class="gametype shining" d="M 28,36 16,26 16,102 28,92 z m 3,-2 -12,-10 90,0 -12,10 -4,0 0,-3 C 91,26 81,26 79,31 l 0,3 -8,0 0,-3 C 69,26 59,26 57,31 l 0,3 -8,0 0,-3 C 47,26 37,26 35,31 l 0,3 z m 15,62 c -1,2 -7,2 -8,0 l 0,-64 c 1,-2 7,-2 8,0 z m 22,0 c -1,2 -7,2 -8,0 l 0,-64 c 1,-2 7,-2 8,0 z m 22,0 c -1,2 -7,2 -8,0 l 0,-64 c 1,-2 7,-2 8,0 z m 22,6 -12,-10 0,-56 12,-10 z m -81,-8 -12,10 90,0 -12,-10 -4,0 0,3 c -2,5 -12,5 -14,0 l 0,-3 -8,0 0,3 c -2,5 -12,5 -14,0 l 0,-3 -8,0 0,3 c -2,5 -12,5 -14,0 l 0,-3 z"/>
</svg>
