<?xml version="1.0" encoding="UTF-8"?>
<?xml-stylesheet href="common.css" type="text/css"?>
<svg xmlns="http://www.w3.org/2000/svg" version="1.1" width="32" height="32">
	<g class="shadowed">
		<g class="ipv6">
			<path d="M 5,12 5,27 20,27 27,20 27,5 12,5 Z"/>
			<path d="M 3,11.5 11.5,3 3,3 Z"/>
			<path d="M 29,20.5 20.5,29 29,29 Z"/>
		</g>
		<path d="M 13.5,9 C 10.6,9 9,10.2 9,12.4 l 0,7.9 c 0,1.8 1.4,2.7 3.6,2.7 l 6.8,0 c 2.2,0 3.6,-0.9 3.6,-2.7 l 0,-3.6 C 23,14.9 21.6,14 19.4,14 l -6.4,0 0,-1.5 c 0,-1 1,-1.5 2,-1.5 l 7,0 0,-2 -8.5,0 z m -0.5,7 5.3,0 c 0.5,0 0.7,0.2 0.7,0.5 l 0,4 c 0,0.3 -0.2,0.5 -0.7,0.5 l -4.6,0 C 13.2,21 13,20.8 13,20.5 L 13,16 Z"/>
	</g>
</svg>
