<?xml version="1.0" encoding="UTF-8"?>
<?xml-stylesheet href="common.css" type="text/css"?>
<svg xmlns="http://www.w3.org/2000/svg" version="1.1" width="32" height="32">
	<g class="aes shadowed">
		<path d="M 16,2.5 4,8.5 4,13 c 0,8 6,14 12,17 6,-3 12,-9 12,-17 l 0,-4.5 z m 0,2.8125 9.5,4.6875 0,3 c 0,7 -5,11.4875 -9.5,14.1875 C 11.5,24.4875 6.5,20 6.5,13 l 0,-3 z"/>
		<path d="m 8.4,16 c 1.1,4.5 4.7,7.8 7.6,9.5 L 16,16 8.4,16 Z"/>
		<path d="m 16,7 0,9 7.6,0 C 23.9,15 24,14 24,13 l 0,-2 -8,-4 z"/>
	</g>
</svg>
