<?xml version="1.0" encoding="UTF-8"?>
<?xml-stylesheet href="common.css" type="text/css"?>
<svg xmlns="http://www.w3.org/2000/svg" version="1.1" width="32" height="32">
	<g class="shadowed">
		<path class="mod" d="m 28,13 c 0,5.6 -3.9,10.3 -9.1,11.6 L 17,28 15,28 13.1,24.6 C 7.9,23.3 4,18.6 4,13 4,8.2 6.9,4 11,2 5.5,4 1.5,9.3 1.5,15.5 1.5,23.5 8,30 16,30 24,30 30.5,23.5 30.5,15.5 30.5,9.3 26.5,3.9 21,2 c 4.1,2 7,6.2 7,11 z"/>
		<path class="pure" d="M 19.5,6 C 16.5,6.3 9.1,12.2 6,15.3 l 6,-2.3 -3,3 3,-1 c 0,2.5 -1.5,4 -4,5 1.6,1.6 4.5,3 6.5,3 L 16,26.3 17.5,23 c 2,0 5.4,-1.8 7,-3.5 -8.3,0.9 -8,-7.5 -0.5,-8.5 0,-0.5 -2.5,-1 -4,-1 0.5,-1.5 2,-2.5 4.6,-2.3 -1,-1.1 -2.3,-1.9 -4.5,-1 z M 19,8 19,9 C 18,9 17,9 17,8 z"/>
	</g>
</svg>
