<?xml version="1.0" encoding="UTF-8"?>
<?xml-stylesheet href="common_n.css" type="text/css"?>
<svg xmlns="http://www.w3.org/2000/svg" version="1.1" width="256" height="64">
	<path class="inputbox" d="m 19,8 217,0 14,16 0,32 -5,2 -229.5,0 z"/>
	<g class="glowing">
		<path class="frame" d="m 16,60 c -1,0 -2,-1 -2,-2 l 1,-20 c 0.3,-5.7 0,-6 -2,-8 L 6,23 6,16 20,4 54,4 56,8 21,10 18,48 c -0.1,1.4 0.6,1.6 3,2 l 13,2 4,4 212,0 -4,4 z"/>
		<path class="detail" d="m 8,53 0,-25 3,3 c 2,2 2.3,1.9 2,7 l -1,19 z"/>
	</g>
</svg>
