<?xml version="1.0" encoding="UTF-8"?>
<?xml-stylesheet href="common.css" type="text/css"?>
<svg xmlns="http://www.w3.org/2000/svg" version="1.1" width="256" height="256">
	<g class="blurred">
		<path class="nopreview" d="m 800,0 12,43 c 343,30 616,303 645,645 l 43,12 C 1480,150 1340,20 800,0 z M 587,131 C 481,159 381,214 297,298 214,381 158,482 130,588 l 61,121 c -12,157 43,318 163,438 120,119 281,173 438,161 l 121,61 c 106,-28 206,-83 290,-167 83,-83 139,-184 167,-290 L 1309,791 C 1321,634 1266,473 1146,353 1026,233 865,179 708,190 L 587,129 z m 163,119 c 113,0 216,37 300,100 L 926,474 c 4,1 15,16 19,26 l 25,65 65,0 115,-115 c 63,84 100,187 100,300 0,276 -224,500 -500,500 -113,0 -216,-37 -300,-100 l 175,-175 -145,0 c -15,0 -29,-5 -41,-14 l -89,89 C 287,966 250,863 250,750 250,474 474,250 750,250 z m -20,235 c -11,0 -16,10 -20,20 l -30,75 -50,0 -5,-30 -90,0 -5,30 -50,0 c -28,0 -50,22 -50,50 l 0,280 c 0,28 22,50 50,50 l 540,0 c 28,0 50,-22 50,-50 l 0,-280 c 0,-28 -22,-50 -50,-50 l -60,0 -30,-75 c -4,-10 -9,-20 -20,-20 l -180,0 z m 90,115 c 94,0 170,76 170,170 0,94 -76,170 -170,170 -94,0 -170,-76 -170,-170 0,-94 76,-170 170,-170 z m -320,20 40,0 c 6,0 10,4 10,10 l 0,20 c 0,6 -4,10 -10,10 l -40,0 c -6,0 -10,-4 -10,-10 l 0,-20 c 0,-6 4,-10 10,-10 z m 320,5 c -14,0 -27,2 -39,6 l 107,106 21,-81 c -25,-19 -55,-31 -89,-31 z m -54,11 c -42,17 -75,54 -86,99 l 146,-39 -60,-60 z m 155,31 -39,146 82,-22 c 0,-7 1,-14 1,-21 0,-41 -17,-77 -44,-104 z m -163,62 -82,22 c 0,5 -1,12 -1,19 0,41 17,77 44,104 L 758,728 z M 0,800 c 20,550 160,680 700,700 l -12,-43 C 345,1428 72,1155 43,812 L 0,800 z m 753,3 -22,82 c 25,18 55,30 89,30 14,0 27,-2 39,-6 L 753,802 z m 208,3 -146,39 60,60 c 42,-17 75,-54 86,-99 z" transform="matrix(0.07466206,0.01045285,-0.0078473,0.09945219,77.888935,45.571225)"/>
	</g>
</svg>
