<?xml version="1.0" encoding="UTF-8"?>
<?xml-stylesheet href="common_s.css" type="text/css"?>
<svg xmlns="http://www.w3.org/2000/svg" version="1.1" width="64" height="256">
	<path class="scrolltrack" d="m 9,10 0,236 26,0 7,-5 0,-226 -7,-5 z"/>
	<path class="frame seektrim" d="m 35,16.6 -3.4,2 3.4,3.4 z m -7.8,4.6 -4.4,2.6 10,10 L 35,29 z m -8.9,5.1 -2.9,4.1 13.1,13.1 2.2,-4.8 z M 15,37 l 0,7 9.2,9.2 2.2,-4.8 z m 0,14 0,7 7,0 z m 0,147 0,7 7,-7 z m 0,14 0,7 11.3,-11.3 -2.2,-4.8 z m 13.5,0.5 -13.1,13.1 2.9,4.1 12.4,-12.4 z m 4.3,9.7 -10,10.1 4.4,2.5 7.8,-7.8 z m 2.2,11.8 -3.4,3.4 3.4,2 z"/>
	<path class="frame glowing" d="m 6,2 0,252 18,0 11,-7 0,-3 L 16,233 12,227 12,29 16,23 35,12 35,9 24,2 z"/>
</svg>
