<?xml version="1.0" encoding="UTF-8"?>
<?xml-stylesheet href="common_c.css" type="text/css"?>
<svg xmlns="http://www.w3.org/2000/svg" version="1.1" width="64" height="256">
	<defs>
		<clipPath id="clip">
			<path d="m 64,0 -7,0 -44,26 0,204 44,26 7,0 z"/>
		</clipPath>
	</defs>
	<g class="glowing" clip-path="url(#clip)">
		<path class="frame" d="M 45.5,33 14,43.5 l 0,6.5 18,-2 4,4 0,152 -4,4 -18,-2 0,6.5 31.5,10.5 5.5,-4 0,-182 z"/>
		<path class="detail" d="M 34,15.5 17,26 l -3,4 0,11 32,-11 8,6 0,184 -8,6 -32,-11 0,11 3,4 17,10.5 L 44,238 57,223 57,33 44,18 z m -7,8.5 10,5 -15,5 z m -5,198 15,5 -10,5 z"/>
	</g>
</svg>
