<?xml version="1.0" encoding="UTF-8"?>
<?xml-stylesheet href="common_s.css" type="text/css"?>
<svg xmlns="http://www.w3.org/2000/svg" version="1.1" width="256" height="64">
	<path class="slidetrack" d="m 21,13 -14.5,31.5 15,8.5 213,0 15,-8.5 L 235,13 z"/>
	<path class="frame seektrim" d="m 28,18 -3.5,5.5 7,13.5 4.5,-3 -8,-16 z m 6,0 6.5,13 4.5,-3 -5,-10 -6,0 z m 12,0 3.5,7 4.5,-3 -2,-4 -6,0 z m 158,0 -2,4 4.5,3 3.5,-7 -6,0 z m 12,0 -5,10 4.5,3 6.5,-13 -6,0 z m 12,0 -8,16 4.5,3 7,-13.5 L 228,18 z M 21.5,28.5 18,34 22.5,43 27,40 21.5,28.5 z m 213,0 -5.5,11.5 4.5,3 4.5,-9 -3.5,-5.5 z M 15,39 l -3,5 5,0 -2,-5 z m 226,0 -2,5 5,0 -3,-5 z"/>
	<path class="frame glowing" d="m 18,7 -15,35.5 3.5,2 19,-30.5 205,0 19,30.5 3.5,-2 L 238,7 224,7 216,11 40,11 32,7 z"/>
</svg>
