<?xml version="1.0" encoding="UTF-8"?>
<?xml-stylesheet href="common.css" type="text/css"?>
<svg xmlns="http://www.w3.org/2000/svg" width="128" height="128" version="1.1">
	<g transform="scale(0.5,0.5)">
		<path class="netbg" d="m 54,58 0,62 58,0 2,-2 16,0 0,-24 4,-4 0,-32 z"/>
		<path class="net shining" d="m 195.9,47.9 -45.9,46 17,17 4.2,-4.3 -4.2,-7.1 L 191,75.5 185.3,69.8 201.6,53.6 z M 54,52 c -2,0 -6,4 -6,6 l 0,62 c 0,2 4,6 6,6 l 56.5,0 5.5,-8 0,-20 -4,0 0,20 -4,0 0,-20 -4,0 0,20 -4,0 0,-20 -4,0 0,20 -4,0 0,-20 -4,0 0,20 -4,0 0,-20 -4,0 0,20 -4,0 0,-20 -4,0 0,20 -14,0 -2,-2 0,-14 2,-1 L 58,90 56,89 56,78 58,76 l 15,0 0.5,-8 7.5,0 1,-8 24,0 1,8 7.5,0 0.5,8 15,0 2,2 L 132,89 l -2,1 0,7 3,-4.5 7,-5.5 0,-29 c 0,-2 -4,-6 -6,-6 z m 150.4,4.4 -14.2,14.1 2.8,2.8 14.1,-14.2 z m 5.7,5.7 -14.2,14.1 2.8,2.8 14.1,-14.2 z m 5.7,5.7 -14.2,14.1 2.8,2.8 14.1,-14.2 z M 221.4,73.4 207.2,87.5 l 2.8,2.8 14.1,-14.2 z m -27.6,4.9 -21.9,21.9 4.3,7.1 -19.8,19.8 8.5,8.5 19.8,-19.8 7.1,4.2 21.9,-21.9 z m 33.3,0.7 -14.2,14.1 2.8,2.8 14.1,-14.2 z m 5.7,5.7 -14.2,14.2 2.8,2.8 L 235.5,87.5 z m 5.7,5.7 -16.3,16.3 L 216.4,100.9 192.4,125 l -7.1,-4.3 -4.3,4.3 17,17 L 244,96 z m -94.8,1.4 -6.4,5 -15.8,23.8 17.9,17.9 -4.3,4.2 -17.1,-17 -4.5,6.8 15.9,15.9 -4.2,4.3 -15.1,-15 -4.5,6.8 13.9,13.9 -4.3,4.3 -13,-13 -4.5,6.8 11.9,11.9 -4.3,4.3 -11.1,-11.1 -4.5,6.8 9.9,9.9 C 57.3,225.3 0,160 42,112 l 0,-15 c -78,67 13,159.2 71.9,95.2 l 9.9,9.9 6.8,-4.5 -11,-11.1 4.2,-4.2 11.9,11.9 6.8,-4.5 -13.1,-13 4.3,-4.3 13.9,13.9 6.8,-4.5 -15.1,-15 4.3,-4.3 15.9,15.9 6.8,-4.5 -17.1,-17.1 4.3,-4.3 17.9,17.9 23.8,-15.8 4.9,-6.4 -21.2,-21.2 -16.3,16.3 -14.2,-14.2 16.3,-16.3 z"/>
	</g>
</svg>
