<?xml version="1.0" encoding="UTF-8"?>
<svg xmlns="http://www.w3.org/2000/svg" version="1.1" width="64" height="64">
	<g fill="#fff" filter="url(common.filters#shadow)">
		<rect x="31" y="6" width="2" height="18"/>
		<rect x="40" y="31" width="18" height="2"/>
		<rect x="31" y="40" width="2" height="18"/>
		<rect x="6" y="31" width="18" height="2"/>
		<g opacity="0.5">
			<path d="m 11,11 0,12 4,0 0,-8 8,0 0,-4 z"/>
			<path d="m 53,11 0,12 -4,0 0,-8 -8,0 0,-4 z"/>
			<path d="m 11,53 0,-12 4,0 0,8 8,0 0,4 z"/>
			<path d="m 53,53 0,-12 -4,0 0,8 -8,0 0,4 z"/>
		</g>
	</g>
</svg>
