<?xml version="1.0" encoding="UTF-8"?>
<svg xmlns="http://www.w3.org/2000/svg" height="128" width="128" version="1.1">
	<g filter="url(common.filters#shadow)">
		<g stroke="#fff" fill="none">
			<g opacity=".7" stroke-width="5">
				<path d="m115 78a37 37 0 0 1 -37 37"/>
				<path d="m14 77a37 37 0 0 0 37 37"/>
				<path d="m14 51a37 37 0 0 1 37 -37"/>
				<path d="m114 51a37 37 0 0 0 -37 -37"/>
			</g>
			<g stroke-width="2">
				<path d="m76.5 61a9.5 9.5 0 0 0 -9.5 -9.5"/>
				<path d="m76.5 67a9.5 9.5 0 0 1 -9.5 9.5"/>
				<path d="m51.5 67a9.5 9.5 0 0 0 9.5 9.5"/>
				<path d="m51.5 61a9.5 9.5 0 0 1 9.5 -9.5"/>
			</g>
		</g>
		<g opacity=".4" fill="#fff">
			<rect y="20" x="54" height="2" width="20"/>
			<rect y="26" x="58" height="2" width="12"/>
			<rect y="32" x="62" height="2" width="4"/>
			<rect y="106" x="54" height="2" width="20"/>
			<rect y="100" x="58" height="2" width="12"/>
			<rect y="94" x="62" height="2" width="4"/>
			<rect y="54" x="106" height="20" width="2"/>
			<rect y="58" x="100" height="12" width="2"/>
			<rect y="62" x="94" height="4" width="2"/>
			<rect y="54" x="20" height="20" width="2"/>
			<rect y="58" x="26" height="12" width="2"/>
			<rect y="62" x="32" height="4" width="2"/>
		</g>
	</g>
</svg>
