<?xml version="1.0" encoding="UTF-8"?>
<svg xmlns="http://www.w3.org/2000/svg" xmlns:xlink="http://www.w3.org/1999/xlink" version="1.1" width="128" height="128">
	<g fill="#fff" filter="url(common.filters#shadow)">
		<g id="segment">
			<path opacity="0.5" d="m 72.9,14.8 -0.7,4 c 18.8,3.3 33.7,18.2 37.1,37 l 7.8,-1.5 c -1.3,-7.1 -3.9,-13.7 -7.7,-19.6 l -5.8,-1.3 C 96.2,23.9 85.3,17.1 72.9,14.8 z"/>
			<path d="m 68.9,36.9 -0.8,4.4 c 10.7,1.5 19.2,8.8 21.4,18.1 l 2.4,-0.5 C 90.5,52.8 86.6,47.5 81.1,43.8 L 80.3,40.7 C 76.9,38.8 73.1,37.5 68.9,36.9 z"/>
		</g>
		<use xlink:href="#segment" transform="matrix(1,0,0,-1,0,128)"/>
		<use xlink:href="#segment" transform="matrix(-1,0,0,1,128,0)"/>
		<use xlink:href="#segment" transform="matrix(-1,0,0,-1,128,128)"/>
	</g>
</svg>
