<?xml version="1.0" encoding="UTF-8"?>
<svg xmlns="http://www.w3.org/2000/svg" xmlns:xlink="http://www.w3.org/1999/xlink" height="96" width="96" version="1.1">
	<g filter="url(common.filters#shadow)" fill="#fff">
		<g id="segment">
			<path opacity=".6" d="m24 18-17 16v10h3v8h-3v10l17 16 1.67772-1.8047c-8.6253-6.8169-13.6628-17.2014-13.6777-28.1953 0.0007-11.0005 5.0309-21.397 13.6562-28.2246z"/>
			<path d="m52.0176 28.9492-1.0176 3.0508h-6l-1.0156-3.0488c-3.9372 1.80521-7.44851 5.85226-9.83984 9.23438l2.43945 1.72852c2.6216-3.7055 6.8769-5.91 11.416-5.9141 4.5377 0.006944 8.7906 2.21274 11.4102 5.91797l2.45312-1.73828c-2.39302-3.38148-5.90768-7.42694-9.8457-9.23047z"/>
			<path opacity=".3" d="m47 19v8h2v-8z"/>
			<path opacity=".3" d="m19 49h9v-2h-9z"/>
		</g>
		<use xlink:href="#segment" transform="matrix(-1,0,0,-1,96,96)"/>
	</g>
</svg>
