<?xml version="1.0" encoding="UTF-8"?>
<svg xmlns="http://www.w3.org/2000/svg" xmlns:xlink="http://www.w3.org/1999/xlink" height="128" width="128" version="1.1">
	<g filter="url(common.filters#shadow)">
		<g id="segment" fill="#fff">
			<path opacity=".75" d="m33.4258 108.471a54 54 0 0 1 -22.7832 -36.471h10.1504a44 44 0 0 0 0.287109 1.53711l-6.82812 1.51758a51 51 0 0 0 5.94531 14.9531l0.859375-0.509766a50 50 0 0 0 14.6464 15.66l-2.27734 3.3125zm0-88.9414a54 54 0 0 0 -22.7832 36.4704h10.1504a44 44 0 0 1 0.287109 -1.53711l-6.82812-1.51758a51 51 0 0 1 5.94531 -14.9531l0.859375 0.509766a50 50 0 0 1 14.6464 -15.6602l-2.27734-3.3125z"/>
			<path opacity=".5" d="m34.2 40.4 2.3 1.9c2.9-3.6 6.5-6.6 10.5-8.9l1 1.8c4.7-2.7 10.2-4.2 16-4.2s11.3 1.5 16 4.2l1-1.8c4 2.3 7.6 5.3 10.5 8.9l2.3-1.9c-7-8.7-17.7-14.4-29.8-14.4s-22.8 5.7-29.8 14.4z"/>
			<path d="m58.3 80.5-0.8 2.4c-4.2-1.5-7.8-4.3-10.2-7.9l-5.3-2.5-1-7.5h4v-2h-4l1-7.5 5.3-2.5c2.4-3.6 6-6.4 10.2-7.9l0.8 2.4c-6.9 2.3-11.8 8.8-11.8 16.5s4.9 14.2 11.8 16.5z"/>
		</g>
		<use xlink:href="#segment" transform="matrix(-1,0,0,-1,128,128)"/>
	</g>
</svg>
