<?xml version="1.0" encoding="UTF-8"?>
<?xml-stylesheet href="common.css" type="text/css"?>
<svg xmlns="http://www.w3.org/2000/svg" width="256" height="256" version="1.1">
	<path class="key shining" d="m 100,72 c -4.5,0 -6.5,2.5 -6.5,6 l -2,42 c 0,4 2.5,6 6.5,6 l 60,0 c 4,0 6.5,-2 6.5,-6 l -2,-42 c 0,-3.5 -2,-6 -6.5,-6 z m -9.5,6 -6.5,16 -3.3,43 4.9,0 L 88,125 z m 75,0 2.5,47 4.4,22 3.6,0 L 172,94 z M 94,130 c -2,0 -3.5,1 -4.5,3.5 L 88.1,137 105,137 c 7,0 11,0 18,17 l 15,0 c 3.5,-6.1 7,-7 11,-7 l 22.8,0 -5.3,-13.5 c -1,-2.5 -2.5,-3.5 -4.5,-3.5 z m -44,12 c -4.5,0 -6.5,2.5 -6.5,6 l -2,42 c 0,4 2.5,6 6.5,6 l 60,0 c 4,0 6.5,-2 6.5,-6 l -2,-42 c 0,-3.5 -2,-6 -6.5,-6 z m -9.5,6 -6.5,16 -4,52 c 0,5 3,8 8,8 l 80,0 c 5,0 8,-3 8,-8 l -4,-52 -6.5,-16 2.5,47 5,25 -6.5,-16.5 c -1,-2.5 -2.5,-3.5 -4.5,-3.5 l -68,0 c -2,0 -3.5,1 -4.5,3.5 L 33,220 38,195 z m 109.5,4 c -4.5,0 -6.5,2.5 -6.5,6 l -2,42 c 0,4 2.5,6 6.5,6 l 60,0 c 4,0 6.5,-2 6.5,-6 l -2,-42 c 0,-3.5 -2,-6 -6.5,-6 z m -9.5,6 -6.5,16 -4,52 c 0,5 3,8 8,8 l 80,0 c 5,0 8,-3 8,-8 l -4,-52 -6.5,-16 2.5,47 5,25 -6.5,-16.5 c -1,-2.5 -2.5,-3.5 -4.5,-3.5 l -68,0 c -2,0 -3.5,1 -4.5,3.5 l -6.5,16.5 5,-25 z"/>
	<path class="key darkened" d="m 104,80 0,26 27,0 0,-4 -20,0 0,-22 -7,0 z m -50,70 0,26 24,0 c 3.5,0 6,-1.5 6,-4.5 l 0,-5 c 0,-2.5 -1.5,-4 -4,-4.5 1.5,-0.5 3,-1.5 3,-4 l 0,-3.5 c 0,-3 -2.5,-4.5 -6,-4.5 l -23,0 z m 7,4 13.5,0 c 1,0 1.5,0.5 1.5,1 l 0,4 c 0,0.5 -0.5,1 -1.5,1 l -13.5,0 0,-6 z m 104.5,6 -13.5,26 7.5,0 3.5,-7 14,0 3.5,7 7.5,0 -13.5,-26 -9,0 z m -104.5,4 14.5,0 c 1,0 1.5,0.5 1.5,1 l 0,6 c 0,0.5 -0.5,1 -1.5,1 l -14.5,0 0,-8 z m 109,1 5,10 -10,0 5,-10 z"/>
</svg>
