<?xml version="1.0" encoding="UTF-8"?>
<svg xmlns="http://www.w3.org/2000/svg" version="1.1" width="32" height="32">
	<defs>
		<filter id="shadowed" x="-0.5" y="-0.5" width="2" height="2">
			<feGaussianBlur stdDeviation="1.5" in="SourceAlpha"/>
			<feColorMatrix values="1 0 0 0 0 0 1 0 0 0 0 0 1 0 0 0 0 0 0.5 0" result="shadow"/>
			<feMerge>
				<feMergeNode in="shadow"/>
				<feMergeNode in="SourceGraphic"/>
			</feMerge>
			<feGaussianBlur stdDeviation="0.3"/>
		</filter>
	</defs>
	<g opacity="0.6667">
		<path fill="#eee" filter="url(#shadowed)" d="M 16,3 A 13,13 0 0 0 3,16 13,13 0 0 0 16,29 13,13 0 0 0 29,16 13,13 0 0 0 16,3 Z m 0,2.5 A 10.5,10.5 0 0 1 26.5,16 10.5,10.5 0 0 1 16,26.5 10.5,10.5 0 0 1 5.5,16 10.5,10.5 0 0 1 16,5.5 Z m 0,8.5 a 2,2 0 0 0 -2,2 2,2 0 0 0 2,2 2,2 0 0 0 2,-2 2,2 0 0 0 -2,-2 z"/>
	</g>
</svg>
