<?xml version="1.0" encoding="UTF-8"?>
<svg xmlns="http://www.w3.org/2000/svg" width="128" height="128" version="1.1">
	<g filter="url(common.filters#buff)">
		<path fill="#a15dff" d="m64 15a52 52 0 0 0 -37.3 15.9l7.7 7.4-10 17.3-10.3-2.9a52 52 0 0 0 -2 14.3 52 52 0 0 0 39.4 50.4l2.6-10.4h20l2.6 10.4a52 52 0 0 0 39.4 -50.4 52 52 0 0 0 -2 -14.3l-10.3 3-10-17.3 7.7-7.5a52 52 0 0 0 -37.5 -15.9z"/>
		<path fill="#000" opacity="0.7" d="m 73,38 0,10 -32,1 0,10 32,1 0,10 L 95,54 73,38 Z M 55,66 33,82 55,98 55,88 87,87 87,77 55,76 55,66 Z"/>
	</g>
</svg>
