<?xml version="1.0" encoding="UTF-8"?>
<svg xmlns="http://www.w3.org/2000/svg" width="128" height="128" version="1.1">
	<g filter="url(common.filters#buff)">
		<path fill="#ff1e00" d="m64 15a52 52 0 0 0 -37.3 15.9l7.7 7.4-10 17.3-10.3-2.9a52 52 0 0 0 -2 14.3 52 52 0 0 0 39.4 50.4l2.6-10.4h20l2.6 10.4a52 52 0 0 0 39.4 -50.4 52 52 0 0 0 -2 -14.3l-10.3 3-10-17.3 7.7-7.5a52 52 0 0 0 -37.5 -15.9z"/>
		<path fill="#000" opacity="0.7" transform="matrix(0.667,0,0,0.667,21.312,22.312)" d="m 53,17 -5,23 6,10 20,0 6,-10 -5,-23 -22,0 z m -11,30 -26,6 0,22 26,6 8,-7 28,0 8,7 26,-6 0,-22 -26,-6 -8,7 -28,0 -8,-7 z m 12,31 -6,10 5,23 22,0 5,-23 -6,-10 -20,0 z"/>
	</g>
</svg>
