<?xml version="1.0" encoding="UTF-8"?>
<svg xmlns="http://www.w3.org/2000/svg" width="128" height="128" version="1.1">
	<g filter="url(common.filters#buff)">
		<path fill="#fff32d" d="m64 15a52 52 0 0 0 -37.3 15.9l7.7 7.4-10 17.3-10.3-2.9a52 52 0 0 0 -2 14.3 52 52 0 0 0 39.4 50.4l2.6-10.4h20l2.6 10.4a52 52 0 0 0 39.4 -50.4 52 52 0 0 0 -2 -14.3l-10.3 3-10-17.3 7.7-7.5a52 52 0 0 0 -37.5 -15.9z"/>
		<path fill="#000" opacity="0.7" d="M 57,43 A 24,24 0 0 0 33,67 24,24 0 0 0 57,91 l 32,0 0,-15 -32,0 a 9,9 0 0 1 -9,-9 9,9 0 0 1 9,-9 l 32,0 0,-15 -32,0 z m 18,4 10,0 0,7 -10,0 0,-7 z m 0,33 10,0 0,7 -10,0 0,-7 z"/>
	</g>
</svg>
