<?xml version="1.0" encoding="UTF-8"?>
<svg xmlns="http://www.w3.org/2000/svg" width="128" height="128" version="1.1">
	<g filter="url(common.filters#buff)">
		<path fill="#5590ff" d="m64 15a52 52 0 0 0 -37.3 15.9l7.7 7.4-10 17.3-10.3-2.9a52 52 0 0 0 -2 14.3 52 52 0 0 0 39.4 50.4l2.6-10.4h20l2.6 10.4a52 52 0 0 0 39.4 -50.4 52 52 0 0 0 -2 -14.3l-10.3 3-10-17.3 7.7-7.5a52 52 0 0 0 -37.5 -15.9z"/>
		<path fill="#000" opacity="0.7" transform="matrix(0.34,0,0,0.42,20.191,17)" d="m 31.8,77 4.7,28.1 63.3,24.3 29,64.1 29.1,-64.1 63.3,-24.3 4.7,-28.1 -82.5,33.7 -14.6,53.1 -14.6,-53.1 z m 18.1,44.1 11.8,24.9 42.7,10.2 -9.7,-19.7 z m 112.9,15.4 -9.7,19.7 42.8,-10.2 11.75,-24.9 z m -81.6,40.9 35.4,5.3 -9.1,-18.9 -37.1,-6.85 z m 105.9,-20.4 -37.1,6.9 -9.1,18.8 35.4,-5.3 z"/>
	</g>
</svg>
