<?xml version="1.0" encoding="UTF-8"?>
<svg xmlns="http://www.w3.org/2000/svg" width="128" height="128" version="1.1">
	<g filter="url(common.filters#buff)">
		<path fill="#c1ff19" d="m64 15a52 52 0 0 0 -37.3 15.9l7.7 7.4-10 17.3-10.3-2.9a52 52 0 0 0 -2 14.3 52 52 0 0 0 39.4 50.4l2.6-10.4h20l2.6 10.4a52 52 0 0 0 39.4 -50.4 52 52 0 0 0 -2 -14.3l-10.3 3-10-17.3 7.7-7.5a52 52 0 0 0 -37.5 -15.9z"/>
		<path fill="#000" opacity="0.7" transform="matrix(0.36,0,0,0.4,17.92,16.8)" d="m 78,78 c -27.6,0 -50,22.4 -50,50 0,27.6 22.4,50 50,50 15.8,0 25.9,-5.3 34.2,-14.5 l 48.7,-53.9 c 6,-6.6 7.6,-6.6 17.1,-6.6 13.8,0 25,11.2 25,25 0,13.8 -11.2,25 -25,25 -9.5,0 -11.1,0 -17.1,-6.6 l -10.4,-11.6 -16.3,18.1 9.6,10.6 c 8.3,9.2 18.4,14.5 34.2,14.5 27.6,0 50,-22.4 50,-50 0,-27.6 -22.4,-50 -50,-50 -15.8,0 -25.9,5.3 -34.2,14.5 l -48.7,53.9 c -6,6.6 -7.6,6.6 -17.1,6.6 -13.8,0 -25,-11.2 -25,-25 0,-13.8 11.2,-25 25,-25 9.5,0 11.1,0 17.1,6.6 l 10.4,11.6 16.3,-18.1 -9.6,-10.6 C 103.9,83.3 93.8,78 78,78 Z"/>
	</g>
</svg>
