<?xml version="1.0" encoding="UTF-8"?>
<svg xmlns="http://www.w3.org/2000/svg" width="128" height="128" version="1.1">
	<g filter="url(common.filters#buff)">
		<path fill="#3dc6ff" d="m64 15a52 52 0 0 0 -37.3 15.9l7.7 7.4-10 17.3-10.3-2.9a52 52 0 0 0 -2 14.3 52 52 0 0 0 39.4 50.4l2.6-10.4h20l2.6 10.4a52 52 0 0 0 39.4 -50.4 52 52 0 0 0 -2 -14.3l-10.3 3-10-17.3 7.7-7.5a52 52 0 0 0 -37.5 -15.9z"/>
		<path fill="#000" opacity="0.7" transform="matrix(0.4,0,0,0.4,11.2,18.44)" d="M 44,161.8 C 44,95 104.8,46.3 171.6,107.1 l 30.4,-30.4 0,97.2 -97.2,0 30.4,-30.4 C 92.6,95 56.2,125.4 44,161.8 Z"/>
	</g>
</svg>
