<?xml version="1.0" encoding="UTF-8"?>
<svg xmlns="http://www.w3.org/2000/svg" width="128" height="128" version="1.1">
	<g filter="url(common.filters#buff)">
		<circle fill="#222" cx="64" cy="64" r="58"/>
		<path fill="#ffd909" transform="matrix(1.3,0,0,1.3,14.5,64)" d="M 0,0 C 0,-14.4 7.8,-27.1 19.5,-33.8 L 33,-10.4 c -3.6,2.1 -6,6 -6,10.4 L 0,0 Z M 19.5,33.8 33,10.4 c 1.8,1 3.8,1.6 6,1.6 2.2,0 4.2,-0.6 6,-1.6 l 13.5,23.4 c -5.7,3.3 -12.4,5.2 -19.5,5.2 -7.1,0 -13.8,-1.9 -19.5,-5.2 z M 31,0 c 0,-4.4 3.6,-8 8,-8 4.4,0 8,3.6 8,8 0,4.4 -3.6,8 -8,8 C 34.6,8 31,4.4 31,0 Z M 45,-10.4 58.5,-33.8 C 70.2,-27.1 78,-14.4 78,0 L 51,0 c 0,-4.4 -2.4,-8.3 -6,-10.4 z"/>
	</g>
</svg>
