<?xml version="1.0" encoding="UTF-8"?>
<?xml-stylesheet href="common.css" type="text/css"?>
<svg xmlns="http://www.w3.org/2000/svg" width="256" height="256" version="1.1">
	<g class="crylink shining">
		<path d="M 37.6,187.1 27.2,193.1 C 48.6,226.2 85.7,248 128,248 c 42.3,0 79.4,-21.8 100.8,-54.9 l -10.4,-6 c -5,7.7 -11,14.7 -17.8,20.9 l -15.4,-2.8 C 169.2,217 149.4,224 128,224 106.6,224 86.8,217 70.9,205.2 l -15.4,2.8 C 48.7,201.8 42.7,194.8 37.6,187.1 z M 122,8.1 C 34.7,13 -18.3,104.7 21.2,182.7 l 10.4,-6 c -4.1,-8.2 -7.2,-16.9 -9.2,-25.9 l 10.2,-12 C 27.8,96.8 51,56.7 89.7,39.9 L 95,25.1 c 8.7,-2.8 17.8,-4.5 27,-5 z M 234.8,182.7 C 274.3,104.7 221.3,13 134,8.1 l 0,12.1 c 9.2,0.5 18.3,2.2 27,5 l 5.3,14.8 c 38.7,16.8 61.9,57 57.1,98.9 l 10.2,12 c -1.9,9 -5,17.7 -9.2,25.9 z"/>
		<path transform="matrix(1.5,0,0,1.5,34,26)" d="M 19.3,94.4 C 33.8,119.5 78.1,104.3 65.3,70.1 64.9,93.4 48.8,93.5 43.5,80.4 40.2,72 31.2,69 23.4,73.5 c -7.8,4.5 -8.6,13.1 -4.1,20.9 z M 107.7,92.6 c 14.5,-25.1 -20.8,-55.9 -44,-27.7 20.4,-11.3 28.5,2.6 19.8,13.7 -5.6,7.1 -3.7,16.4 4.1,20.9 7.8,4.5 15.6,0.9 20.1,-6.9 z M 62,17 C 33,17 24,63 60,69 40,57 48,43 62,45 70.9,46.3 78,40 78,31 78,22 71,17 62,17 z"/>
	</g>
</svg>
