<?xml version="1.0" encoding="UTF-8"?>
<?xml-stylesheet href="common.css" type="text/css"?>
<svg xmlns="http://www.w3.org/2000/svg" width="256" height="256" version="1.1">
	<g class="electro shining">
		<path d="M 37.6,187.1 27.2,193.1 C 48.6,226.2 85.7,248 128,248 c 42.3,0 79.4,-21.8 100.8,-54.9 l -10.4,-6 c -5,7.7 -11,14.7 -17.8,20.9 l -15.4,-2.8 C 169.2,217 149.4,224 128,224 106.6,224 86.8,217 70.9,205.2 l -15.4,2.8 C 48.7,201.8 42.7,194.8 37.6,187.1 z M 122,8.1 C 34.7,13 -18.3,104.7 21.2,182.7 l 10.4,-6 c -4.1,-8.2 -7.2,-16.9 -9.2,-25.9 l 10.2,-12 C 27.8,96.8 51,56.7 89.7,39.9 L 95,25.1 c 8.7,-2.8 17.8,-4.5 27,-5 z M 234.8,182.7 C 274.3,104.7 221.3,13 134,8.1 l 0,12.1 c 9.2,0.5 18.3,2.2 27,5 l 5.3,14.8 c 38.7,16.8 61.9,57 57.1,98.9 l 10.2,12 c -1.9,9 -5,17.7 -9.2,25.9 z"/>
		<path transform="matrix(1.5,0,0,1.5,32,27)" d="m 64,23 c -8,0 -15.2,3.7 -20,9.4 L 44,43 c 5.5,-4.4 12.4,-7 20,-7 7.6,0 14.5,2.6 20,7 L 84,32.4 C 79.2,26.7 72,23 64,23 z m 0,21 C 50.7,44 40,54.7 40,68 40,81.3 50.7,92 64,92 77.3,92 88,81.3 88,68 88,54.7 77.3,44 64,44 z m -31.7,19.2 -9.1,5.3 c -2.6,7 -2.2,15 1.8,22 4.1,7 10.8,11.4 18.2,12.6 l 9.1,-5.3 C 45.8,95.3 40.1,90.5 36.3,84 c -3.8,-6.5 -5,-13.9 -4,-20.8 z m 63.4,0 c 1,6.9 -0.2,14.3 -4,20.8 -3.8,6.5 -9.5,11.3 -16,13.8 l 9.1,5.3 c 7.4,-1.2 14.1,-5.6 18.2,-12.6 4,-7 4.4,-15 1.8,-22 l -9.1,-5.3 z"/>
	</g>
</svg>
