<?xml version="1.0" encoding="UTF-8"?>
<?xml-stylesheet href="common.css" type="text/css"?>
<svg xmlns="http://www.w3.org/2000/svg" width="256" height="256" version="1.1">
	<g class="rocketlauncher shining">
		<path d="M 37.6,187.1 27.2,193.1 C 48.6,226.2 85.7,248 128,248 c 42.3,0 79.4,-21.8 100.8,-54.9 l -10.4,-6 c -5,7.7 -11,14.7 -17.8,20.9 l -15.4,-2.8 C 169.2,217 149.4,224 128,224 106.6,224 86.8,217 70.9,205.2 l -15.4,2.8 C 48.7,201.8 42.7,194.8 37.6,187.1 z M 122,8.1 C 34.7,13 -18.3,104.7 21.2,182.7 l 10.4,-6 c -4.1,-8.2 -7.2,-16.9 -9.2,-25.9 l 10.2,-12 C 27.8,96.8 51,56.7 89.7,39.9 L 95,25.1 c 8.7,-2.8 17.8,-4.5 27,-5 z M 234.8,182.7 C 274.3,104.7 221.3,13 134,8.1 l 0,12.1 c 9.2,0.5 18.3,2.2 27,5 l 5.3,14.8 c 38.7,16.8 61.9,57 57.1,98.9 l 10.2,12 c -1.9,9 -5,17.7 -9.2,25.9 z"/>
		<path transform="matrix(1.5,0,0,1.5,31,34)" d="m 46.3,13 -7.8,24.4 11.4,4.3 10.5,-23.3 z m -10.6,33.4 -6.5,20.3 8,3.1 8.8,-19.4 z m -9.1,28.4 -5.6,17.6 5.1,2 7.6,-16.8 z M 84.9,34.3 67.9,53.4 76.5,62 95.6,45 Z M 61.7,60.5 47.5,76.4 53.6,82.5 69.5,68.3 Z m -19.8,22.3 -12.3,13.8 3.9,3.9 13.8,-12.3 z m -6.3,21.1 2,5.1 17.6,-5.6 -2.7,-7.1 z m 24.6,-11.1 3.1,8 20.3,-6.5 -4,-10.3 z m 28.1,-12.7 4.4,11.4 24.4,-7.8 -5.4,-14.1 z"/>
	</g>
</svg>
