<?xml version="1.0" encoding="UTF-8"?>
<?xml-stylesheet href="common.css" type="text/css"?>
<svg xmlns="http://www.w3.org/2000/svg" width="256" height="256" version="1.1">
	<g class="hagar shining">
		<path d="M 37.6,187.1 27.2,193.1 C 48.6,226.2 85.7,248 128,248 c 42.3,0 79.4,-21.8 100.8,-54.9 l -10.4,-6 c -5,7.7 -11,14.7 -17.8,20.9 l -15.4,-2.8 C 169.2,217 149.4,224 128,224 106.6,224 86.8,217 70.9,205.2 l -15.4,2.8 C 48.7,201.8 42.7,194.8 37.6,187.1 z M 122,8.1 C 34.7,13 -18.3,104.7 21.2,182.7 l 10.4,-6 c -4.1,-8.2 -7.2,-16.9 -9.2,-25.9 l 10.2,-12 C 27.8,96.8 51,56.7 89.7,39.9 L 95,25.1 c 8.7,-2.8 17.8,-4.5 27,-5 z M 234.8,182.7 C 274.3,104.7 221.3,13 134,8.1 l 0,12.1 c 9.2,0.5 18.3,2.2 27,5 l 5.3,14.8 c 38.7,16.8 61.9,57 57.1,98.9 l 10.2,12 c -1.9,9 -5,17.7 -9.2,25.9 z"/>
		<path transform="matrix(1.5,0,0,1.5,34,28)" d="m 66.7,14 c -6.6,1.7 -10.7,3.7 -14.8,6.6 l 11.6,11.6 C 66.3,28 68.3,23.9 70,17.3 70,14.8 69.2,14 66.7,14 z M 49.8,21.8 37.8,33.8 37,39.6 22.9,54.4 l -1.6,5 3.3,3.3 5,-1.6 14.8,-14 5.8,-0.8 12,-12 -12.4,-12.4 z m -19.8,21.9 -10.3,4.1 -1.7,4.1 3.7,0.4 8.3,-8.7 z M 76,49 c -8,2 -13,4.5 -18,8 l 14,14 c 3.5,-5 6,-10 8,-18 0,-3 -1,-4 -4,-4 z m -35.7,5 -8.7,8.3 0.4,3.7 4.1,-1.7 4.1,-10.3 z M 55.5,58.5 41,73 l -1,7 -17,18 -2,6 4,4 6,-2 18,-17 7,-1 14.5,-14.5 -15,-15 z m 55.7,3.5 c -5.6,1.4 -9.1,3.1 -12.6,5.6 l 9.8,9.8 C 110.9,73.9 112.6,70.4 114,64.8 114,62.7 113.3,62 111.2,62 z M 96.9,68.6 86.8,78.8 l -0.7,4.9 -11.9,12.6 -1.4,4.2 2.8,2.8 4.2,-1.4 12.6,-11.9 L 97.3,89.3 107.4,79.1 96.9,68.6 z M 31.5,85 19,90 17,95 21.5,95.5 31.5,85 z M 80.1,87.2 71.4,90.6 70,94.1 l 3.2,0.3 7,-7.3 z m 8.7,8.7 -7.3,7 L 81.9,106 l 3.5,-1.4 3.5,-8.7 z M 44,97.5 l -10.5,10 0.5,4.5 5,-2 5,-12.5 z"/>
	</g>
</svg>
