<?xml version="1.0" encoding="UTF-8"?>
<?xml-stylesheet href="common.css" type="text/css"?>
<svg xmlns="http://www.w3.org/2000/svg" width="256" height="256" version="1.1">
	<g class="minstanex shining">
		<path d="M 37.6,187.1 27.2,193.1 C 48.6,226.2 85.7,248 128,248 c 42.3,0 79.4,-21.8 100.8,-54.9 l -10.4,-6 c -5,7.7 -11,14.7 -17.8,20.9 l -15.4,-2.8 C 169.2,217 149.4,224 128,224 106.6,224 86.8,217 70.9,205.2 l -15.4,2.8 C 48.7,201.8 42.7,194.8 37.6,187.1 z M 122,8.1 C 34.7,13 -18.3,104.7 21.2,182.7 l 10.4,-6 c -4.1,-8.2 -7.2,-16.9 -9.2,-25.9 l 10.2,-12 C 27.8,96.8 51,56.7 89.7,39.9 L 95,25.1 c 8.7,-2.8 17.8,-4.5 27,-5 z M 234.8,182.7 C 274.3,104.7 221.3,13 134,8.1 l 0,12.1 c 9.2,0.5 18.3,2.2 27,5 l 5.3,14.8 c 38.7,16.8 61.9,57 57.1,98.9 l 10.2,12 c -1.9,9 -5,17.7 -9.2,25.9 z"/>
		<path transform="matrix(1.45,0,0,1.45,36,32)" d="M 46.5,58 C 36.2,55.6 36.3,63.9 42.2,72.9 L 60,49 45,53 71,34 47,36 c 24,-13 51,-18 57,-12 6,6 1,33 -12,57 L 94,57 75,83 79,68 55.1,85.8 c 9,5.9 17.3,6 14.9,-4.3 C 78.5,98.5 63,103 44,84 25,65 29.5,49.5 46.5,58 z M 49.6,81.5 99,40 c 3,-2.5 3,-12 2,-13 -1,-1 -10.5,-1 -13,2 L 46.5,78.4 z M 31,77 c -8.9,-2.1 -8.4,5.8 -2.3,14 L 36.8,80.2 41,85 32.5,95.5 43,87.1 47.8,91.3 37,99.4 c 8.2,6 16.1,6.5 14,-2.4 7.5,16.5 -8,16 -22,2 C 15,85 14.5,69.5 31,77 z m -15,31 7.8,-10.4 3.1,3.5 3.5,3.1 L 20,112 z"/>
	</g>
</svg>
