<?xml version="1.0" encoding="UTF-8"?>
<?xml-stylesheet href="common.css" type="text/css"?>
<svg xmlns="http://www.w3.org/2000/svg" width="256" height="256" version="1.1">
	<g class="minelayer shining">
		<path d="M 37.6,187.1 27.2,193.1 C 48.6,226.2 85.7,248 128,248 c 42.3,0 79.4,-21.8 100.8,-54.9 l -10.4,-6 c -5,7.7 -11,14.7 -17.8,20.9 l -15.4,-2.8 C 169.2,217 149.4,224 128,224 106.6,224 86.8,217 70.9,205.2 l -15.4,2.8 C 48.7,201.8 42.7,194.8 37.6,187.1 z M 122,8.1 C 34.7,13 -18.3,104.7 21.2,182.7 l 10.4,-6 c -4.1,-8.2 -7.2,-16.9 -9.2,-25.9 l 10.2,-12 C 27.8,96.8 51,56.7 89.7,39.9 L 95,25.1 c 8.7,-2.8 17.8,-4.5 27,-5 z M 234.8,182.7 C 274.3,104.7 221.3,13 134,8.1 l 0,12.1 c 9.2,0.5 18.3,2.2 27,5 l 5.3,14.8 c 38.7,16.8 61.9,57 57.1,98.9 l 10.2,12 c -1.9,9 -5,17.7 -9.2,25.9 z"/>
		<path transform="matrix(1.5,0,0,1.5,32,32)" d="m 54,24 4,15 12,0 4,-15 z m -2.1,5.8 -16.7,12.1 11.1,7.2 -5.4,16.5 -13.2,-0.7 6.4,19.7 10.2,-8.3 14.1,10.2 -4.8,12.3 20.7,0 -4.8,-12.3 14.1,-10.2 10.3,8.3 6.4,-19.7 -13.2,0.7 -5.3,-16.5 11,-7.2 -16.7,-12.1 -3.4,12.7 -17.4,0 z M 29.1,42.1 22.9,61.2 38.4,62 42.1,50.6 z m 69.9,0 -13,8.4 3.7,11.4 15.5,-0.8 z M 64,47 c 9.4,0 17,7.6 17,17 0,9.4 -7.6,17 -17,17 -9.4,0 -17,-7.6 -17,-17 0,-9.4 7.6,-17 17,-17 z m 0,5 c -6.6,0 -12,5.4 -12,12 0,6.6 5.4,12 12,12 6.6,0 12,-5.4 12,-12 0,-6.6 -5.4,-12 -12,-12 z m -19.6,28.7 -12,9.8 16.2,11.8 5.6,-14.5 z m 39.1,0 -9.7,7.1 5.6,14.5 16.2,-11.8 -12,-9.8 z"/>
	</g>
</svg>
