<?xml version="1.0" encoding="UTF-8"?>
<?xml-stylesheet href="common.css" type="text/css"?>
<svg xmlns="http://www.w3.org/2000/svg" width="256" height="256" version="1.1">
	<g class="porto shining">
		<path d="M 37.6,187.1 27.2,193.1 C 48.6,226.2 85.7,248 128,248 c 42.3,0 79.4,-21.8 100.8,-54.9 l -10.4,-6 c -5,7.7 -11,14.7 -17.8,20.9 l -15.4,-2.8 C 169.2,217 149.4,224 128,224 106.6,224 86.8,217 70.9,205.2 l -15.4,2.8 C 48.7,201.8 42.7,194.8 37.6,187.1 z M 122,8.1 C 34.7,13 -18.3,104.7 21.2,182.7 l 10.4,-6 c -4.1,-8.2 -7.2,-16.9 -9.2,-25.9 l 10.2,-12 C 27.8,96.8 51,56.7 89.7,39.9 L 95,25.1 c 8.7,-2.8 17.8,-4.5 27,-5 z M 234.8,182.7 C 274.3,104.7 221.3,13 134,8.1 l 0,12.1 c 9.2,0.5 18.3,2.2 27,5 l 5.3,14.8 c 38.7,16.8 61.9,57 57.1,98.9 l 10.2,12 c -1.9,9 -5,17.7 -9.2,25.9 z"/>
		<path transform="matrix(1.5,0,0,1.5,32,32)" d="m 70,111 c 10,0 9,-10 3,-21 l -4.5,0 c 3,6 3.5,12 -1.5,12 -14,0 -41,-27 -41,-41 0,-5 6,-4.5 12,-1.5 L 38,55 c -11,-6 -21,-7 -21,3 0,19 34,53 53,53 z m -14,-67 9,9 -12,12 -9,-9 0,28 28,0 -9,-9 12,-12 9,9 0,-28 -28,0 z m 2,-27 c -10,0 -9,10 -3,21 l 4.5,0 C 56.5,32 56,26 61,26 c 14,0 41,27 41,41 0,5 -6,4.5 -12,1.5 l 0,4.5 c 11,6 21,7 21,-3 C 111,51 77,17 58,17 z"/>
	</g>
</svg>
