<?xml version="1.0" encoding="UTF-8"?>
<?xml-stylesheet href="common.css" type="text/css"?>
<svg xmlns="http://www.w3.org/2000/svg" width="256" height="256" version="1.1">
	<g class="uzi shining">
		<path d="M 37.6,187.1 27.2,193.1 C 48.6,226.2 85.7,248 128,248 c 42.3,0 79.4,-21.8 100.8,-54.9 l -10.4,-6 c -5,7.7 -11,14.7 -17.8,20.9 l -15.4,-2.8 C 169.2,217 149.4,224 128,224 106.6,224 86.8,217 70.9,205.2 l -15.4,2.8 C 48.7,201.8 42.7,194.8 37.6,187.1 z M 122,8.1 C 34.7,13 -18.3,104.7 21.2,182.7 l 10.4,-6 c -4.1,-8.2 -7.2,-16.9 -9.2,-25.9 l 10.2,-12 C 27.8,96.8 51,56.7 89.7,39.9 L 95,25.1 c 8.7,-2.8 17.8,-4.5 27,-5 z M 234.8,182.7 C 274.3,104.7 221.3,13 134,8.1 l 0,12.1 c 9.2,0.5 18.3,2.2 27,5 l 5.3,14.8 c 38.7,16.8 61.9,57 57.1,98.9 l 10.2,12 c -1.9,9 -5,17.7 -9.2,25.9 z"/>
		<path transform="matrix(1.5,0,0,1.5,30,34)" d="M 62,23 C 57.8,23 44.5,33 41.2,36.3 l 7.5,7.5 C 52,40.5 62,27.2 62,23 z m 40,3 C 97,26 81,38 77,42 l 9,9 c 4,-4 16,-20 16,-25 z M 38.7,37.2 20.3,55.5 29.5,64.7 47.8,46.3 38.7,37.2 z M 74,43 52,65 63,76 85,54 74,43 z M 18.7,57.2 17,59.7 25.3,68 27.8,66.3 18.7,57.2 z M 50,67 48,70 58,80 61,78 50,67 z m 48,5 C 94.2,72 82.1,81.1 79,84.2 L 85.8,91 C 88.9,87.9 98,75.8 98,72 z M 76.8,84.9 60,101.6 68.4,110 85.1,93.3 76.8,84.9 z m -18.3,18.2 -1.5,2.3 7.6,7.6 2.3,-1.5 -8.4,-8.4 z"/>
	</g>
</svg>
